<mxfile host="app.diagrams.net" modified="2023-06-22T12:44:08.635Z" agent="Mozilla/5.0 (Windows NT 10.0; Win64; x64) AppleWebKit/537.36 (KHTML, like Gecko) Chrome/112.0.0.0 YaBrowser/23.5.2.625 Yowser/2.5 Safari/537.36" etag="rd1Ziu9medFrVtWcetlA" version="21.5.0" type="device">
  <diagram name="Страница 1" id="8orRob9dDxfLc-sxOa4M">
    <mxGraphModel dx="2006" dy="1817" grid="1" gridSize="10" guides="1" tooltips="1" connect="1" arrows="1" fold="1" page="1" pageScale="1" pageWidth="827" pageHeight="1169" math="0" shadow="0">
      <root>
        <mxCell id="0" />
        <mxCell id="1" parent="0" />
        <mxCell id="8375zv5q1dLebi3DOs6F-1" value="" style="shape=image;verticalLabelPosition=bottom;labelBackgroundColor=default;verticalAlign=top;aspect=fixed;imageAspect=0;image=data:image/png,iVBORw0KGgoAAAANSUhEUgAAAoIAAAFgCAIAAACg9o9WAAABAWlDQ1BzUkdCAAAYlWNgYDzBAAQsBgwMuXklRUHuTgoRkVEK7A8YGIEQDBKTiwsYcAOgqm/XIGov6+JRhwtwpqQWJwPpD0CsUgS0HGikCJAtkg5ha4DYSRC2DYhdXlJQAmQHgNhFIUHOQHYKkK2RjsROQmInFxSB1PcA2Ta5OaXJCHcz8KTmhQYDaQ4glmEoZghicGdwAvkfoiR/EQODxVcGBuYJCLGkmQwM21sZGCRuIcRUFjAw8LcwMGw7jxBDhElBYlEiWIgFiJnS0hgYPi1nYOCNZGAQvsDAwBUNCwgcblMAu82dIR8I0xlyGFKBIp4MeQzJDHpAlhGDAYMhgxkAptY/P0wp5jsAAAAJcEhZcwAADsQAAA7EAZUrDhsAACAASURBVHic7H1nXFTH9/fcu4VdiqLSVIxgwd41xpbYS4y9lyhYEEti1ESJXbEbLNHEiMEGYk2Mmp+9oaBgLyhFQVAElCZl++6d58X53/MMC2IJ9j0v+Cy7c+fOnZl7+vkORyklFrLQh0mUUoPBIJfL4TPHcfC90WiUSqXwJSGE4zj2V/azVqtNTU2Nj49PTExMSUlJS0tLS0vLzs5+8uSJTqfLz8/Pz8/XarWCIEA/PM8rFAobGxtra2tbW9ty5co5OTnZ29u7ubk5ODi4u7tXrVq1QoUKCoWCEGIymSilOBK4KXwwmUyEEIlEgs9iMpl4nuc4ThAEnuexvclkYptZyEIW+siIs4hhC33oZDAYJBIJz/PwL4gxFGaUUpRqBoMhKSnp9u3b169fv379enx8/MOHD11cXKpUqeLm5uYiUpkyZSpUqCCXy21sbGxsbBQKBQpCk8mk0+nUarVKpcrNzc3KykpPT8/JyYmPj8/Ozk5ISIiNjc3MzHRwcGjatGndunUbNmxYo0YNDw8PnudBoLJiFdQFSqkgCPAl6g2EEcBarRbkuoUsZKGPjyxi2EIfKlFKTSYTiDGQWwaDgRAik8kIY1wSQi5evBgWFhYaGnrjxg1ra+u6des2aNCgUaNGHh4e1apVg2ZoH2Pnhb8BiU4IEQQBL6GUGo1GmUyGElQQhMTExCtXrsTExNy5cyciIsJgMLRq1erzzz9v27Zts2bNQO6CbY2dgyQ2Go08z+P3xGINW8hCHztZxLCFPgYC2xc+g0jLyck5dOjQ//73v9OnT1erVu2rr7764osvWrRo4eTkBBIUpfgr3YgVz+CphvuCkCaEmEl0g8Egk8lSUlIuXLhw5cqVo0ePpqamduzYsUePHu3bt3dycmKlLD6FXq8HTzuYy/ivhSxkoY+PLGLYQh8qoZ8ZzEeO44xGo0ql2rdv38GDB8PCwrp06dK3b99mzZpVrlyZtV9ZYo1mfBfAojVrz7qLzYaBLmXsk1IqkUgKNyaEpKWlHT169NixY0ePHv38888HDx48YMAAW1tbuCM8FHxA49tCFrLQR0wWMWyhD5JY8xfo7NmzISEhu3bt+vrrr4cOHdqzZ08iGqNgcbIGK/SA+VNmCVNmHunCDmrWDsY2pKCQRvGMYxAEARzmRHQ1HzlyZPv27QcOHBg6dOiwYcPatWvHBrZJQTe7hSxkoY+SLGLYQh8qoat269atv//+u1wuHzp0qKenp7W1NdussMhkyWg0mpmtmMnMxm6J6HYGyfo8KxnasGY05myzBIKZiMJYEIT169fv2LFDKpWOGTPGy8uLiGlZFne0hSz00ZNFDFvogySwF//888/ly5fXr19/ypQpLVu2ZJOlCSE8z7NSsLC8JExklxTlcCYFPdWvNEKzJG2zm5rFmGEYp06dCggIuHz58syZM8eMGVPY4reQhSz08ZHlJbfQe0EgOAt/CQYo+6XRaCSE/PXXXy1btjx06NCePXv++uuvL774gk2VwmRjEHiCIEDkle0ZjF0sCIYwc+HxwFVszTH+im3YL4noSUbXNw6btZLZwaCs7dChw65du/bt23fixIk6deocPHiw+FkqctJKnFB7gGnELwuPBJLGscHzGrM9F3mvwote+KrC10JkgTDTgt8QcduwHyxkofeELNawhd4LMtuHZqYnOG91Op2VlVV8fPyMGTOePn06a9asLl26ENGNzEJ2QBY0hlQxmQu+KRIZA0xP1gms0WisrKwwUsv2jyAbhT3e0AwbsyMHMSaVSosxc1HGXLx40dfX18HBYcWKFVWrVoULScFaqbdAxTvVCRNWZ6fXLGeNFCU1zdQUUijJvMhr2bQ1diFghomYc4f9swVggiCwu8JCFnpPyCKGLfS+UOHAKhAr/37//fdZs2YtWrRo0qRJ2B5Zs1kNEhjT8A2KMVIwb0sQBJ1Op1QqScE4Md4UYUBIITQuvIuZTMVr8UZmYeYiZRsSShRCyPr162fPnr106dLx48ejilBYY3jTBBYkO2ZWEhNR22DnH3QOFIFGo/Hx48dxcXGJiYlpImVlZWVmZmq12ry8vLy8PI1Gg1JZKpVaWVlZW1vb2NjY2dmVK1cOYFUqVapUpkyZatWqVapUyc3NTS6X46KAvwHFv16vl0ql6P9nF85s8Bay0Lslixi20HtKtCD6o9Fo9Pb2TktLW7VqVc2aNc14q8lkMhqNKL1YFEm2NxS96KwGrm0GxwENwM5jjVq0/Fi8SZPJhFY1yoAiGT1loDefRyBcoUPoJCEh4fvvvy9dunRQUBAoE4VVgTdHZhqD0WiklLKmME4761owGAyPHj2Kioq6cuXKtWvXEhIS4uLiXF1dPTw83N3dEa2sbNmyZcuWVSqVdnZ2dnZ2SqWSDaJrNBqVSgWAZRkZGampqVlZWY8fP87NzY2NjX3w4EFycnLFihXr1atXX6Tq1asTRnPCFYch8TyPa/d2Zs9CFnoZsohhC713VNgsvn///sCBA3v16jV37lwz5Cyz7CoUrmwD1kfKAmLgT2hZajQapVLJejvRxmK/NPN8ssQKYL1ez0oskGcvtGJZXQFjrvPnzz916lRwcHCVKlUKP9RboGKMfvz10qVL586dO3PmzNWrV21tbevXrw9oZTVq1KhRowa0ZHWIIvWJF+bE6XQ6WDue5+/fv3/r1q2oqCgQ+fn5+W3atPn888+//PLLFi1awAhZ74JZPZiFLPQ+kEUMW+j9Isyxgn+1Wu39+/e7du06f/58T09PkIgGg0EqlZphXKB9vGzZspkzZ8JnQsi+fft69+4NQt1MdJmJcFauQEyRiHFf8FcTEdkDh8f6t0khrzhh7Gzo/IUCACWTTqeTSqVs6DogIMDPz+/IkSN16tR5nhLwJogNr2KiGTr509PTDxw4EBoaevToUXd397Zt27Zs2bJly5YODg6oSIFbHnp7pcC2GU6Z2dwiIjeGmdPT08PCwi5dunTq1KmkpKROnTp16NBh0KBBSqUSFCkYgAUf1ELvF1ELWeh9IgjoAun1+jt37jg6Ou7btw+/12q1hVuCZxg++/n5zZs3DxrExMR06NAhLi4O2lBKDQYDNNNoNPDBaDSCr9WsH/wSwpx4L51OBx/UajV+iY3xRpAQhP/Crc2+ed4M4O0EQTAajfjvnj17SpcuHRMTU3wPJUv4aDh1giDk5uZu3bq1W7duZcqUGTlyZHBwcGpqKjQuvC5mEwgPZTQaC/9ExXnT6/Vm7fGzwWCAv1TcAyaTCf7FmQeRHBQUNHLkSBsbm6+//jowMFClUtGCK2UhC70PZPHMWOi9ILa2BEiv1+fn5/fp0+eXX37p168fWGCEEDOPLqUUXMQYzWWzsSpVqlS9evWnT59qNJqff/45JiYGs720Wu3gwYOjo6MlEklOTk6XLl14nu/WrVtqaqqPjw/HcQqFAky3kJCQ7Ozsbt26wb8rV64UBCEuLq5Vq1bwTZcuXXJycnQ63Y8//hgXF8dxXHR0dLdu3W7fvu3t7Q2JQhzHKZXK3bt3+/n5RUZGFj8VYLGBJQ1ZY/Ds/fr1+/3333v27JmdnU3eSsESpRTD5zB1Z8+eHT16dIUKFY4fP+7j45OVlbVly5bBgwe7uLhQBsLz//iLiDMKzgmQmvBQcChWYeMY0tnAmY+VZmi8chwHjhDWDuZ5XiqVwjagYjijTJkyw4cP37x5c35+/ujRo8+dO+fs7Dxy5MiIiAhqcQFa6H0iixi20HtBEA0lTJ2JXC739PT08vIaMWIEYfJuaMHYIcuj0W8M8pjjuMTExPz8fDhnECK18BOlVK/XgzBQq9U///zzvHnzBEHw9PQMDAz87bffNBrN6NGjw8LCBEHo37//jBkzhgwZQimNjY09d+5cbGwsz/MdO3ZUqVRGo9HLy2v9+vUwBhCie/bsSU9Pl8vlAQEBarXax8fn7NmzOp1uyJAhPM9jgTI+C/tcIO3YoxuJ6JjleX7QoEFjxowZNWoUZVz3YIOa9fmqJDBV2vCZMH5vnudDQkKaNm06e/bspk2bZmZmbt++HRBDMQ+cFajPk6+v5Eg3O2zKjMy6wtVn/wXq0aPH1q1b09PTmzRpMm3atFatWu3YsQN3ArQpssgYyCK2LfRGySKGLfS+EDA74IASiWTFihWEkOnTpxMxPPkyJbM6nY7n+QULFoA5W6dOHW9vb0dHR0qpra2tWq2GhCye562srIxGI+T05ubm1qpVy2g0DhkyZMaMGWDSoT0qlUo3bdr07bffUkrt7e2dnJzkcjn4tLHSycPDw2AwcBxnY2Nz/vz53Nzctm3bQoYXaABgExNCDAaDQqEAaQcPS4sq0zIjaA8nK0+bNo3neX9/f8IgY//3nCMYBug6IC/Bi24ymbZs2VK7du09e/asXLkyLCxswoQJZloCeV9lFWwbmUwGS/n999+HhYWtWLFi37599erVCwwMhGFjtBhLs7RaLfRA32JeuoU+TbKIYQu9F4R8ELyLKSkpc+fO/e2334CNgoEILBI9tEUSCFcwbVUqlUaj2bFjR1BQECEkOTm5UaNGEolEqVRu374dso1kMll2dnZ2djakREH5DYhnuVwOGbYSiSQ8PBzKXVxcXK5cuSIIglKpPHr0KLhPt23b1qFDB7lcLpFIkpOTDx8+PGLECJlMJpFIYORSqRSeS6/XW1lZNW/eHDze+/btg2Gjw/Z5zwUyDzrhOO7XX3+dO3duQkICuuLJf/NRo/MZ7XJAuvj333+bNWt27NixwMDAf/75p127dlQs6PpQhBMqFrCaHMe1aNFi//79gYGBp0+fbty4MawCgqvAfCoUCrgcYsnvcPwW+ujJIoYt9B4RBHolEomfn9/MmTPLly8P5Z5EdFOTgjhKRZIgnr4AnLd9+/aJiYmUUhcXl+vXr5tMpszMzP/973/37t0DGW9vb+/g4KBUKuFeYFxCbDInJ4cQkpGRsWDBgrCwMKPRmJ6e3qxZM7ARu3XrBogTCxcunD17tkqlgqQwKyurWrVq6fV60BuguBZEl1wuFwThwoULWq02MzPz4MGDcXFx5OUcthhVJYRUrFhxxowZ4AnHw6PYQqBXnXm2+gumNyEhYciQIb/88ou/v/+uXbtatGgBqVLPG+r7KZVRdcM5werhFi1aBAUF+fv7r1u3bsiQIY8fP4YHxwJxImbCv5+PZqGPhixi2ELvBWEekEQiycvL27Rp03fffUfEM/7QINbpdCxLLUwmk0mpVGL8VaPRnD17tlKlSsB82Qg0JNxyHOfk5PTkyZNbt25JpdL9+/ePGzdOq9VqtVqTyWRvbw/WJwhmnuePHj167do1RPPARF+wop49e7Zu3brBgweDIxQjplKpFBy8hBBKqU6ne9X5AY83Dp7n+YkTJ65evfrJkyc4IWxR0Kv2jxeChrFx48ZGjRq1bNny/Pnz7dq1g18hE0qv15td9T67baFIDBYaE8QIIbBDOI7r0KFDaGhoq1atatas+ccff+CFoHPg9ntnD2ChT4AsYthC7wtB4JMQsmvXrr59+5YpUwZKhDED1mQygUFcOK0aSSKRaLXaWbNmWVtby2QyOzs7JycnT09Po9H49OnTevXqSSSSMmXK9OzZs2bNmjKZjFJatmzZtWvXTp48WSKRbNiwYfny5VZWVra2toQQSOMqV67c0KFDmzdvznGcWq1u3bp1Xl6eVqsNCwuzsbGxsrJq1arV0KFDlUqlVCr96aefPDw8MGcb856sra3xKTp06KBQKMqVK9ezZ08PDw/yEk5phGuGng0Gg4ODw/Dhw0+dOkWYfKj/4j7Nz88nhEil0nHjxu3duzcqKuq7777Dmgpoo9VqwaBnyy3eWxlMxFwBNuCN84xmrlqtnjx58o0bNw4dOjRq1CiVSoVZ3JRS9MdYyEJviCzwHRZ6LwixpUwm0+jRo7/88stRo0aBSxBDlSyu5PP6wV/VarW1tTX2UCRoAxjELBYjZaCyEA8LP2COGGUgIyCqipeTgpBenIhfQUVwzcK3eElJBmgV7FP8+eefJ0+eDAkJwVG9TLZXMRQTE/Ptt99++eWX/v7+CB+GkCMIb1L4kOb3mcDqNUM2hQ8cA8YCi+vr6xsaGhocHFypUiXE3rKQhd4oWbQ8C70XxB5acOnSpS+++AJShFDyQZ3oC/GPMM/I2tqaiujHIDBAogALBpe1TCazsrICGSmRSEDwkILptfABg6aceIQAjhakLyvCYSR6vR6bQa4W69vElCsiRi6LV4hRimNOFqW0ZcuWt27dYqU42nCvOv+CIFy/fr1z586VKlVavXo1x3HgTti+fTvke8NowTqEyt0iB/mq933TBHuAPXoLNRV8BEHE6uI4bvny5WPHjm3fvv2dO3cIU7hlIQu9ObKI4dcngPsppgHy1sJMlv3peRcW/gm/+ShZA2bTPHjwoHLlyiDYWH8gWyJcDKHtW2TKEvyEfJkwHl0QMzAMrNPFEmTsCgUqOpmxZyiFQp8nfk+ZWiwQ5IQJ96JgKCYGyf6KIBXu7u4PHz4E9cIMMLKY+QEVBIcNY7t7926XLl1Wr15dr149Pz8/QRB0Ol1MTExwcHBsbCyakpBbTsXyYrPSW1YDoCIeFimYbAyaDQ4D5RyEnNmVAvUIPmNhNNvA7HWADrEmG/Pj2IctrKMUTjcbPXr0L7/80rlz59u3b7PfA7AXsYSKi6Ji5sSMTz5P48RNZdaS5ZPstbiRqIibxl74nx7mrZNFDL8mmYH7mG0FM/4OjamIm8jWv2JID+OIeCGrreP3iLaII2ElwYdLtGDxK+Qtv4bbE01DkHas5AOhDuFekGpo+8K1wC/Yc/qIKE0hqQouYWPVnIhyBTeCc/dQOGFyEBEzvWEPILg0VBWjiC0mBimIp+oSZl9JJBJIzwajnLyE9QbGPVwLkk8QhPT09D59+qxcubJfv344h5TSSpUqVa1aNSMjQ6PRzJo1686dO6g05Obm9u3bNyEhgVL67Nmzzp07cxzXuXPn1NTUcePGcRxnZWUlkUisrKy2bt2qUqkAg0wmky1ZsoTn+ZiYmObNm0ODjh07ZmVlSSSSqVOnxsfHGwyGO3fudO7cOTo6GuDM4EK5XB4SEuLn5xceHo7LCkIXZkMmkz179qxv374wkpycnNjYWC8vr5UrVyoUivr169+7dw8mOSwsDLr18fFRq9Ucx82bN+/ChQv5+fnjx4/fvn37wIEDN2zY0Ldv32fPnqHCAYtLRGcJschjhtCxz+5AKiLcYU22UKj0nzLYaojPU5gN4l+U1gjtAhea6etv7cFLhCxi+DWJFowO4lYAbFt0M2LsUBCBIPAMVFbLw8tRKhMxV5OKqSVEjMmZISe8pI34oZBOpwNkK5lMVjgp94UEEwVWKSvXwY8qCAJkGBHGGoPPIBHBIMaEZGTBGCakYn2t2UphvSlhClWJyLI5MTbJiYBTwJsg8RgaF7YGWOLFk+1Zs5jjOBsbG1Zde6FTGu6u1+tBroCDfdSoUaNGjRo5ciRhcsE4jnv06FFmZmbt2rVhfswSl5RKJYA5T58+fcmSJZRST0/PLVu2bNiwQafTjRo16uzZs0ajcdiwYT/++OPw4cMppVevXj137hxAfHfp0uXZs2c6nW7cuHFr167VaDQ2NjYQLP/333/T09MJIRs3bnz27JmPj09YWJjBYBgyZAgRE7aJqFLgW6ZWq6dPnz5z5kyDwTBy5MiAgABKaVRUFOS9+/r6+vv7q1SquLi4SZMmXbx4UaPR6PX6NWvWwJpKpdLr1687OzsDalufPn1Gjx49YsQIzK4nhKBi90K16VMjsA1YJkYY1gQbEt5HFNVAnFj/hnqtmZwGNmh2CyhSoIUSG1kfzAdElm30msQaH+ymgfRLsx1GRHYMcPZEVPRowVpP3J14CQoPeO2x+gJLZd7+g78h4jgOTD0rKysXF5ekpKQXHs37PNJoNHK53GAwaLVazC1ipR38tbKywgmE8CG7NLBwvHi2DzQzS7WFRG7CeLBxDFTEuBDEVCxCCKpoAnMgAdhYUIhVjBYviCVblDlRKioqqnLlyqgKvIwvDnYOII3AmNetW6dQKH7++WfURebOnQvMrlatWlOmTCldurSNjQ3r3aVMsCAxMfHZs2cVK1YkhAwcOHDWrFnwvEajESDGeJ4PCAgAKNDKlSs7ODjgPINcNxgMNWrUAMteIpFcvHgxLS2tc+fOoDCBnsG63JGPs8YQx3HJycnZ2dk1a9aUSqXDhg37+eefCSGOjo6DBw+WSCTdunXLzs5OS0t7+vRp8+bN69atCznhYWFhmZmZlNKcnJwDBw6ApAffjK+vr5WVFaCVIbYMrvXznKufJmHKHnAn9NiBJg17HtYdRTXyQOiBNSew1J6IbJAWhCuHnSMUhJFBlvvBmSUWMfyfCJccuCrar8jBCcMfYT+xfmwiskVWZhfmxazLBT7DLkRH0MfBDjAbuXXr1jdu3MDE41cl4P5SqRSAkECAyeVyVkdGZybP8yqVioiJVCA+UVJqNBoiJlKxxi4RdXPsFp0fRFwjNKnh0ZCPsDIeTU+A7ipGDGPIGdUySmlMTEzdunXxpqwV8rx+YOfgrktJSfnhhx8ANxR0Ea1WO3/+fHicZ8+ebdmyZdeuXXq9Xq1W16lTB+TQnj17YAxSqTQlJUWtVtvY2GAiN9xFJpPB7EkkkkuXLkG9lr29/b1790DYHz582NbWlud5OKkJKrNzc3MPHDgwZswYBDyBY6zQn0Qpbd26tZWVlUKh+PPPP1nlIC0tTavVIruH5ShVqlSZMmXgMyzWvXv3rKys5HK5VCq1s7ODyjSpVNq5c+dBgwbVqFEDdAjYJMuXL589e3ZqairaZETUQopXmz5Bgj3DiwX6sFioSZv5nFmPDmvUYr4keg0FMe9BEI8sI6IqhsA1+GrgSN7B8/8Hsojh1yfcSeh5RncZ24AvmAPCemPQIEAtj91VZu2f9y//4cAKFk9o3LRp0+bQoUOv5/FDVzO8t3hsMGHkKHBkIr6uNjY2RHRXQCgL/nIcp1Qq8bWHdx70dI45+AijVhiVwLxiUvCcCV4M7iJDQac3EYEqi3k0LBbiRdq3b98333xjZiWTYtkQ3BHjGmvWrPHz83N3dydi/FuhUCCzs7Oza9euXVJSktFotLOzu3HjBqU0IyNj7969cXFxoHFWqlSpbNmyWq2W4zhwXKPSCZOclpY2a9asw4cPw7VVq1a1s7MjhHTq1Ck3N1cQhDlz5syZMwfOjLpx44a1tXWVKlXQ9MEUdJhVKyurixcvqtXqx48fh4WFJSQkEHHnlC9fHrQBjBoolUq1Wp2fn08pTU9PT05ONplM9erVU6vVsE+0Wm12djas44ULFw4dOnThwgWZTCaTycA9Xq1atalTpy5duhT2A7tAH5MvqkQIGBprDbN8iStIIGLBO8h6Dc0K4dC6RQGPl7PdkoJh6Q+OH0pf3MRCLyIorSFi8Sum+Wi12idPnsTHx8fHx6ekpGRmZqakpGRkZOTm5ubl5eXk5OTn52P6JSFEJpMpFAqlUimTycqVKwenCABVqlTJzc3N2dm5Vq1a6JNEzsueV/+BEpu4NGjQoAkTJjx9+tTJyelV+7ly5UrLli1BxZZIJEFBQT169Jg6dWqTJk0CAgKuXbu2efNmLy+v+Pj4X3/9denSpdbW1tu2bTt79uyGDRsUCkVERESbNm0EQRg7duyqVausrKwmTpzYpEmT9evXR0VFBQcHDxs2LCkpafXq1X5+fnZ2dnv27Dlz5szs2bNHjx595swZPJfi7NmzZcuWHTx48O3bt7t3775169bDhw+PHDkSwwo+Pj5r1qwBIxiwrJ9XBYSEgQmdTgeG48GDBwH4CST6y/jiePF4CQDT9vf3z8rKgsutrKygkBpSyTiO0+v158+fb9y4sVwuR9vdaDRCLRMMqVSpUk+ePLl//76Tk9P27dsvXLgA51MRMQJtY2Mjl8utra0JIYcPH7558yYiYoLmATJPLpfn5OSsX79+z549VCwAQw8B+DMopQARCnOl0+kEQcDa67Jly2ZlZT169MjJySk4ODgiIsLT0/Px48ehoaEjR468fv167dq13d3dk5KSLl++fP369SZNmqxbt65t27blypUzGAwGg2HKlCnTp0+vUqWKi4sLJrpPnz7d2dl54cKFZcuWFcQiYyoGHV51f36shKYFOyfoMjEYDA8fPkxISHj48OGjR4/S0tLS0tLy8vIyMzNzcnIA+12r1YKKCWxNJpNZW1uXLl26dOnSSqXS0dGxcuXKTk5O5cqVq1atWtWqVZ2cnGxtbXEzsJYM+dAk8YfNu98tofjEPMDk5OTLly9HR0ffvHkzKirq8ePHDg4O9evXd3JycnNzq1WrVocOHRwdHUuVKmVnZ1eqVCkbGxtwU3MiyINGo1Gr1Xq9HjZoenp6enr6kydPLly4EBwc/OTJk5iYmCpVqtStW7dOnTqNGzdu1KhRpUqVPnQZTERTD15CGxubsWPHrl+/fuHCha/ajyAIgEdNCNm5cye8n1Kp9MCBA0ePHs3Ozp48eXLr1q31ej0YwRkZGfv27atUqZLRaLx37563t/fZs2ebN28+efLktWvXfv/99zzP//PPP+fOnUtLS5syZUqTJk0EQQC8zMzMzMDAwGrVqjk6Oh4/fjwtLW3q1KkLFiyoVq1adnb20KFD//jjj5YtW86fP3/mzJnr1q0bMWLEtm3bEhMT582bRxixCqwKAUyKJFS5BBFv5Jdffhk/fryjoyPUUsMmRDu++CmCAx8PHDgwbNiwMmXKgAgHeWY0GhcuXDhnzhzY3vPnzx8zZoxGo8nKygIVUBCE4ODgKlWqwJI5Ozv/+uuvgwYNunXrVrdu3bZv385xnLW1NUagFQrF8OHDW7VqRSkNDAxs27btkydPypYte/z48RUrVoDCFBkZCWJv+vTp0sL0zAAAIABJREFUHh4eWq0Wqq6Bw1JK1Wo1EYN/bdq0AckdFBRUo0YNeCiO48qVK7du3bo+ffrcu3evU6dOmzdvzs3NrV279sWLFz09PTt37rxz5065XO7h4bFhw4ZWrVoRQsaPHz9lyhRBEBQKhVQqtbe3b9++fUBAwNy5c9EHbmdn16dPn0OHDn377bcck9POHnhsIfQJEUJMJtODBw+uXr0aExMTFRV148aN5ORkFxeXGjVquLq6VqxYsVGjRs7OzqVLl3ZwcLC3t1cqlQqFApYAnU8Gg0GtVufm5j579kylUqWmpoKOdf369UOHDt2+ffvZs2cuLi4NGzasWrXq559/3rBhQ1dXV9bL9SERtZBIbOodpRT8KpRSyKxBTwsSOOWuXLmyfPnyXr16VaxY0c3NbcCAAfPnz9+3b190dDS0h2YlSNHR0Xv27FmyZEm/fv3ASu7Ro8eKFSsuXbqEbdihwmezwaMPx+zLkh3qyxM7+YIgPHz4UC6XP3r0CIYNS/AyIzx//vzixYvhqqCgoK1bt2q1Wm9v7x07dlBKTSaTn59fSEhIVFSUr6+vSqVavHjxhg0bfvrpJ61We/bsWQCUFgTh4sWLnTt3Tk5O9vHx2b59O3Q+d+7coKCge/fuTZs2TafTLViwICAg4Mcff1SpVJTS9PT0gQMHQhrw+fPnu3btmpGRQSmNjo4ePnx4Zmam0WjcsWPHokWLzNaiSALnttn8ID148ADm5+Vmt0C32NvgwYPx0T50Yjc5Tu+dO3cGDBiQlZWFM1nkti+SMHBgMpm2bt06YMAA7NmMUXyUVOTTmXEVs3TlS5cu/fLLLz169KhQocJnn302YMCAhQsX/vPPP9HR0fj+FtP5CwkXEYah1+vv3bu3Z8+eZcuW9e3bt2rVqhUrVuzSpcuaNWsiIiKgpVarZS9hxw9uSPaD2b1e5iUtKfrgraiSIlR+ORHfjud5LBAiYhAC3Cbp6emHDx8+ffr04cOH3dzcOnfuPHz48D/++MPZ2Rnh4ClT0VSCmXtGo7FmzZo1a9ZEfMTU1NTIyMjIyMjx48cnJSV16dKlY8eO33zzjYODA14CT6HVavH4NrP0QrCESnaor0ToUwKXvqur6+LFiydOnHjgwAHW+wfTW4w/EJ4FrGpItQW7qkKFCkQMAOv1eoVCodPp7t+/n5OT07Vr1/j4eJPJlJKSwot1Qba2tg4ODjB11apVA6YM9UIQVoyKisrPz2/SpEl8fDwvQmJB+JBSyvP88ePHcQkaNGiQnp5etmxZIhZTFTMVYN2ysJG4LmiwTpkyZeXKlfBQr0Ss4+TWrVuQTvwR+FcxsQD+hVWA+A5glaOfAIQH+pwLE3BGXqyi4Xm+fv36v/zyC2UcEpgZ8KHP2/MIsxSByVBK4YxO9NnAg2dkZBw7duzw4cNHjx6tUqVK69atx44dGxAQ4OLiQpjDm0nBuMnruRDwKph2mUz22WefVatWjYje74yMjKtXrx47dmzXrl1xcXHdu3fv1q1bu3btnJyc0NdtEmH42DAiEV1T6NzGbM23s74f5x56DeLF+k7C5DCzWTaCIOTm5gYHB3fv3r1BgwbHjx/v0aPH7du3r169umTJkp49e7q4uHAchzEzzOAoWY8xVkwCp6aUOjs79+7d28/P78qVK7Gxse3btz9x4kSdOnW6du26devW3NxcCOyZTCbIviEikwJ7C943gHJ8t4n+wCjR1zd16lQrK6tly5YRQngRTxGEUDHvBsccN6TT6bRarY2NjSAIqamphJC8vLwnT54olUoIKQUFBX3zzTfW1tbgPoVQNMQgMzMznz17JpfLNRrNw4cPYQDJycmUUolEIpfLd+/e3adPH4VCAWVRoKpjJa4gCN7e3rm5ufAy37hxA1JwqVgu9bzxUzErGIQ9iHaMesDuWrlyJaV00qRJr8cjcJ/fv3+/Zs2a5EMLpBVJglgDRsRMdalUWrFixeDgYAcHBzw1BLZ6MTKYFDwwCt7iWrVq3b9/Hxvgrx/BvD2PBBETBoImHMdBHgO8HXl5eX/++We3bt2qV69+4MCB7t27R0dHX7p0afXq1V9//bWLiwsVYWpY/LWSYi+YBgiDIWKMwNnZuVu3bmvXrr1w4cKdO3fat2//77//1qpVq3fv3oGBgXByCaqzsFUwDAR7hmPgQbjXAoV9PbKI4f9PgCuEfJBV3M6fP+/j41O+fPnTp09PmDDh4cOHO3fu7N+/P5gjHMfJ5XKtVgv9UDGpD/7ligUpfD1i828xD4IQYm9vP2rUqKCgoJSUlIkTJ548edLZ2dnHxyc0NBTrRImYjogn8SHbeg24jJIi1uBDZWjVqlWBgYG7d+8m4vtDRMjJ5/VDRbBJiKFCQhPHcaGhoRqN5unTp3fv3oVzlo4ePapSqZo2bUoI0el0JpPJzc0tIiLi8uXL+fn5u3bt+vzzz+3t7a2srE6cOJGXl5eSkhIbG9u8eXODwXD48OGMjIyGDRvK5XKsj6KUqlQqAKmuXr16YmJidHQ0ISQkJKRr165Pnz4FnwQiVD9v/IQQzIeCZG+MIhNCtmzZEhwcvG3bNqyfeVVCkw7So9iS3A+XeKbOm4jiE+02dFC9jOLCMxAo0B58J/jSYZbWRzBvzyOzPFDYhBKJ5Ny5c6NGjapQocK5c+d8fHyys7N37do1dOhQJycnjkE4wLUA3zV2+1+ANbiCB3qCaUQKYqliIZmLi4unp2dwcHB2draXl9f58+cdHR29vLxCQ0PBFwIOEqjdZ/kzK4nfmllicUr/fxLEOhYiHkcqkUi2b9/++++/E0K8vLzWr18PmA88A5OECfeF/b3oBytBzwZYsWC9CQw8ExK6l7t3796jR4+NGzdu2bLF19dXKpV6e3uPGDECXNPwghHm+CCTeIzgOyGYIhgbSghXV9d9+/Z17dqVUjp06FBQsc1AxMwIHYmEkPz8fKg44jjO1dUVknUjIyNr1aoVFxfn6Og4efJk8FvCK121alV/f/+vvvpKIpGMHTv2xx9/BBvL3d3d3t5eEITw8PDq1asnJSXZ29v//PPP4F2AfCKwg8HyJoQ4Oztv2LCha9eusbGxDRo02LlzZ7ly5Xieh0TfYsbPMyc7gQMNpabBYDh06NDs2bP//fff0qVLv948UxHijRCiVCo1Gs3HdI4QxpWoeAoIfsY6VK4gbM7ziA3QqFQqULZYK/kjlsGEKcKE3SiVSrdu3RoYGGg0Gj09PX/99Vc7OzvAFMMzV7COjoisjxSSZIiy8Bqzh2IelrVwKiJWScFPGMHp06dP7969N23aFBgY6Ovry3Hc+PHjgZ9AhixmDMCF78Ap+EqR5E+BTCaTXq/X6/XBwcHVqlUbMGDAmTNn8FdM18J/C+dtsakEwN/fRLQfBonDKDIRDKM7giCcPn0aDtndunUrLZitABlG75ZwqJjNodfr4fOlS5fc3d3/+OMPbKzT6Z7Xj8lkgl/xATUazdixY0NDQ+FfmCi8HZuggSsFuj+lVKVSeXt7nzt3Dl9Udp71ej36QqGeuMiecbSARFF8fopZhqAgCHj5pk2bKleufPnyZcrknvwXqlKlCiSUlXgW4dsnnPzCqYj4De6o4peAXUe49u7dux4eHoXzvD76LC145E2bNtWoUWPAgAHHjx+nz0n5ZAlfH+BLhWfpNfYb3s4syQ7Wt/BdsD0mW+FOOHHiRN++fWvUqLFlyxaNRlM478ysh7dAFjH8fwQ7A1jegQMHGjZs2K9fv6tXr8KvuDzQjJW1VFwws2zAN0RmeX2QcISPAGNg9QAzlhEZGdm3b9/69ev/9ddfZr0VVineMrFTirIHniguLu7zzz/39fWlxcpgJHgueOT8/Pxx48adP3+eMrKNZSXQGNxTbCdQyAh4h5SZK5CmSCyjx/7NGI0Z43jhVmHXFD74+vo2a9bszp07lOGDr7flcLQjRowA4OV3u+5viASRqPgiwPdFZsayxIph+PvHH394eXmxSi18+CjnDQie8e+//27SpEmvXr2uXbtWOEv8efK4SEkmiFC+rzceM0HLLi57X3ah8QOrP2HjixcvDho0qFGjRrt376YMV8HtYRHD74aMRuODBw/69evXsmXL0NBQM0lAC5nC7E+F14x9V0tWa2YVvcK3eJ6ezkqv06dPf/XVV/369Xvw4EGRe/RdEQyy8JBAdI0ZM6Zr16737t0rRvywpU1mzXD5cIoEBs2KbVOYfcPLibygyJlHYhcI9TaznosnaAMm7/3797t06TJy5Eizgg36uksG/ZhMpsDAQIB6/jjIbNsU9q/A7ireO1V4bvV6/fDhw0FfMSucex9emTdECQkJffv2/eqrr06ePEmLkri4i+hzNiS+GmbvyGvzQzPjpxhi31+8Kf7KMu3Tp0+3a9eud+/ecLQXLYq7vgX65MQwqyKZabW//fZbqVKl1q5dS19CZYY1MxPVZjvMjMvD5jBzXdKCWwQ5BTtadHiaaZe0KHZQjGZgRqtXr7a2tgZnb+HXCTyu71zfh8fBh1q/fn2ZMmXWrFlj9uabGbiQdkELzSR+fmumP8sIzET+86QpywjWrl1rb2+/YcOGkhoPqhGCIOTm5nIcl5GRIYiHhWAbM4arVqvHjh2L5Rzh4eGU0gsXLixevJjVS7Zs2eLn55efnz969GhOPJ6kU6dOGRkZRqPxwoULEAibOHEiAEyGh4ez4b1t27bp9frp06fHxsaaTKbMzMzBgwfHxMQIgoDXjh07FjbD7NmzL1y4QClVq9Xjxo2LiIjIycn56aefwM0eExPTpUuX6OjoJ0+edO/enYj5O0FBQS8pA5ALp6enS6VSlUr1Qp7wQRM60gRBCAgIKF269K+//so2MGM+Rb5ZtJAYY7eHIHqq2QZsn7QoeW/2vhRuxjZg+zSLH7H3YtV9o9G4fv16Ozu7gICAIm0S9j1lvdYlSJ9cpjRm2UmYY2INBsOoUaMOHjx469atiRMnErGqzPT8vD5IjJLL5ZBdDGnGbNaAkTk9njIJflAahOkGgngOD1yFFS9ETP7CTgiT4wq9AZAvYUqq2DYvhFL64Ycf7ty5s3///hEjRvDicSXQD+RRY3IZoA2/E8KaMUIIpXTChAmXL18+d+5c+/btjx07RsRCYRgqrheiL8G/MJOUwbDFM9fe9PhhVCYxgUUQy9MF8bxhKqarQIUSJnCdPHmyc+fOYWFhV69eHTduXEmNhxNhPiG9f9q0ab/++ivOHm5UxLw0iiciOzg43L59W6/X37lz57fffgNkEo1Gwxa8KRQKqGwpXbp0dHQ0gMFVrVqVEJKQkODj4xMeHq7Vag0Gw6pVq+DFmTdvHmy5Xbt2wUuEh1bhqsXGxi5YsODu3bs6nY7n+WXLlplMJrgXpovr9XqANiSECIKwc+fO1NRUjuNOnz7duHFjmPDAwEDKwFM/j8AJgXn769atGzdunFwuL77M6cMlKh4XBkdxjx8/PiQkJCIi4rvvvjMyp1lge5N4HCHUhmACuSBmOQnMYTMmsUISyveNImYt7hm2TyKuO5tlzYnoC1jpB3sSmyGjY+tTYAWxfygfF8RjPwBRAJPIfHx8rl69um/fPm9vb7wp7EMqVhgik2H5TEnRJyeGiQiJQMSlio2Nbdu2rYODw9GjR+HYOFgJ8qKEdSoeogn/Qm0MFW1i2G2UUhDPEMmDYlYEbsTEQqyLNRgMWO0O5XFYQ4XxTmgMXI8wYP2s3EXDpXiqWLHi0aNH3dzcmjVrBoeis6m5RDyn7B0m0wqCACcQq1QqeCh3d/e9e/dOmjRp3rx5vXv3joiIwJOJYfAAZUyZbExMkcUTrkAJfQvjR+wUE1PrAu8zsiRoCYVMUqn0ypUrAwYMmD59+sSJE3fu3FmlSpWSTcpFBmplZeXt7b1q1So49Qh0F5hJk4hxgZgkkMQO6kv58uXheAbcyUTc/yaTKS8vD1LuYV2g3PnJkyfNmjVr0qSJlZXVsGHDLl26pNVqTWIqONxXq9XCsY+AQgzfG43Gmzdvurq6VqlSRSaTeXl5PXr0CE/IwDN2CCEajQayXiMiIrRa7ddff20ymSpWrKhQKIClwpkNMMnPmxxBEACkhRBCKU1NTV21ahUUGmCbt7Nz3hrBJHMc9/jx42bNmpUpU+bMmTM1a9bU6/XIiwhztiO0NxgMMLFYk41GCJaHwFTDsoKBwbI+4HWCeIASEct5WVhWrJjHFweXr7C8RyWMMqeAE1EVgPpM1K7MTJrq1asfO3bM2dm5RYsWCQkJlFK0xGByEO6DvIF68U9ODMMqghVCCImJiWnVqtXYsWNXrFiBgAnAN8Er+7x+BEFYvHgxJ8Lechy3f/9+EFeghaHBDSxpxYoVSqWS4zgbGxuAM4R+UF+DvH8oniHihqOUAmOCwnl2c7MH1OOxfSh7UIV83vhBXEFp04IFC77//vtOnTpdu3YNBD8RK2fg5SmJiX9N4sWDegAC2iieL9S/f//Q0NAePXqMGzdu4MCBZ86cQfc1VHMhcyHM6c6YxAHflGAh2fOIPfsPlCdYLPgJNULYkGfPnu3fv//QoUM7dOhw7dq1nj17vonaCVTgCCHVq1dfsGABiBnceIQ5q5GKh7Frtdpq1apxHFevXr1evXrBPpw/fz4IrS5duqSnp4OchpIz2HvwRhgMhsTERGtra9BTy5cvr1Qqc3JyoMaaigVFSqUSTlSsWrWqQqFwcHCIiooCrJWgoCCFQsHz/BdffPHw4cP8/HypVNqqVSue50uVKhUQEAD34nk+Nzd3//79gwYNgrlt06ZNu3bt4N0ZPnw4EV+W5xHaYbBJpk2bNmPGDFdXV/j1rWlvb5NAXG3durVq1apXrlxZtmyZVCqdMGGC2csC3AbemoiICOBmcrm8V69e6enpVMROgQ7B9oW9BOWRYGqjOYtVebx4bCsRfZBA+AqjNkDE15+KcWKeOfUZkEYQQY9jzgWn4snHsC1N4kk8RuYkCWgwf/78SZMmdezY8ebNm0REcELFnYiGmUUMlwwB04mKimrXrl1AQMCoUaNQBLKOi+LrO7Va7ZkzZyDcGxwcnJeXR8VzafBYdfg1JCSkTZs24OwyGo0zZ85kwSiwT6FgzTg65VB1gO/RvwobiOd5mUyGDqKX3yKI4sZx3JAhQ5YtW9arV687d+7A9yCk4dbFc643SujFBaaA2B2goIwePfratWvdunXz8/Nr167dpk2b4CqjiKIHI0cBAwoW/xbPbAdtTBDxN+BUXcJYGIQQrVa7ZcuWNm3a+Pr69ujRIy4uztvbm4inPpS4GoQ7E3b7pEmTjEYjeHqJaJRzIm4rbCdAKbl9+zalNCUlZcOGDYmJiXK5fMGCBXBY4ciRI9evX08YkxQmGQ0dd3d3vV4PvPvJkyc5OTlwrhHqIhCwh7OYIAvv2bNnNWvWBNyMGTNmUDGof+TIEScnJ5VKBdnvubm5Pj4+crlcp9Pp9fqYmBg7Ozs4KhEm+cSJE5DrHhISolariy+OB5cVTNHKlSt1Ot3s2bPhJ8rARJTsirxb4nn+xo0b06ZNGzhwILwXN2/ehDppxHSElvDv3bt3r127hs65w4cPOzg4oBsfnH9w0BwVA6tojYCzF94C2Njo0EZtFW6Hrww4kLEZEV9klOL4LsNWIaIJgY4c2GPAz+FaowjJRxiLBUz2ESNGLFu2rFOnTtevXwdjDJ4dOAm4tSxi+L8SLIzJZNJoNH369Fm6dGnfvn0RSAXxs1h3R5Gk1+tLlSoFaGqwNsBiCCGRkZGwA6DIwWg05ufn37t3D6KtCxcuhGZnz57lRDp79iwh5PLly/jNuHHjKKX379//8ccfwcu6d+/esWPHJiUldezY0crKytraGvbiv//++9NPPz158gS1UXxzilEjQJ1Ev41UKh06dOjChQt79eoFuI/ovSEFtdS3TPjiEfEdQNOfE6OSI0eODAsLmz9/fmRkZKlSpUaMGAGn28LI0c1FC9Y5vB1mCnfBlxm8qWArGAyG48ePf/vtt05OTuHh4fPmzYuMjBw5ciSmC6BqX4LjAQ8B8ErQSGQy2aZNm7Zs2fL333+zQS906PE8r9FobGxsgDWDE5JSqtFoZDIZ2LvQWK/X29nZ4Z6BzQ+Wt4ODQ2RkZFhYmNFo3Lx5c5s2baytrWEHovcPnJzwhvI8D+EbiUTStGnTyMjIu3fvchzn7+8/duxYwDfGLYohG4PBsHLlyv79+0PkmOO4+/fvq1SqJk2agDH0wvAKYpzt2LFj48aNYGfjJmTV3I/DMhYE4enTp/379588eTIg1RNCJBIJODkopQ8ePGjcuDE4PLKysjiOu3fvnqura5MmTXie7927d1paGieit3IcZ29v7+XlpdVq4+LiGjZsCC6Krl27wrWLFi2KiIgQBCEjI6NHjx7h4eH79u3jOA5QdIDvnTp1avny5ci7qAhKCBr5+PHjQZT6+fnNmTNn5cqV33zzDc/zfn5+VlZWN2/e9Pb2hp0ZGxvr6+ubl5c3ZswYW1tbWLvOnTtnZWWFh4fD7YC2bdsWHh4+fvx4tVotCEKzZs2aN2/u6emZlpYGSgARw8nkzUBrfXJiGGN1Q4cOHTNmjJeXF2HePWTZ5EURINCtypYty+pflNI7d+5MnDjx4sWLWq0WIJHz8/P37t2bmJhIKdVqtenp6cHBwXFxcStWrIiJiaGU7ty5c/fu3Wq12mg0zps3Dyzd8uXL//XXX3CyrNFozMnJCQoK4nne0dHx5MmTjx49giR7rVbbvXt3SimETmFsL2MTg2UGGwtOhyWEeHp6TpgwYezYsWjDIWrruyJI28F1kUgkMCTMgNNoNPDGduzYMTAwMDMzs23btgEBAba2tsOHD9++fTskE5lEsDM2JP8WwDt5EQ0RhISVlVVWVtbevXtHjBjh4uLi7+/fpk2b1NTUrVu3durUCbR+VPBBPhUPfvmqhKmFhBCIznIcV6pUqb17906ZMuXvv/9GBQUDgRzHSaXSx48fg1O6cuXK1atXB0h98OvwPP/nn39OnToVQvhEBPSGxVKpVDzPe3h4rF27tmPHjgqFwsrKavr06fDIlSpVIoTAYRuAzo2aBwhao9EInvM6depwHAc8GrC+QU6ULl06Pz9fJpPJ5XKDwfDDDz/Url1bIpFA2ffKlSt79uxpZWUll8vR8V58ah6ldM+ePVOnTj148KCLiwtuMLM25GMxi8eOHevt7d2+fftatWpREVkP0uNzcnJ++OGHqVOnUkrbtWs3Y8YMlUoVHR29YcOGs2fP6nS6/v37z5kzx2AwLFu2DKCkHz16lJKScu3aNalU2rlz57y8PL1eP3ToUMAiJGKc4siRI8ePH5dKpf3799fpdIGBgcD6Nm7cCAIP4nqs6QmKaalSpWJiYnQ63Zw5c2Qy2d69e5ctW5abm3v+/PmIiAhXV9fs7OyHDx8SQq5cuVKrVi2pVFqmTJlbt26B48TDw8NkMllZWc2bNw8cilu3brW2tq5Xr97Tp0+Tk5PB5T5w4MDBgwdDWj5az7htSjy185MDswSvpr+/v0KhAE8XEQPGrB8D0wSep/uAQKViLgBy9pycnNatW9esWVMulw8fPnzJkiUDBgxwcnIaNmwYIUQmkw0YMADwqA8dOgSdu7i4YKIWnjsLwPQQPJNKpf7+/r169Xrw4AHcnWeOf8nLywOZyjNQt+hpKcYgxjwFRHzkOG7q1Knh4eFr166Fd++tWY3FEHoR8TgUEAywOkqlEk1/Sqm1tbWXl9eoUaOePXt26NChI0eOTJs2rUqVKm3atGnZsmWrVq2cnZ0FEajv7YB3CoKQnp4eFhZ2+fLl48ePP3jwoHv37h07dlyzZg2cuUTEleLEcDWkNVHxUJoSXAXMh5dIJKAcgBlau3btY8eOde/ePTs7G2uTsLFcLg8MDAwMDGQPRf7yyy9BqaUiQuSQIUNgnEuXLgXmVapUqcDAQGCmX375JSS8gCowYsQIT09PeFi5XN6vXz/oasWKFYQQkK+bN2+Gxk2bNqUFT7xZtGgROs+3bt0KP23cuBGfdPXq1ZTSP/74A9+FQYMGwe2KSdECvjx37tzjx4/Xrl0bvFxsmi7Gid75e1EitGrVKplMNn369B07dsDMGI1GGxsbsFAfPXpkZ2cHin7fvn1/+OGHlJQUjUbj5eVVunRpk8nUs2fPY8eOxcXFzZo1C9bCxsbGzc0NA2rA0+RyuZubG6as3r9/Pyoqatq0aRAwBo0fj2+SyWRqtRrXCCcfor+YPAi36N69e/369QkhQ4YMOXny5OzZsxs1apSRkeHq6nr79u1Ro0ZBWgCoX5ClLxHRpFGz12q1pUuXbtCgQUZGRsWKFW/fvu3t7e3m5jZw4MA1a9b8+OOPcF90+ZQ43/jkrGFCSFJS0sKFC1esWAE6FwotcFMQxu2A4SUg1lOtUqmys7MdHR1hl4Bbm+O4pKQkzAyqWLGitbW1QqGws7NzdHQkhPA87+TkBB6zJUuWwK07dOhARLBocK1IpdKHDx9+/vnn0HlUVFReXl6LFi1MYnEn6P5QsCSRSHJycmrUqAE6xMWLF4mY6198ChLgm8Nn1pKG1FCo9yjx1Pz/Qma7HwePOhAnJmQJgmBvbz98+PCQkJDHjx///vvvFStW3LJlS6NGjapWrdqvX7/FixcfOnQIalKhE1jZ5OTkYkzk4v2QmJckCEJCQsLevXv9/PwGDx7s5ubWuHHjoKAge3v7gICAzMzM4OBgT09PlMGk0Dl9GLXCHNRXn62iiS+I9Iu3kEqltWrVCg0N3bRpk6+vL2HSU5FREvFMG5NYOmmWx4Djxz7NbkeYZAh8KPjGLPkFPrBlCIXngW1j9hPWuaGejT2jE6iwTUMpnTNnzoYNG86cOdOoUSMqgirj6uAG4wsBGr//hFsXHzwxMXH+/Pmg98THx3t4eBAxlxA+QBQfIgXOzs5lypQBncxpGRM4AAAgAElEQVTNzY0QAsnSFStWBE9148aNZTKZUqkMCAiAJPlTp05B1l5gYODXX39NxJSOnTt39uzZs1SpUmxGKvQMY1u0aBGkaPn4+GC+Doh5jKPB6oB1SwiBGAchpHXr1qdPn3748KEgCK6urmBcQZQH80LYfYs5th07djx9+vTjx48FQahQoYJEIvH391+8eHF8fDw7LW9Cd/8UxfCaNWvGjx/v7u4uEY+7eZk3CqUaMKDMzMyyZcsCwr5Go7G2toaQWOXKlSFDgeO4R48e5efnSyQSW1vbtLQ06AQOIQ8PD79w4QLY0+De4ThOoVCADWowGL788svly5dzHKfX6/fv3w9n6nFiOa/RaASnHyFEKpVCVgucg71mzZqsrCyWdb4qubm5+fr6LlmyhDDnKr5GP++EaMGMTfCr161b9/vvvz906NCjR4+OHj06YsQISmlgYGCfPn2USmXlypU7derk4+Mzd+7c1q1b//7776dPn46Ojk5ISHj69KlKpcLHh32iVqvT09OTkpLu3Llz/vz5vXv3BgQEzJ0797vvvuvatetnn31WqlSpDh067Nmzx2g09u/f/+TJk48fP/7nn3+mT5/etGnTEg/3lgiBbvfZZ59dvnw5Ozu7Q4cOSUlJWARCxbNa4WUBFsmKTPQevctnKIqgIgBGC2mMZvmxSDExMT179kxOTr58+TK43EE2fBzlwijGQKuAQrK1a9f+8MMPVapUyc/P12q19vb2aMVCEka5cuUcHR0VCoXRaMzIyEhLS+N5vnz58nFxcYQQhUKRn5//6NEjo9G4atWqH374QafTGY3GcePGgTunc+fO+fn5JpNp3rx5s2bNAnEeGRmp0+nq168P1gvuIuCroN8sWLAABlC+fPmQkBAwqaENJMyDcKWUxsfHw96Ljo6G16pWrVqpqalHjx5t1KgRJNDAXTimkAQrZTimiLxKlSrJycmHDx+uV68epEF89tln3t7eAQEBWEQD5k2Jr84n55TOz89fu3atRqNhPX6F30kkNlRGRGHM8/yVK1c8PDzgFVUqlSqVCpIDy5QpExkZee3atTp16uzdu7d58+aurq6NGzf++++/fX19jUZjYGCgp6cn+FUgpgvABRKJRKfTwSlAhJF/YWFh9evXr1evXnJyMg4DBwwvDBpP+BaxbrRXInBMTZ48uUKFCsuXLwdNpQStsTdNIBKomIcMPBfCUaAFV69evXr16r169SIiVkBSUlJ8fPyDBw/S09Nzc3MPHDhw6NChtLQ0rVabn58PHIpN0lEoFNbW1tbW1ra2tg4ODmAluLq61qtXr3fv3tWqVStfvjzkJeHWQk8aIQTi/e+bLQXMBWIiGzZsCAwMbNq0KVSysbEACPpCrISIKY28WAP9JrJX/iNhfgMsHFg/+ET4FKtWrVqyZMnChQshNRKuxXe/+ODOB0HAXuBFgMfPy8v77bffUlNTKaWpqakGg6Fy5cqYCQVvjZOTU3Jy8r///guOpTp16ri6un755Zfz58//5ptvSpcufeLECXd395o1a2KU59y5cwEBARCDg2QISD1BnWby5MmnTp2ys7MDj3ThidVqteggQdQUYLxyuTw/Px+KncABeeHCBYCBu3Llyvz58ymljo6Ozs7OO3bs2Lx5M2Fqz8BJBq5KdGbA9zAGJyenypUrb9myZefOnUSEcJg5c6aTk5Ofnx/ooJi3WMJbnX5itHnz5qFDh4LWBt+8JNQ723L79u2EEDB5CePoA3Q9AN7jOA5yneCS+fPnw8pBTEuj0QA0Uv369f/5559+/fqlp6eDPxlWukGDBrdu3YqPj2/fvn18fDylNDY2dsaMGXl5eZBn+O233969e5dSCkCDsJocxwHQoOk/IK7BZu3bty+gDn1YJDBHHuGXRhFLTyiIeycwkHXwb+3atWNjY9mWZmQ2sUJBpL3C35u1eV637yFFR0cPGjSodevWcMJYYRxvoRBO4X/ZdW+IcMLB/qMFhyoIwvnz57/44ouBAwcCCmbhCz+sVXseGUU0XFyjrVu39unTh1J67949CK/yIgwLMJMFCxZQSmNjY2vXri2VSrt06ZKSkgLXnjx5Ejheu3bt8vPzjUZjREQE9LB48eKFCxfu2LEjOjq6cePGRAw3AF+aNWsWMED4fOHCBZPJpNPpdu/eDbcTBCE8PBzFk7e3d1ZWFrSHM+V+/PHHmJgYeIp58+ZNmzatUaNGhJAtW7Zg7Dk0NHTUqFEGg0GtVms0Gl9f39jYWEppZmbmhAkTcnNzz507BxlhlNJt27Zt27YNPp89e3bcuHFmB0P17dt38+bNOIFv4gifT04MDxs2DE76Y9/GF84svrSwQsHBwUFBQVDzAw00Gs2YMWPOnz9vBlZsFMkM6pn9hm0sFDycB4Ii0NLsbDvsx1gQmhX/hUzRl5mTIp80KCho2LBhr3r5Oyd8ZEPBwx9xUcwktKkgDm2NGjXgFCMgkMcm5qAqvIuRgZ8tcv/A9+yF7NL8h0d8UwSPiY8GH/bt29esWbMBAwZERETQgii+rBh+DwUwELtqMEiA+qKURkZGDh48uGHDhvv378fG8DigcLPndH0ExJoTBoNh0KBBu3btMplMiYmJ3333HZ7CCZs5ODjYz88PFxevNWMpAgOzjEDuOG9CQXBy/LWwmmsSi4yL1OdQLprdfdGiRcHBwWxXcOslS5bs3LnTrAcqvvvsITfsm6vT6RYtWhQSEoLA/nDT7du3wwkoCLtd/Dy/Bn3YnpbXoMuXLzdp0oQwMMUCc753YaKMh4qKx0SDqxY+ELEWE/5lcTaoWPGGOX6EKQMH8D9YafyS9anCZgUfOLh3CJMlhEkHEPwgDPqHIAIYvYbnBFw3HMc1b9784sWL7Jg/CMJHhpWiTGmTIJYD8SKOHfzLiaXkhBCVSgVxASqGjtCFhU4tSikuPRHTtmmhVD5ORFjDMWD58jsEB30eUTFVXiKiosIz9u3bNyIiokOHDp6enr179z516hRhapmI+FA4pe/0IYogCP4ZGexunufPnz/fr1+/4cOHt2vXLiIionfv3vhE8DhYKgav9jvEVC9Bwvg9YJReu3atWrVqUJ+tVCoRzR4zTkxi1SLHYMtjJj8R9wwmzWDuGwLUsJEXQUS5ZxMLcMNg/Ij1L6LohXcZexPEM4Zx06rVaviJUurj45OYmNirVy+QuOyt4d1ng/3oZM7Ly/P19X348GHPnj055twBSmmTJk0AVAvnpMSXhqPvX7bIGyVbW9vMzEwIF2HxaDHJb4KIpcDmpCD6AQotIgY/jEYjAvjhdoT9jd4eDNIQcbOyWxYupEXFpYwilCOOjR0VXmISa2TpfyirePbsmbu7e3Z29ocVGAOllQ2+CkyJDmHitfArfg/NKlSocO3aNQcHBxZNF4idSeTanFi+wha0YBuTCGjK3sj0EnDl74QwyithQGxw6kwm0759+1avXm00GkePHu3l5YUga8iw3reANxBu4Nzc3B07doSEhBiNxkmTJg0ePBifkRSK2cOygo77EWRpURGKkoggB2XLls3KysKCNPa9MInF67x44gspyKlgxZEd4WkcEhH4CJkPJ4JKmlks7FtARexJXjxEAeEK0FhCe8lMtGPP0AkslhnLokxmlpk4Z1krWFCYlAMKChSklClTBiHQiy94ez365MQwz5yrgy9Y8TOLchExlrEx7l2zBTZbTuxKYCpcoTe2MXJq/Ibt1kx4E9Fyxf5Bn2BfG/JaCANsSg5lCqNftZ93RfhWC2Jtg9lP+K+ZHkMIqVy5cnh4OGIIlwihVlSCfb4hKsy/iAhACEkxMpksNDR0+/btu3bt6tOnz7Bhwzp16gST/H6KK3iigwcP7tu37++//x44cODIkSPbtGmD5juufuE3xfQS+AEfEOHiCmLtGZgTRJS7LD8xk774DavrS5iScZZHsW8Z+9mMK5oKnuJgxs3wdiaxYJcw5SqEOfuIVQsA/gElMfuZHQm7oIX1DEjzZgcDnQslXcSP9AGwhpIlGxub/Px8+MzOMjagDBo4po8SEWSAMEclEuaQL9YtSQvmXSOssZnNhEVy2AnHIEgTEXIdBSGb20lE5shKXFARWDuPYwp/0bH8woR7SPnWarW2traQ5fhBiBAkVPkLq1Zm7w9fqPpTq9WWuCwpMh30/SSzcaKOwr4gX3311aZNmzIyMtq3b79u3bpy5cqNHDkyKCgoOzsb21AxvGfWP4ZUiqdinNtCwTpvoSB8P3vTtLS04ODgkSNHWltbb9q0qUOHDo8fP968efNXX32Fi47hhiIZKz71RyODkc/wPK9UKtGXC7o+FYv9gI1AEBftUVKwGhDJKB7bSkSELMrAUKMZSgqVjGPWBVoaPHOGIOtiJOK6s1KfZX1ghQO3xJJxIgI/oL2OxC4o7nl0bUI/yKtzc3Otra05BrblhSz0VenD4A4lSOXLl09KSiKEQLo8hvEEET0cFwN9cRzHoX5ERFtWIpGAmwLRjnBvwRLCJoZQBBUPv4RiX5NYjoldsX4VTqxS50VoLSLyC1YDNYl1SjBaSB8wOwGCECKRSPLz8+fNm6fRaKKiog4ePFg8T0FnUWxsbKVKlaB+rsS33XtLH5bd/3YIoa0hVgoBQo7jRo0a1bFjx2HDhrVv3/7EiRM1atRo0qTJ1KlT9+zZ8+TJE+CtZsL4eQKPMCUbpCBev1kb1ooVROgx+Fer1ebl5R04cGDatGnNmzevV6/e4cOHO3bsmJaWdvDgwWHDhgHwE/lYQChfiVBcURF6zNnZ+cGDB1Q88ogQIggCLDFEeQGvVxChM2CqgcOg9ckxCDMwt1Q8b4ZNtkKRiUFl2E4SBh8JzypFkU9FTFMMl5hBtYC6AAFgFM9o51CxChnDDcXnuKANY6ZDJCcnu7m5QRkVJx7XXbKr88nVDbdq1erKlSu1a9cG4xJXFJ3V7AlcRDxOgA3Oo3oFWIBwOeqM2CH6fMxcdujyBYczuKYBYYB1fUMnyJvYGBUrj/G50GcImV+AzA7b19bWtkOHDmXLlm3QoMGWLVtIId8sS5iUcevWrYYNG+KXJbYA7zd9HO7HkiU8HgM3GGz+K1euzJkz5/r165UrV4YTKa5fvx4WFrZjx44pU6Yolcp69eo1bNiwYcOGHh4eNWvWxA7Nouxo95CCyV+sY5OIIhzeGoxcxsTE3LhxIyEh4caNGzdv3kxNTW3btm3btm3XrFnTokULIrpJVSqVjY3Nm2CgHwpJCh57JZVKv/jiixs3btSrV88kHlwmYYDM0IplAXygB9ZXB1sCD+HA25kYqEjKxJjZ+CsiWRLG24d6MCw3+z6yrmPWvEYTnLWPCeNcBD85YczxYqYIzRs4YJHn+YsXL9atWxe4PcfkgpTU0pBPMDYcEBBw6tSp3bt3m8Rj2NlQBzbDLcvmUcOew5Zs4KFwDBjyD0nBmFnhgAq7qJRJJQCFFL/HYbDjZNubTCYAVTBrBmwLc4VowVhOYQLMVZ7nhwwZ0qlTp2HDhrHdfvRUqlSpx48fw5n2FiJMNgP8i0zcZDK1atVqxIgREyZMwMZQsgJcLz4+/tatW7du3bp+/XpcXFxSUlL58uWrVKni5uZWvnx5Z2fn8uXLlylTxsHBQalU2tnZ2dnZAUAS9qZWq/Py8tRqNQDHPnnyJCsrKzU1NS0tLTY29uHDh0lJSW5ubo0aNfLw8GjQoEHjxo2rVq1KxM1vlnyH3X5AofoSJLNXXq/Xb9u27fTp01u2bIHzodl4mcDgXfBi0jLKMK1WC0AohaeRzfIz896hVCNF5eLg8CgT6yWMc67I1aRixRQG7GBIyHIx6vzCxAUYEvbAjnDo0KFdu3YdMWIE1FO8ESB6+omRRqORy+VPnz5lS9Og2szElGZHR0dPmzZNo9GcP3++U6dOgDrp5+cHSl9QUBCl9O7duw0bNoTaO0opHFYYHBysUqnGjx8/YcIElUpFKU1LS+vWrduYMWMAusvPz48QwnEcVB7DmTAxMTF6vT4jI2PIkCGXLl3q2rUra1WfPXs2MzOza9euhBCZTDZ79mxBEKKjo4cNG+bv7w9gjQkJCQaDYfHixaGhoYIgPH36tGvXrufOnYP+79+/Dw/VrVu3qKgo04uqPCGZPDMzk35EdZPPI/YBFQoFLJOFkLAUnt02P//8MxRTQgBFEAQWBkcQy0kFkdRqdUJCwokTJ/78808/P7+JEyf269evffv29erVq1atmrOzM+AOsqzJ2tra2dnZ3d29bt26bdq0GTBggLe397x58zZu3AhooyYGWANLtCFU9LxHeCFWz0dMMFdYTw++3NzcXKyjNTFF4UDsdKnV6rCwMB8fH3hB7ty54+vre/369WnTpuXk5AiCEBER4eXllZeXp9Vqx40bB/Jv7NixcBA7pXThwoWwshEREYBUheTj43PmzBnAsKSUBgcHL1269NmzZzNnzgTkjXv37nXq1CkqKio6OhpQjEJDQ7t06ZKXl6dSqXx8fKCf8PBwo9EYFxcHgCQcx3Xv3h24N1suXJjYamDcLTqdLiMjQyKRZGRkYAPTG4Bz+eSc0lKpdNy4cevXr4cll0gk4CVm1R+jCCCel5e3f//+P//808HBITg4ODQ0NCUlJTMzc9CgQVWrVrWzs/Pw8Lh48eI333xjY2MTHh6Oqp+trW1SUlJqaqqrq2tiYuKRI0d8fHz0ev1ff/2VlJSkVquTkpKGDBlSrVo1cHfIZDLwKsO1R44cSU9PnzJlypw5cypXriyXy8ePHz98+PAjR47Exsb6+Pg8fPhQIpFcv369bt26OTk5Bw4cWLp06fr160HlFAQhNDT05MmTP//8c35+vrW1NWydkJCQR48eQcjnefMD+qO/v//48ePLli2LtYMfsfVAGU0ckgDe9YjeL6IFC1eMRuOZM2c2b94MOCfAbc2q/grHgJVKpbu7u7u7O/aJLYETkYI2N5sRg12ZGW2YN4vJtFSsyYZrMR3X7GwcjUYDnqpPisC6xRiZRCL57rvvli1btmjRIsL4zyhTPsTG0ZRKZc2aNdPT01NSUqpUqXLr1q169erBOTQAd69Sqezs7KytrRcsWPDZZ58ZDIanT5+OHj361q1bzZs3B2hoQRBiY2P9/Pz8/f0FQdi9e3diYiIcJQIQhLigOp1OoVDA8a+EkJCQkAcPHtjY2MBPgiAcPnz4119/lcvlK1askEql+fn5N2/enDRp0o4dO3ie//rrryMjI3me37lz58aNG2fNmlW8FSsR4RbQ6w45uWvXrp00aVK5cuWgmZlDtKToo+WtzyOO43766Sd/f//79+9j9IIwKAQgyZRKpU6nu337tpOTExyO9ODBgzFjxjg6OtasWXPQoEEnTpxQKpVVq1YtXbp0ampqampqSkrKyJEjCSEQyW/dunVkZKSVldWRI0eWLl1KCKGUXrx48auvvoIL+/Tpc+/ePdjxkJAMsWE2jZDjOPDUbdy4cciQIYQQR0fHChUqaDQao9FYvnz5vn37KhSKdu3a5eTkJCYmQg8JCQmRkZGTJk2ysrKCY1wFQbh8+bLJZOrevbtRhDUvkiQSyaNHj9atWwcKJlYHvvmVeS/o03G/vzwB3wFuCFbCxIkTV6/+f+x9eVxP+ff/677f1btdG5IIUdZSIWpsI2Om+WDs+z5hhA/y1SBbahjLzCCGGSMqys6MMXZKqJQlS0IitGrf3ut9/f44n3t+r97vxJhGReePHvd9u8vrvpZzXuec5znnR3Nzc6jxhXsXcI6wOGcUsWo/WXwyJ9SBxsvY8wi6IUwdKhD8yDoxngR+IiyIZ5LGE6E2jlKp/AhlMGGAlnK5HLxpixcv3rJlCxSFY12wsL/BocSoYhMTE0dHx5cvX0ql0ri4uG7duomYut1QBLq0tHTFihVLliwRiUQmJiZWVlZlZWVisTg6OvrTTz/leb5t27YhISGWlpYwo7DYORECmgkhYrEYXBugn1y+fLm8vHzMmDFSqRQQgjExMQYGBnZ2diKRKC0tbcSIEWKx2M3NrUuXLjdv3hSJRDAzYffQtGlT8hY4U5iEiFbT0tJ6+vTpunXrFi5cSAgBFRmUpWpnER8Le0USi8XNmjVbsmTJ4sWLibArZDkFzLmSkpIrV66Eh4fPmTNHT09PLpdDoU1CCKW0efPmhBAoR9+kSZP4+PiSkhIbG5tWrVrhTLKxsUlMTMzNzRWLxXZ2dmDNkMlkEyZMgPnh7++fmpoqEomKi4s7duwoEokaNmyYmJgI7AOgfchZQNUWiUTm5uZ37twB9mRpaWlubg4zBhwbAO8KDQ0dPHiwhYUFtAT0hkOHDg0ePJjXCIFXI57n58+fv2LFCsTUYHKcj4Gq2KB8nEQFhC2sC7FYPHfuXA8PjzFjxigUCpBnCLAAxI2IqSnCVUyWhKJXs5+pYA5l38s+hL2SUspCLCml4HfELbVIyMrEPkElZOf/eOYzEi+U+eOFEiNaWlqWlpZLly79v//7P7Ql4HATIYoJeQiI6k8//fTSpUtpaWlaWlpWVlYNGzZMTU3NyMggQl1LkUj09OnTTp06gWFv165dxsbG2dnZT548gWfC/glELCQHRPzX8uXLQbEeP348iufS0tI//vhj9OjRJSUlgDw4f/784cOHfXx8CCG5ubkvXrwQi8W6uroKhaJZs2Yw9JcuXdLT0+M4Ljg42NPTE6Zu1aubMjAumMMLFiwICAho2rQpFXDdvFCSp3pH56MTw0BLliyRy+Vr1qxBGwicRzuYRCLp27fvrFmzVq5cCblUGjduDDOG47iUlBROyAXj5uYWExNz6dIld3d3cFAB6N/Gxobn+aioKENDQ0tLS5GQrebSpUtUSNgLtbL19PSg8G1mZmbHjh15JsIPNvW5ubmrVq2Kjo7meT4nJ6dDhw6gfwBoRSQSZWVlQZkRfX3969evl5aWurq6UiGSUk9PLyoqqkGDBu3bt2fRp5VyvbVr11JK582bhwkyaXXDAmsVUSZAELAnNd2i2kWckAUJjsPDwyMjI7ds2UKEnIWkYuSl2gERlFrNx2qeETFh3FXsFDUt3pVejD4m/C8bn/q6h3+oxIaEoLGB4zhfX9/CwsIffvgBQ7nYqB527KA/27Rp8/Lly5MnTzo6Ourr65uZmc2dO9fe3p7jOHd3d6VSKZfL165du3DhQkppcXHxlClTlEplgwYNmjRpguKfVATGg+oiFov9/f3BVhcWFgbZC8RicUxMjLGxcZs2bTBtQ79+/WbMmOHv719eXt6gQQMofgxYhLS0NGDgHh4eRUVFlFI/Pz8/Pz+ocYmAVsJUByeM6ZEwoedr165VKpULFy5k5xvaY6p5dKr3cXWCwHQWHBwcHBx8+PBh2CAjPhCGB4aqTZs2nTp1OnToECGkbdu2oaGhhYWFt27d+uuvvz799FPAQjdt2lRPT+/8+fOmpqaA+5dKpTo6OhKJxNnZ+eDBg2B+oZTq6+u7u7sfOHBAJpOVlJQMGDDg0KFDEPvBcRyEFGN0so6ODlo/wF0B50+dOvXw4UOxWFxeXp6fnx8TE8Pz/O3bt21tbe3t7QsKCubMmTNq1CjYvXIcp62tnZ6e/ssvv4wYMUJXVxezwnJCtkvsE0II9ElQUBC2BBYtxiJ/qIRK20fIoN9IwCVVKtXz588XLVq0cePGerv9h0Th4eHbtm07ePAgpDqAhU8F8B071kqlslGjRpaWlqGhoS4uLiCwu3fvDtdfvnwZENSQoZoQkpCQEBoaCipv+/btjx8/rlAokpOTP//8c6hjpqOjA8gpcHwgSkMlFGwtKiratm3biBEjtLS0ysrKwFeora3dvn174MxQjTE0NFQul9+6devmzZvt2rUDPgymGjAWIhPjhSwfIFyBXaMdBZRmnudDQ0PDwsJ27NjxfobgY2Q60OmmpqaHDx+eM2dOREQE6/eCLTMYWLS0tL788stjx449fvx4+PDh7u7uDRs2dHV1nT59uru7u0QikUqlEolEIpGYmZlZWlrCjfr6+mVlZSKRyNraGtDUWPF07NixlpaWurq6JiYmvXr1Gjx4MEBzMcwDpj4RMrBDg42NjceOHdu3b1+O48rKyhwcHIqLizmOs7OzA2P1zp07V6xYoaWlZWhouHz5cmdnZ3BvI8R/8eLF9vb2CNcihBQXFxMhWhqWwd69e5cvX37ixAlLS0u2u/6NHKq1k+odw5qEm0KxWDx//vypU6d+9tlnNd2oeqo2kslk5ubmR48e9fHxOXbsGIBjREKmDhGT+pcKCao8PDycnZ1tbGzA7IdMBvxuOjo6I0aMGDt2LMdx0dHRixYtysjIUCqV8+bNKygo0NPT69Chg5+fH7h1KaUGBgYgzvFRiLyDFEkrV65s1aoVSHcoTQZGR09PT9BJvv32W5FIpK+v7+bmtmnTJgcHB5FIdPr0acid0KtXrylTpqDbDpUQNPCAcoJVoQghhw8fXrx4cWhoaJMmTd7TMNCPjNRCLxISElq2bLlr1y41DDqMCujNcAYuwBJ1vFDDC8MA4LxmzTv2CZrxEiqm0iI+XKFQVF1USyqVPnr0aMyYMRBTxLYQ/4Lrmv0vEpwBwCH8a9u2bTY2NgkJCXjy36jnVcspNzfXzMyspltRu0gpFP7bvHlzr169sAZcTbernqqNQKolJCQ0bdo0ODhYJdS7BFyeJh8ICAiAiE3kXchn8GJkLPgvlUqFHIm9DBgdFiLEstDIDCsNNGKZG7JcfB0+jTJVxpWvqdXIkkql+vXXX21sbK5fv/4+J/lHJ4Z5JsUa/Hz8+LGjo6Ofnx9lygPTipVr1W5UCWW2QNqxNhzKTCB2zrHiGecZr1Gqlp1A7PTCaEhs+b1790aOHJmVlYX34rRTadSmZgUwz/NQchXftWTJkm7duqWmpr5u5r0xzvgDIPDNN27cuKYbUutIoVDcuXPHyMgIwPY13Zx6qn6CYX3y5ImLi4uvr2kTDBgAACAASURBVC+eZKWpSqUqKyvz8vKaMmUKSG5W+iJInjJpGOC/arqH2n+R52hKR2CkyPdgc8ByY5awDfhYkN9qwdBwUFZWpsZ7gRsvW7bM2dn54cOHr2vSv0QfXRYtwtQuZFO7jR07tri4eNu2bZaWlpirmQhABjYJC+tBRDOmWtwk5qKCnxCniHEUeL5qZySbC4bN2wUjh0GcIiHpNK0Y9soLydAJk41Sze6akpLi7e3duHHj4OBgKvhFACBGKcVkdbS21rCrFqJClGp6erqrq+uLFy9qukW1i5RK5cCBA/v06ePr60uYzEQ13a56qgZCFgSZw0Ui0eTJk7Ozs7du3dq8eXM2lx+vkSiQCqnyNZ1WVEg5iaZg/InsC28E1x5eABmWRBpZ9JUalegAPMsxZZFIRaAly+7Quo5BVmz6zLS0NC8vr4YNG4aFheGN743vfXS+YbXJhEO7b9++AQMG2NnZ7dy5E2wjrBcBvCCUSYP+v12MUFoEcH34WAzbgA0agAXgXTjpiSA7CSGgUqPgpJTyQlwBznVETyB8ETYQIiHpJgCyoAFUKELCZm1VCQnZoQFbtmxxdnYeOnTonj17sFtEQi66j0QGEwYlXu8b1iS5XL5hwwYtLS1fX19QiaoOeKunukW4m4cISUrpnj17Bg0a5Ojo+MsvvwBbAP0V2SbUZQLeolAoQNCisY0IhTeo4EvGSCEQ6si+cK0BRhUugKhuZFmY5prNbo03SiQSCFkG1gfmccjNyaofoGuJBCKEYN5+2Hxs2rTJ3t7+q6++AhmMCsn7m+fVrl/XfkLjCWsuhjOPHj0aPnx4nz59Ll68CIYXWtE4rPYE9i9rygaGhRez/9V0HrMGFsxCwN4Lt7A+Ek1nDK3MCsT+l23exYsX+/TpM2LEiEePHmkaXtS8NfRDN0qj2So1NbVFixY13ZzaRVevXjU2NlZzWNT7hj8YqhTUolKpUlJShgwZ0rt379OnT8NJdMNRBuaiNhPYjI9qrINNiYoPqdTIzDJA1hWo5k/EBoPWpMYz1bzUaq/GJ1y6dKlPnz7Dhg178uSJmufub3flP6CPUQy/jhB+Eh4e3qNHj6FDh8bFxcG/UCaxg8QKJ9ZbDGfUpgUeq16fkpSdf5Weed0UYScQuqhZUY3/unXr1siRIx0cHI4cOcKiwDQd2B8JsV2alJRkb29f0y2qMVKbXTAlnJ2dd+7cSTU2izXRwHp6fwTDffToUScnp1GjRsXGxlINCQesjHUJswoJrSgpX7eN02R69DVSUFM8U42piFpQ1ZdRSq9duzZq1CgHBweIWa1ZqhfDlVNpaemuXbvs7OyGDh16/vx5KqiYuKdDuaXJnlBtZS+uVPq+bgryPK/2ZLVtGs/gtNUUYrWJiHT+/PmhQ4e2adNm+/bt+Dn4iqrznn/AxPbq/fv327VrV9MtqklipwHP8z4+PpMmTYKfr4PG1NMHTMBMgoKCOnToMHjwYEg9RAVAE60oktUO1ICumnpzpSoHcDBW3KqhtVnRzioPauoHi4tWm7qnTp0aPnx4p06dduzYodmwGqGPEaJVKcEkAL8Xz6AS9u7du2nTJkLI9OnTJ0+ejLld2HuhK0mVVc3V3oXHlaYT0ryFViwEpnaSF3BVmJQDz0ul0t9++y08PLykpOTbb78dO3YsIr/Ar4NP4yuWtPtIiDKVH+/evTtmzJg7d+7UdKNqgHDOICDg999/9/b2TkpK0tXVRawDJtWqd6J/2KTGWyilISEhW7du5TjOy8trzJgx+vr6HFNdgwgMpIqJAdqFSKgY8XdJxRSfUDHFPDimMCKUl1Zp1HtVKBQymQySclBKgZlrIl5rjN6fxK/dhJssdKxi3BGl9OLFi5MnT9bX1x87duyJEyfU7M9APBOthDs1+s8seGpGbDWzIeuBZrelsDE8evTo+PHjDQwMZs2ade7cOfwvZRRu+ppo5o+H2EG8efNm586da7AxNUhqyk1xcXGrVq3+/PNP/BeUt/uwUQL19DrC6p+XLl2aNGmSvr7+5MmTwZyrUCh2797NXsy6gRHsouaUxWPUgIGbKRlS42+aaiskPlKbk5rT9eTJkxMnTtTR0Zk2bdqFCxfUDI21geq14f8RpZRnMHhU0G5h+wbnCwsLDx8+fPDgwWvXrg0aNMjDw+OLL74wMzPjBVQzEM+UhANsHi+A7lhNl9W/1VpCha2o5r8A0wjzFWq6sXjm/Pz833///dy5c6dPn3Z0dBw/fvzw4cNFIhGWlOE1QqTohw6EfkuilMbHx3t7e8fFxdV0W2qSIAhk6tSpJiYm69evBxysTCbT19cn9bPloyFgFGoGMxx94IQ7duyIi4vT19e3s7P766+/IPseG9uJRAWbEy8gpXkmHLTqlgA/xBoehMlHXWkOWjhfUFDw+++/X7x48ejRo66uriNHjhw3bpxaxnjgwGwEaU1RvRj+/4QWDIjYYa3TtKLpIysr6/Tp02fOnPnzzz/btGnTr1+/zp079+7du3HjxkSoFkDeOsIS5hl5/aSEuau5GGDGZ2ZmxsTEXLt27cKFC/fv3x8yZMhnn33m4eFhZWXFTlBWWoPHha2yDA2gNW6cqTmilMbExCxcuPDKlSs13ZaaIQwW37t378aNG2/cuMH+l1IKYR71YV0fCakJVCoEI924caNr165ECGYzMDCIjY09depU69at3dzc+vXr161bNygOyzMJnNmHsFwOOQ/8VCv5wF6JAcEQTaqlpYWxv1CdNicn59q1a1FRUdeuXXv06FHfvn09PT0HDhxobm6OscXQHthh4NdVunV4n1Qvhv9HahKXPYBAW7ZcNhsAHh8ff/bs2fj4+JiYGG1t7W7durVr187R0dHBwcHW1haENycQvosKcb2aLWF3f2oCGMRnampqYmJiSkpKYmJidHS0SqXq0qVL9+7d+/fv36VLl0q/DudZpcuAViy6/rERbtWvXLmyZMmSqKiomm5RjRGl9OXLl3Z2dqdPn3Z3dxcJpWdJRRWkXhJ/8IQDjWY5pVL5448/HjlyJCsrKyIiwsXFhfXOEkLi4+OjoqKioqJiY2PFYnGPHj2cnJw6dOhgb2/funVrNsWHpiqsZmVheSARFCTUGVCaPn78+M6dO0lJSbdu3UpISFAoFE5OTr169XJ3d+/Rowf7OZXmGGEfVbM2nnoxXAmhWRjBO4SRZHCACWJQmiqVyhcvXsTGxj58+DAhIeH27dvZ2dkWFhbt2rWztrZu3ry5qalpkyZNGjdubGJiYmxsbGhoqKurC2UsMVwd6mbLZLK8vLzCwsKcnJxXr15lZ2enpaWlpKRkZGSkpqY2b968Y8eOUGOkW7duLVu2xJbzPJ+QkHDnzp3JkydjnhrN7DPwUbCFxLmuKaE/EkIxfPny5eXLl1+6dKmmW1QDhPP8q6++6tq169KlS3kmvxI782u4ofX0XgiN0iqV6vHjxx07dlQoFHPmzBk2bFj//v3Za9hbqFDWNy0tLTY29s6dO/fu3btz587Lly8bNWpkb2/frFmzpk2bAhs0Nja2sLAwMzMzMDDQ1dXV0dEBiUgIgVBgqVRaXFycn59fXFycmZlZVlb28OHDFy9e5OfnJyYmZmZmWltbOzo62tvbu7i4ODs7W1tbo7LB2qvV5LdaMi9NP937p3ox/C+STCZ7+fIlTJ3nz5/n5+dnZGRkZ2fn5+cXFRWVlJTIZDKA/sP2UEtLSyKR6OnpSSQSCwuLBg0aNGzY0MLConHjxs2bN7e1tbW0tGzbtu3rXgfz6cqVK97e3t27d9++fTtrFUcDTr0qwxLKYI7jzpw5s2HDhjNnztR0o/5FYjf+atsyQsgPP/xw6tSp06dPV+p1q6f3T5ppdF+n2AFpqpVEY2+NKgRUTGcz3RIG6nzixIkDBw7s37/f19d35cqVbxkGokbQZplM9uLFi9TU1LS0tLS0tKysrMzMzOLi4levXuXl5ZWWlkqlUijqAK8Qi8U6Ojq6urpGRkampqZQst3c3NzKysrKysrGxsbW1rZJkyYIeanr9FEUsHv/BMZkiUTSqlWrVq1a4Uk1WzTL5tQWTBX/qpRw+fXo0ePmzZve3t7t2rXbs2ePi4uLWCwGHD8RAP3V/r0fBn0MUoc17UAyQshiSAhJSEhYsmTJjRs3cKZ98L1R+wkMbxzHIZbzb1UdVcOEEiEJJRFyTLLGXjgfFxfXrVs3uNLZ2XndunWNGjUiQlrfvyuJYU0BJ2zZsqWaiVENcoULkGWDcAuLYvnwICz12vC/SKDmwjR63bzR3L2y4Xdq/61CTmB4H57Zt2+fl5eXv7//f//7X9hQ18tgTWK14T///HPbtm1//vlnTTfqXyTWXgcIGiJMnn79+nl6evr4+CDCv6YbW0//PzgCfsISrnq/qCks2TAQhEQhdBn4xtOnTw8dOrRv3z6FQnHv3j0AcsIMeRst/I1fwTElfglTSeKN2oVa2Ah75oORxx/CN9Qq4oWs4oQQgPNh6gMgDAWGa9RmIWx70S4Ec/dtUFT4CpD6KpVq3Lhx169fP3369KhRo6AeIspgtgrFR07sCmf53YdKHMdhWRHwk8HxsmXLTE1NfXx8IDECTCE2z0w91QhxHIfCT6FQYDGDqm9RU66Aq8CqB80S5B8ei8ViW1vbZ8+ebd68+e7du4SBzWORm3eTwVQI3iXCKoN5BcYY3BGqZUfAn6DAsPZw9syHIYNJvRiudoIpwgsVOnFuIVgapCwbBkeE7Sorwlk5/ZZeGY6pvASCvEOHDmfPnnVwcIDUqURYFfW+4UrpY4AgUUrZOp7AW8+dO7d9+/YtW7YQQsRisVQqhYn6wbC5Ok2omGprawPC443jUim7EIvFIMIhcPGPP/6YMGGCoaHhlStXgFNt3ry5V69ewMGATfE8r6Ojgya6N+4AKm0JO5HQuo6AGCLYyVnhij8JYyAkDMNUO67rVL/MqplYBww7t9hUMnix2haPnXmo3Wo+vFKCK6EGGTwQ0IYqlcrPz2/Pnj3ffvutj48P2KbeYTl9wISd/E/MbnWINFEIPj4+P/30U5MmTWQyGSEESsXVZBPrSSC1iqiwhQIbxhuJZSDwHC0trZiYGEIIz/OnTp3q0aNHRkZGjx49gFOB7gvPhyRW6KnlOE6tpPpbEjYA1BI8CexOk7+x+a3gJCohmjL4g5HE9WK4mknN0csaqNHf9sbZw1pK1azcVd+or6+Pyi6gDaFy8GeffZaQkPDixYtPP/00MTHxHZbTx0Afg50ATZGcUCp71qxZ3bt3HzduHCEE3RbwL+Dd9VSDBBAtIiCqOI7btGnTqVOnXne9mqxCpTMrK2vNmjXOzs4nTpyQyWRisTgoKMjb27thw4aspwwcz1paWggagEepVCq1kupvSdgeNV8bXsAqJ6iKIOvD69GgiGfe0kZYJ6heDFczoTeXMPs4Xkh8iifVNF01wYx2GHSEvOXbIbsIHFAh6w0hRCQSGRsbh4eHjxw5snPnzjt27KiWj/3A6GNASgMnhc8UiUQRERFRUVGbN28mFUUvuI0/eBN97SesYQApCn799dfly5f//PPPb3Mvq1beuXMnLS1t8+bNK1asgM0W4iHQbgeBwjANYEuKTi5MPvV32692C3p8Wdcvy+LUnHH4IexHodiu14br6bWkuU0DGzV7Uu0aTgOo9XdnPDwB+SZGobBeGZVK5e3tHRMTs3PnzqlTp0qlUrRuqZmpgVlTSj8kfQi+BT9Zcw2rxWjiAbvm1fZPuLuCHoNXaPII9mnV/VmVE3wmthbeS4XKSCKRSC6X5+fnL1q0aP369cCX4WJUgzDFAbYcjt/SIlpThCNCKk5gPM/2ieZJNcLzapZSzZdCD7MuT81HwQEOjdrz1a6EJQlKMARc7Nu3b+nSpcePHz9z5kxhYSERhlVNSYXb//jjj3HjxrVp0wZG/Isvvvj555979eqltrVCLwwyEDZ4CQiOq0X7RIn7Ou2C5Xtqui8e47312nA91RmilILPD1Scbt26xcTE6OnpOTo6Xr16FfgUmqnRAkYI4TiOhfPUaVKpVIBMwaSknJBmFs2zkMieCNGKwFJZvsBeDPfi7gqQqNBdHMfB85VKJTDTf0/J5jXKfEHbYKzR9AIBJyw0RkdHZ86cORMmTPjyyy+hxBZ8C7I2TMIKFkvkfZjqqLYRZp+AngdlCwYdRwp6iRPSxePw4ZcSAcaIuGL2AnwCdju4UUFxhF5iHU9olKJCjI1MJmPtvfheToCmy+VymD+4JKGpp0+f/vrrrw8cONCnT5+vvvrq2LFjhBB4KRb1IwKeixCyYcOGvn37xsfHv+dRqKd3oA8fkPKREwAr0AzFCQmBt27dGhERMWjQoIULFy5evBizaUJ6HeC5UqkU4go+AFMtmxYgICBg+fLlVEhlx3FcWFjY6NGjodwFGt+USuWGDRuaN28+evRo6B9goMiXQSAB90TXFzjetLW1o6Kivv/++3379rEZQ/+l71q9evWqVasogyndvXv36NGj2SSmMLLff/99ixYtxo4du2PHjpSUlD179hBhEwaxK9AJKEs4jsN408uXLwcEBISFhUE+h1pFbHoH1pwOUpDV+XBfQggpLS19+fLls2fP0tLSnj9/npOTk56eXlJSkpeXl5eXV1RUVF5ejmX7CCEikUhHR8fQ0NDExKRBgwZ6enpNmzY1MzOzsLBo0aJFs2bNWrZsCcll2W0ZdCO0EL3v7JSAY7gFxkJbW5sXqppqa2ufP3/e09Pz1KlTffr0IYSMHj1669atkyZNQmX6+fPne/bsOXz48Lp16/r378/z/KVLlzgmQveDBz3UaaoXwx844Z4adtzsahw1apSbm5u3t/fAgQO3bdvWokULZAeEEKVSiXXBPgDsEip5crlcoVAsX7585cqVhPEHy+VyyCjECbBMgJSDYFZVrCsOwhvFGxGUGwC5EAHSIpVK1az6/4YZTSqVEkKWL1/u5+enKe/ZWnWYvPDhw4fz5s2Ljo5mw83hQ3R0dMA4D1fyTGZpiURSa6cBZmckhGhra6N/AXVNcHy+ePEC8r3funUrKSkpMzMTcx1bWVl17NjRw8PDyMgIch0bGRlB1neU4pRSuVxeUlJSUFBQUFBQVlaWkZGRn5+flZUVHR2dnp7+4MGDzMxMGxubjh07tmvXzsHBoWvXrtbW1gB6gs7ELJKEEEhkhmWCdHR0eJ6HbQQuxsjIyP79+585c6Z3796EEJVKNWzYsJkzZz569MjGxgbmZ2BgoI6Ozvr16z08PIiArIYX1Tv46wDRevrQCYtsQ+lsLKaN51etWmVqahoaGkqFwu9lZWXwL5lMxteyEtnvTDKZDA5Wr14dEBBAhR6A89euXevRo8e8efMUCkVISMiqVasOHDgAayQiIgIuIIRoa2tPmTKlvLxcKpV+/fXXq1atAgm3evVqMEE/ePCgY8eOIpFo1apVnp6eOTk58FK2OHk1dimM1/r16/38/PAVoMBdvHjR29u7qKiIUhoaGhoYGLh7925orYuLS2BgIHwRIWTOnDklJSXFxcVeXl4I4VmxYgU8LTk5uVOnThzHBQYGenh45Ofnw0trFWGXssH6MNVv3LixYcMGT0/Ppk2btmjRYtiwYf7+/sePH3/48CFcBoblSp8JcTuUCeuvgvAhycnJBw4cWL169YgRI2xtbZs1azZw4MCNGzfGxMTgJARHADYYpqLmu2JjYy0sLPbu3Qs/8bIpU6Y4OzvPnDkTtpXYYHg++xa5XP7BLOEPleq8sbGeqiZeSFiI7jFwX+F5UA0PHjy4bt06b29vgIQAIwb75AeTcgvVXJBSRLBVQm+4urq2bt36wYMHxcXFz549W7Ro0fDhw1euXBkWFjZq1KgHDx74+vqmpKQUFhZKJJIffvhBJpPp6uqCDTMuLm7//v0vXrwoLS319vZetGiRSqViIy/Jv4bqBIU1Pz8fTN8IjBeJRD179uzVq9fx48fz8vKePXs2Z86cSZMmBQYGjho1qmHDhiNGjFi+fPnDhw+Li4vLy8s3bdoEntScnJzc3NzLly+fPHkyKSkpIyNjzpw53377LYgKUjHypPYQmwuC47isrKw9e/aMGzfOwsLCy8vr5cuX3t7ecXFxKSkphw4dWrZs2cCBA9u0aQO34BdRwY+LOF70yKCTGPgmmwaACsg1eIhcLrezsxs+fLifn9/evXuTk5NjY2MnT5787Nmz//73v7a2tqNGjQoODi4pKWGd7giI44X0t3K5/N69eyNHjgwICBg7diw7YzmOmzp1anp6ur+/PyjrAP4ghMCCBY84GLTh+P2ORj39PaoXwx84oZMPhTEmBCAMNrhfv35RUVEKhaJbt243btwA0xlbFKxGP6IaiFKKWfIlEglWjOE4rlu3bs+ePeM4rmXLlllZWZMmTerVq5euri7cAmL75s2bDg4ODRs2lEgkEydOTElJgfM9e/aUSCTNmjXr0KFDSUlJTk6Oubn5wIEDCSHjx483NTXV7Dpa3cVNlUqlubk56OUgUVxcXJKSksRi8aBBg27cuDF69OiePXsaGRnxPJ+amnr8+PGffvopISGhWbNmLVq0MDQ0xC8qLy93c3PT19e3s7Nr27atWCwuLCxs2LDhZ599RimdNGmSoaEh7DCqsf3VQiACS0pKdu3a9cUXX7Rv3/7UqVNDhgxJTU2NjY394YcfPv/88yZNmoC1FgB0cCPVgCgDsRew3wtzhk0DAKgovB4szOCBBmhFkyZNhg4d+uOPP8bExMTGxv7nP/+5ePGinZ3dl19+GRISUl5eTpgqgQBiJ4RkZWUNGTJk/vz5M2bMIMJ+C0Q1x3GffPKJsbFxamoqYVwh0BKE2tEqQeD1VHuoXgx/4ISATCJoxoD+IIxsBrOYiYnJjh07pk+f3rVr16CgILidBSXVaQIfIWwseJ4HiyvwtYSEhBYtWoANwNHRsUmTJlBhBmGx4CgNCgoyMTHR1tZ2c3PLzs4GbaZVq1bgfgPmm52dDeWiCaM2YQPIv8ATKaU6OjqFhYVLly6Fh5eXl9+8edPOzo4QoqurO3z4cFtb2+7du1NKRSLRX3/9NW7cOHt7e6VSGRISoqOjw3Fc7969MzIy8vLyJBKJjY0N7FRKS0sppfn5+dnZ2dD48vJyIyMjxJPXKoqMjJw0aZKlpeWFCxdmzpyZm5sbGho6cuRIIyMjMPCQigNKmMorRAhnQrHKop05Jqsza0iEMxyTlplUTLbDCdGx/zM8ikSEECsrqwkTJuzevTsnJ2fWrFmRkZHm5ubTpk27fPky7H0JITo6OpmZmZ6enjNnzpw7dy4hBNLhwR4CHzt27NiIiAgimHMIk30PYYPQpFpovagnlv62GK5084j4FPan5mXs9K2UH1V6Bq98HQujFZOOqrUKZnYt3L+/H9IEZPIaJRRh+wxIlq+//vr27duHDh0aP358YWEhLGn2YkIIWsAIM9Y4CrUzuokKuGiQxMhwKVO/paio6NatW23btj1y5AgRok0QI71s2TJ0qx89etTExARAN3AGbJKNGjUyNDRkswWxXU0rZgKqFkKtC4wWPM/DhgBAQHl5eb/99lvHjh0PHjxIKfX19bWwsOjXrx+0ZNmyZZRS8B2ePHnSzMwMIeIIPTMzMzMxMSGCFgg8/f0MMRvhzU4z9hqFQrFv3z53d3dfX9+uXbu+evUqLCxs8ODBsFdA0YVSUO0MCjC1sH5288oSxxCeZDclauGwmBOq0kH/8ssvd+/enZmZ2aVLF19fX1dX1/379/M8X1BQMHz48GHDhi1YsABuhHR4WGUBBPb48eMBvgDfAuuXaKRxrpfBtZ/+thhmbTV4DIYUmNPA44A94S2U8XmwAXNVPBy3onglHoBZTFPPIAyzQLccG2rywbg5356oEL+IOA4YHfZYJpOBwACMSYcOHS5dutSsWTOw7CGqU6FQgABGzzFlquYRgTvgpr5WEU4M0HoxfBb3H5TSq1evduvWbc6cOfHx8UlJSaApAn6nc+fO0dHRycnJSqVy5cqVCxYsAAczG6pEKbW2tjY3Nz958iQhJDw8vKCgAPcx1S6AgWBZgWiEQcRMLGKxePv27VOmTJk0adKtW7eCg4MPHjzYr18/sMx36dLl0qVLjx490tbWXrlypZeXFxGysKGvkeM4GxsbU1PTM2fOKJXKw4cP5+Tk8O8l1xiYLsCBgpMTRgp3gUFBQc7OzhEREStWrIiJiZk9ezZg+3HzBDhkuJ0KkUs4HDA0ajwHxhS3I3xl+TH+CaHaSggB8LaxsfGMGTNiYmK+//77AwcOdOrUac2aNVeuXAkODu7du/eECRMWLVr0888///77748fP87NzSUC+r1ly5bW1tYnTpzgKibqqae6R/SdqFLoHVhO2DMwp/FkFWhDkN8oKvAkSFxYD5XeywIjEXwIEgKQq1W3+WMgqVSKx2qdgP1TXl7Ongek5fHjx62trb/99lvKoEAppZDxDo6h/xGZCWOtNg1qA7GdsHLlSlZF0NHR8fPz27dvX69evb777jtK6YMHDyZOnJiRkRESEiIWi8PCwiilCQkJhBBtbW0PDw8wPs+cOfPy5cuU0pcvXw4dOvTp06dKpTIpKcnJyYkQ8tNPP82cObOgoAC6Dnvs35iHfn5+aobigICAnTt3BgQEwBDfvHnT0NBw586dhw4dIoQEBwdTSq9evQoXe3p65uXllZSUeHt7X7x4kVKalZU1ZsyY5ORkSundu3ednJw4jtu4caOXl1d+fn61t1+TcL2zQF9kJkeOHHFycho9enRcXBz8C2agQqFgJyoaKuAnpI2DYzyACayGlGZZFstD/jnBi3AFqVQqlunxPB8TEzN48GAXF5dt27ZdvHgxLCxs7dq1Xl5e//nPf9q2bduwYUMjIyMHB4dBgwZNmzZtyJAhffr0kcvl7PSupzpH6pUp31JyaxpwKKWsQQbm5AN+rAAAIABJREFUGcZQqhlGVEztDrWHo9L8ulfjXajQgJmRCi4fjPVkL+Mqhsx+hCSTySAYEWx9qBawsaEwJ9B8JxaLMzMzZ8+eXVhYuHnz5nbt2qlVWWEVIwioJXUnyJgySRXgzKJFixo1agRKFer3OL0xnFpN4LEzjfXega6DnkXK1Cp/z752nudnzpxpYGCwceNGgNGyY4SDDp+GiHq4BkYcB5doFGj6t1sOPY9z9cmTJ0uXLn3+/PmKFSsgTwWOEeKS1NoG38XOVfgoUP1ZYzVhak7/S9OYbR4cg6cDIoaxhRcvXvT397ewsPj++++tra1x0VFKCwsL09LSnj59mp6efv/+/c6dO0+dOlXz4fVUh+hvQy3URppquLswZpwKDl3Mtcbz/LNnz5KSkvLz858+ffrq1asXL15kZ2cXFRUVFxcXFRVBuCpYnwghIpFIT09PT09PR0fHwsLCxMSkUaNGFhYWDRs2bN68eZs2baysrNq0aUOZRLjoG0M+wgnBAOSjqWTHEnTC8uXLAwICAKsCjDgkJGT06NFE6BPgBdra2oGBgc2aNZs0aRLwPktLywMHDvz000/du3f/6aefpkyZQgTTJRr6gHFLJJKrV69C7JOxsXEtlMRlZWX6+vpE6BMQP8Cg5XK5rq4u2PpA3iBDxAPoKESP4xlk3CAP2PyCbOYE1nVSjQQ+IBQhKG/gW+B1+/fvj4+Pj4uLQ7coOzoovcAIzLYZV5NEIikvL9fT0yPChrt6v0KTVExiSCLYpbdu3bps2bKlS5eGh4cTxnXFwv45jgP9FXwKuHFkIU7oPhcxtfY4IakydCNsQao9A5pak+BFuBXGnVyfPn169uy5fft2JyenDRs2eHl5ITczMjLq1KmTg4MDzkOU3/UyuI7S35ZJ7FaOaAy8VCoF9wwsiUePHkHCmsTExKSkpJcvXzZu3NjBwcHExMTGxsbe3t7Dw6Nhw4YGBgYGBgYmJibGxsZEWB6EEJ7ny8vLy8rKZDJZfn4+gDZzcnJycnJiY2P37t2bnp7++PHjZs2aOTs7d+zYsX379t27d2/RogVOWVoxs93HJoOJwKG0tLT8/f2XLFkiEtI3YnYnsZDrH91penp6nJB0CcZxwYIFzs7OPj4+ly9f3rVrF/Yn63eHA2BetVAGE0JABhNh0gK/AxYG6i+INGCUGIbLcZxUKtXT00N4ASuDCSGoXCJ7ZXP8ioX6dPjq/5mhqoljgtyFdmILRSIR5pB6+fLlzJkzjxw5wkIlcLvAyjme5wFFD0A2BBjDHNDT0wMP0fupkolTCC0KEyZMyM7Ovn79uq2tLbQfTFywC8TGEyFkCAYF83TCf/F7eQEjrWYRIcJ2CgQ5EVTnavw0VFFYwApsbmQyGa4+LS2t2bNnDxgwwNvbOzIyMiwsjDCwZ5yHVEBHw6Kuz5lVF+ndtWGWlWD2O11d3djY2MjIyLi4uMuXLxsbG3fu3NnR0XHatGnt2rVr3bo17NMx1SouJ3gOyxcIISKRCCQ0IcTKyup1xuqnT5/GxcU9ePDg+PHjvr6+crm8W7dukLugS5cusL1V44YfD0GqPJFIhIxGJOQNvnbt2s6dO7du3UoIOXr0aEpKSvPmzZcuXUoIKSsrmzJlSkxMTI8ePQghXl5eQUFBUVFRn3zyiZmZWWFhIc/zq1atWr58Oc/zjx8/HjFiRGJior+/PwiAaudc/5zArKqqWL4NdCyZTAbNBnUZ+S8RRLWenh6qmKzjA65B5RLtinAZ4rbUJh5XMcy0WoiVLsiIoRlz5sz5v//7v759+yKzJgxCHj8EWg4CCY3qnJB+GX6KRCJE572HHS28VFtbOzU1dcyYMT179gwNDSWCfEWvARtTBx8IJh+0W0A/YA1QNSaDvQHsCBgFbkEIY+Solo/CKYSGdNxwKJVKsDdgqziOa9OmzZkzZ/z8/Lp16xYcHNyhQwfCBCOwaUfrC1PWYXpLHzISghfYzHkFBQWhoaGQncfFxWXhwoWHDx/OyMhQg0ho3ksF2MU7g3ow8To+5MWLF8eOHZs7d26PHj3Mzc2HDRsWGhpaOzPwvR9SKBQrV66E1P9UALNAb4SFhe3duzcvL2/VqlUlJSWUUn9///DwcJ7nk5OT+/fvn5ycXFJS8s0336xYsUIqlU6bNq1fv36Ghobe3t6dO3d+8OBBYWFhnz59wsPDKaUrV678/PPPc3Nza+5bqyLEwsABL6TOh5NKpdLLy2v79u14vdp0RUwNHrDnaUV4Gl6DTwNtW+2l/5zwUexH4Ys2bdrUu3dvtTe+blWqXaDWeLyleiFLVZNSqUxMTLSysoJxQQQW2zYcVjY9JLTZ398fuBzsISAlJC8QZfBfSqXyu+++g4vFYvHq1avZZVK9xCLCNOcJTDCcJ/gtP//8s52d3dWrV/EugGUh2uuj5W8fAFW1xeMrhoHCDZxQDozn+dLS0l27dg0aNKhVq1anTp368ssv7969Gx8fv27duiFDhlhaWrJ2MFKZv40IXp933myi8wYf0rRp08GDB2/atOn8+fOPHz8eOnToiRMnWrVqNWTIkJ07d5aUlPAVYxCVlRWg5Zm4grpO0DOrV68Gc4K+vr6Tk1NqaqpSqRw8ePDdu3eHDx/+2WefgTcB7dWQAsLS0tLAwGDChAmvXr0qLCwUi8VTp069fv16cnJybm5uRkbGixcvrK2tPTw8eJ4fNWpUgwYN1DqNCoZNUtP9yRrPSUV/ChUKOWA1C6IxXdGUjQdqDjmch+zF+DTQe9AQWr2fxgupSYHgRYmJiQsWLPjxxx9pRXX8datS7QK1xuMt1a5yIZ+BAyVTjjcpKemzzz776aefIJ4KTOVqbUPbLFYlQqAWz/NRUVGUUpVKtWvXLgTZoV0N7djh4eE9e/YEFqdQKBYvXgy2DbaFVKhSrMY3WH4CvJH9y34aIQTqGHJCiitgp2omQGwexyQSmTFjRmBg4LBhw+7cuQMPl0gkVIDFECFSvNpGpZ7eI1Ul/IAjs0BEKtiyzp8/P3369IYNG164cGHu3Lnp6ekhISETJkzACmg1bv5VqVR6enomJiYjRoyIiIjIysr6+uuvIyMjLS0tZ8yYcfbsWaylwxr04ABioGFN1tgHVB/Bt/j5+eEmOi4urnXr1lpaWoaGhl9++WWrVq0cHR3B0Af9BnEUW7dubdCggVgsdnNze/DgAZjsWrVq1bZt24iICH19/dGjRx89ejQ7OxukFyZMQHcXL4SPg+msxmdF1VTttuL3QGoNBk82IYRSunDhwo0bN0KsESEElLCaaWWVBGZ8XIZaWlqQ3zE7O3vw4MHr168fPnw4SqOqH4XSixOSpoEwBi8MROVpa2tHR0fDrmjGjBkqlaqgoEChUDx+/BhuBDAjIeT69euA+RKLxVeuXOE4Ljo6Wk9PDyzh3t7eUqk0KSlp8eLFMplMpVLt27dv9uzZWVlZnp6ekFAF7r1w4cKSJUvu3bsHzUD2QoT93xvFJ8jmoUOHrl27duTIkbm5uWKhGphKKMKISa3rqc7Ra8UwICMQ16BSqWD2hISEuLm5LV68uEuXLq9evQoODv78888lEgniGgiTr+M9fog6seBJ8JoMHDgwNDT0xYsX3bp1W7ly5aeffrp79270+iB6lsVavwdE6L9NoIbi3hmqjqNCk52dHRYW1r59+yNHjqArrry8HEC2UJQXrHPnzp3T19cHIx6sfGdnZ39//19++SU1NbW0tBTRuRAWBVcCw8KSALV8t46wlzpEoIEhpJFSClui1atXa2lp/fe//4URBPRZ7fw68GdDCwEFBjAlLy8vb2/v8ePHE0YTfd1DUADjFpAQYmBg0KhRI/hwuVwOMvX+/fszZ868du1aUVERIWTt2rUcx4WGhqalpVFK5XL506dPIyIi7t69u3TpUqjCtGfPnpCQEKlUyvM8lNJSKpXNmzc/dOgQ7C9VKlVRUdHevXtVKlWDBg1Onz6dnp4+evTolJQUqVT6ySefADwblhWwF9zo829KNon5WEQi0cSJEydOnDh16lTgV+Dw5isG19VTnaPXihkW6AH7rLCwMHt7+xMnTqxZsyYuLm7WrFn6+vra2tqwyImwZUPcZs3KMDSjUSa+gud5ExOTyZMnX7lyZdmyZX/99Vf79u1DQkIQvsEJWbrUDPJ1l2AcJRKJVCoFiA2binL79u3jxo2bPXt2QkLCo0ePCGNzc3V1jY+Pv3//PiFk5cqVM2bMoJRCxVkqgDN79eoVFxcnkUjc3d1v3bp1+PDh/Pz8wsJCYDqwYYc2ACuptbt1GPe6GM8GChxOVPiQ06dPb9my5ddff4WTEokENkNqxY9rA1EmkzMR8pwrFIr169cTQubPn0+FkMiqtT1cs+hxkMvlmZmZPM+DeUBPTw8kVl5eXt++fR0dHQ0MDCZOnBgZGZmfn9+kSZPhw4eDrjxp0qRLly61a9fu3LlzrVu3lsvl9vb28BaJRJKXlwfNKC8vt7W1xcSfmzZtGjp0qJmZGUx1EIqoBkBqIzUrN3wXGzRVKSG4He5avHixtrb2jz/+CGoS7h0/AJ3ho6XXjhy6NyQSybFjxxwdHU+dOhUaGnrw4EFAz/JCfhlQhVlFBw1lNWgEowwMGyc6tBMWRv/+/ffv379nz56TJ0927979yJEjAGxBxxgAaGuq/dVFYJGTyWSrVq2C3tDV1YX4pfDwcJVK9cknn2hpac2cOXP58uX5+fnNmzefMmVKeHi4nZ3dokWLHBwc9PT04uPjAwICQFEGXRm28FpaWo0aNYqIiFAoFE5OTvfu3bOzs8P6iYQQ0ELgoHZa+Fmjbh2N9xAxOUYIIXK5fMWKFd9//33Tpk0JU1MLat7VbFM1CaUvyEgQOVlZWStXrgwKCsL4LvKmaENwh0M/wEazpKTk1atXDRs2hGi08vJyULjT0tLA6E0IMTMzs7a2lsvl+vr6TZs25ThOJpM1adKkQYMG5eXl/v7+HMfp6en16NEDbDlKpXLjxo26urocx2VnZzs5OYEj5t69e8XFxd27dwefDhGgAGgBksvlHTp0ACBLbGwszjpOyKVa9acRBougUqnWr1+/ePHilJQUImgaqAj9o8Gopxqi1w4bTKCUlJSxY8du3rx506ZNBw4cgMozGJgBAfJwzCI+0CNYg7oFSF+wFyEoAwMSIJiBEOLq6hoaGrphw4agoKCxY8fCzIZlj2mD6jSBRQ5g0gjILC8vX758+ZgxY+A8x3F2dnb79+/X09ObOHGiVCodOXIkIaR3795KpVIqlR45csTCwkJfX3/Xrl29e/cmhFhYWISFhUE1Hnt7+2fPnl2/fv3hw4dFRUWGhoZESINACAGdGC0lNdsblRJ66ZR1sKojqwJCVy9durRt27aQaKW8vBylby1UhYGogF5GKbJu3TofHx8rKysswkEY22wVJBKi5Akhr169aty4MQhFOC+RSORyeYsWLTBLWm5u7suXL01MTExMTDIyMniel0gkkKk0Jibm2rVreXl5KpUqMjKSCJqJn59fcXGxSqXq16/f+vXrYeu2b9++kSNHojYCPAdSc0Psso6OTmJiIs/zKSkp69evz83NxbXABkdpEkLcCSGg1gM+w8/P7+effybMBKhxP2A9vTNVtXv6+eef3dzcXF1dL1682KdPH1jGMC1EQuoDIqiYoHUh58WETe/nM15H0BKuYrEHtZ2jtrZ2nz59zpw507t3bxcXl6CgINw9fDDTmo1/UAlVwaEf0I9ACNHV1YW9uVgoYE4IgZxoHMeBDsHqHKxNzMXFJSEhoUGDBs7OzufPn2czI4oqVrmptVQXfcOsR5BSevLkySNHjmzZsgWsuHp6esjiERVc2whts0SocxUUFDRv3jwwt5SXl3NCOosqHgKfiSlTFArFvXv32rRpw+ZNgxh6U1PTy5cv37t3r6ioKCIionfv3o0aNXJxcTlw4IBIJCotLd29e/eIESMMDQ0BOFZSUgLxeOB019HRAfQDhEpqaWn9+eefpaWlHTt2hCQn5eXlwHYUCgUAMuC7IPpcJpOhbxhtGFVowwichgYgj/Xy8tqyZUthYSEq0yzMrZ7qGNHX0JQpUz777LPHjx/TyiILqUaYGu7aQB6/cxxw9RJfMWm7WqykZiOTk5MHDhw4ZcoUgGO8t3a+B+KZknx4EmMueYHwX4DM4jWy3vNM5Cv7QLzy0KFDpqamAQEBtGIP19q4RvyiL7744tSpU3Vu3LGT8/LymjVr9ueff9LXRPrWzk+DSYhx2Lt27RozZgxlJicol7TKkiEs/1EoFPv37ycMbgv/RkZGUkqjoqLg58yZMyGBrlwuX7NmDbDEwMBAnueh0AUhpGPHjseOHRszZkxOTs6VK1eQczo5OT148ODBgwceHh5JSUmU0rt37/r6+paVlYEHetiwYU+ePJHL5eXl5d988w0RNhzR0dFsa6v+Lvr6CO8RI0bs2rWLCkv1jc+pp1pLhOWqwElTU1OdnZ2hrg5lSp28cQ2r1UfSlH9wgVqeAZw6mHMAuIamAIDzmjIeuQy7brHxmN/jje3Hz/Tz83N1dX3w4AH7WOwHtc/8yEkzJYtMJsvOzh40aJCnp+ejR4/oawQwKxtqkH2wc7tPnz4XLlyoqZZUTchqaWXzHGjSpEk+Pj7vtVnVRGw6i9GjR+/Zs+fdnoOLNCwsTO0hZWVls2fPrrXj+w70yy+/jB8/vnZurerpb9H/D/GEzdrt27c/+eST2bNnBwYGUkoh2Pwttervv/8eIVEcxx08eBCfzCYfhgcGBgaC21JfX9/f3x8SEWNMPZpGYX3CKzBtm0gkQuAJQq7g+XAS4zc4jmOTA7/Nh8jl8lWrVs2YMWPAgAE3b97keR5QGHUuovT9EAs2gQOw+x05csTd3b1bt25QKxBy/YBaQ4RRgwNaa4zVfPXlLKx2gopAuJr+t3pFIoAj8TwfEhKSmJi4bt06UqecKch54CfHcYmJiVAp8h0I7bdwgOfBg1taWgqu4toZP/13ydXV9caNGyyKrZ7qKqFA5nn+1q1bTZo02bt3L6v2oUXojRQQEHDp0iU4DgkJiYiIwC081kiHR4WGhkZFRaFBBp8PGpJatjxoBtYTfd3bUeuFIH14rFwuZ+1yVewc8WPhZ3l5+eHDh01NTRMSEuDt7L211r5aI6RmzUZSKpUXLlxo167d9OnTNW9hUw/W4I6e1Ybd3d2hfnCtJRVTnpY1C6WkpECFK1rXrDVq5llKKaDr3+E5SqHKuNrDNVfuB6BBgg0fkFn0g/iij5lEqKC8evVq3Lhxa9asGTt2LOD7sQAIxBLQKjdciHUETkEIkUqlgKm+evWqgYGBWCyeNWsWx3H5+fmQfQayzKxduxZ05cuXL+vr63McZ2BgcPXqVYVCERMTg/ggHx+f8vLy1NTUBQsWlJaWEkJCQkJmzJiRlpbWv39/iIiF3BGXL1/29fV9/Pgx3AvNA425Co0WU+LBZ+rq6g4dOnTHjh0TJkx48eIFYMIJIbCMa238a00RdiwbHCkWi/v06XP79m2lUunk5BQbGwsTAwYCbBuUUrVotxppOQ5uLQzpAcIMshgPBmYh6O158+b5+/t37doVLqhD2rBmcOO7jQLiCjGABwxgsKKhQ1RMrcPq+4KaIYzDpEzGpJpuVD29I4kAjiiVSqdOnTphwoQJEybACgfrDVsPpOqRFolExsbGFhYWgBKEXG4qlerJkydeXl7nzp0rKSkRi8UrVqxQKpXHjh3Lzs6GIobp6el79+5NSkpas2bNrVu3KKW7du0KCwvjOE4qlS5ZsgSmmrm5+eHDhymlBgYGHMdlZmbu37+f53lLS8uzZ8/m5eUNGTLk3r17crm8T58+VIABg60bZCcWun8d8TwPhnFACFNKBw8ePG7cOMhaB4tZzdhVT2pMja1fBGc4jvvtt9+++eabvn37QogFkEooygu5t95vqyun2py+g01Eg6uyvLxcJBJt3LixtLR00aJF6H+ptab1SokyNYMJIQYGBrDPfgfihZzS0BVwDBG3rNur1sZuvT1xHFdcXGxgYMBXzNxST3WR/udD3bp1q76+/oIFCyCdIRvZQoTS4qTKkS4tLU1LS8OfKpUKgtwzMzM//fRTFxcXAwODYcOGxcfHFxUV6erqjhw5UkdHR09Pb/jw4ZcuXbK1tf3jjz+gjFezZs3AaKmtrW1sbIxpvFq3bq1SqYqLizmO27Vrl6enp5mZGahfMplMV1cXFh6YryEqADK44vKrmj2By5kwGcR0dHQWL16sr68PESAQHg098497/gMhnBJq9hLMeQvRk9OnT09MTIyIiBgyZEhpaSlsaMDjjuVXa4rw7SDeaqdWgRIFFWKIR7p+/frSpUu3bdtGKX2byNpaSCBIsO5C06ZNX758+Q7PgYgdmFewQjkhmTYyBDiutTaPv0UZGRmQqrOmG1JP/5REhJDU1NRly5atWbMGlzfYXdlk6xxTKL5SksvlZWVljRs3xjMlJSUikejZs2eQnlomkzVr1szc3FylUllaWpqYmBBCeJ63sbFp0KABz/OrVq0Crt2nTx9MqbNo0SIdHR19ff309PROnTppaWlJJJLk5OS8vLyePXtiwnddXV2IlBeJRAYGBvn5+W3atAHN9fbt21RIfV7FNgJBXmj944T8tAEBAcuWLXv58iXgrkHd/6cd/8ERCxWhFXE3EolEoVC0bt366tWrbdu2dXBwOHnyJOxp8JbaQKig10LCzgRJA5tLQsjChQs3bNgAsx0kTe3pz7ck/DRQ993c3CBdxt8i1BlwheJeGXuMCLuZD2MbHRUV5ebmxvZezbannt6ZRJTSoKAgX1/fFi1aoJ8MJjEnJFiGk1A6+3UPyszMNDY2hmB5EVNJrUWLFnC7RCLJysp69eqVnp6erq5uUVERuGoyMjKKi4uvXr16/fr1vLw8pVIJUX3gzfXz86OUlpeX9+zZc8OGDaD77t27d/jw4ZieCfCiEokE/NMlJSXm5uaPHz+Wy+UPHz7cuHFjbm4ueVNCY/SogeoMDks4trW19fHxWbt2LZgKSJ1Cov7bhEowIuSJkOKDhRRgv61Zs2bLli0zZsyAik+cQDX4Cci/aK3BbFdBVKg+wnHc0qVLraysZs2axRYgwlTedYXQiwFTyN3d/dKlS3/3ISh3wZjHC/nyiLBadXR0QLvgajrdfbUQpfTChQuQ0g7ojfCdeqq1JIKcNf/973/xFExfFFqs9AJYDRyjSIaxj4+Pd3JyQmsPPqFRo0bR0dE3btxQKBTBwcE9e/Zs1qyZo6NjRESEWCwuLi4OCQmZOHGikZERmpfDwsIAvIMaOVib4fjs2bOFhYWdO3eG7QKEVIlEIkhew3EcpIICPx/PVC954xxVW5xwI6hrvr6+O3bsyMvLI7U7rOX9E4pezfOa/4XNzaBBg27fvp2cnNyvX7+7d++yd+HsYkUjHOB8q/Y9EPIv3HghtoBUhA5V73v/LsFURCly9uzZnTt3btmyRXNzXGt1+koJfcMwsiNHjjxw4MCrV6+IsOegTMnq15FcLp8xY8aVK1fgIQEBAVevXg0ICIAChWVlZTNmzIiNjVWpVNHR0eA5FolE165dAy05PDwctoOhoaHR0dEwDYA8PT2vXbvm6+tbUlJCCLl69er06dNlMll0dPSqVavg7f7+/itXriSErF69Ojo6urS0dPr06ZCzHTJIA2HzEDXG9sAbu4hn6s0UFRWFh4ePGDECr6nx7Ww9vTOJTpw48dVXXxkYGGCsLanSBwySjzDqo1KpDA0NnTx58vjx48F8zXHchAkTxo4de+XKldatW+/Zs8fd3V1XV1csFvv4+BBCJkyYAGLVxMTE2trazc2tffv2LVq0sLCw6NGjh6enZ0FBQXl5uVwuDwgIAM1448aNw4YN09bWtrS09PHx0dHRgcSwuGnQ19dXqVRQyaSgoKBdu3ZaWlrt2rWbNWuWmZkZfNQ7cFL4HD09vf/85z+nT59+136up/8RjJepqenBgwcHDhzYtWvXoKAgNE0jBAkHixMK6GKZpjdWpPlbpFKpoCQUIPwhPBdd2hATArG5NZ5uGg1UMMnnz58fFBRkYmJS15Ofq/EcAwMDb2/vzZs3k4p176tOxikWiz08PCIjI0UiUU5OTnp6uoODA+KlQcZDEcPly5ffv3+f5/k9e/b8+uuvIpEoMjIyKipKKpW+evXq7NmzxsbGKpXqypUrX3/9tVwuP378uIWFBRE2N9BOtmDo48ePjx07Bn4xcA3Ex8c3b958zJgxDx8+XLZs2b179yile/fu3bNnD24m3nIrzwv5+UnFven69evnzp0L+dvRYFlvpaujJDp69CiIN/j9NoyGzcIBqBYdHZ3ffvuNDViUyWQQnkQIcXFxgcm0fft2CGEihCxbtgwq/yxdupTjOH19/V9++YVSGhMTM3jw4PDwcCMjo969e4NaLJVKb9y4YWdn17Jly1OnTtnZ2YlEolatWgUGBkKMU4MGDXbt2tWmTRuJRKKrq7tz507gqjzPd+nSBdfPO+NgtbW1hw0b9vvvv2Ni6np6NwKbBxhOFyxYEBkZGRISAjkFiTCpACeF/Qy5fFUqFfg+SbUqpqGhoRYWFt9++21ZWRlE4h45cqRRo0YrV66EWo2UUvB3VNcb35lgHwD9AOllvvrqK5zS7Mqtc1oRCykQi8Vz5szZsGFDWloabsXgsiqWnlgsdnR0zM/PLykpefr0qbW1NRTlBNwlz/Pws2XLlhcuXGjTpo1cLm/Xrh088MqVK+7u7jo6Oubm5nv27HFwcCBC3AS6nHHSwswEuINKpZLJZEFBQdOnT5fL5cDcCgoKTp48CXpq27ZtT548CXUSmzdvDg/8W5s5gFDANhHR8s+ePfvpp598fX0JIQBf/TCisD5aEt29exem3dvHn8G2CyYEbFEVCgVA5+FeUCNg3wcXA0SC3dvBbAcSAAAgAElEQVQSIZM+ImYB3wisFv6F8fjAa8CUBBdj7TYiWIkhvBgDBIlg5pJIJMBeybsGKkBrnZycbt26VS+D/yEBfAbHtHPnznFxcVpaWq6urphrF8B0wEDRHAcsDBTiakS6Tpw40crKat26dSYmJoDq9/b2zsnJgeqzqIDWknGHxuzfvz8mJiYwMBD6oa6H0mEgAycUPbS1tV2xYsX8+fNxk4FGkSqoWbNmYrE4LS3t3LlzvXv31tbWtre3P3/+PDwEZo5KpfL39xeLxbq6uq6urtra2q9evUpJSWFfRATAFzAl4B4nT56ELb67u7tKpZJIJLBZvH79euPGjTt16gSCkFI6YMCAgQMH2tvbg3K8YcMGiBnp1asXWMLZkXqj9REIEHkwGymlCxcuXLJkiZWVFWGUoqohqPVUm0mUmZlpbW2Nopct2FIpocjEnzzPjx8/fsiQIbicJBKJnp7e9u3b3dzciDDJACIBQQW47cXHAp/F0oRg+gYhreYdhLu0tbXBVIgh+YSB2GABKE6ozSIWi6VS6Tuzb5VK1bx58+fPnyOneLfn1BMYS4B3ANSIELJ169bFixd7enquWbMGA3LwMhhWQMCiNaUaKTAwEKLdVCpVWlpaaWnp1KlT27dvD4oI4H3Imyrh/NuEaZLy8vJ8fHw2btyItmg1zFEdnZwIuYDe9vX1lcvlgYGBeIGurm4Vn6ZSqQwNDTt16nT69Ons7Gw7Ozue5wcNGpSens5xnIGBwW+//cZx3K1bt86dO1dcXKxQKKKiokQikZmZWevWrTWZDJR8gKRAIpFo+PDhBQUFSqUyOjpaJBIVFRVRSvPz80+cODFkyBBgOMC4rly5EhkZefXqVYlEcunSpfPnz6enp/M8HxUVhelI354UCgX4SojASKG64pIlS/AM2gzqxXAdJVFhYaGxsTEMISqRb7wNK99B9g9SWcFLOJbL5XgSLNggONG6iwIYpCZoS2DhIcK2FGzabHk+QgjWCyOMzo3SF89jXiddXd1304ahcwwNDTGrQP10f2eCbTuMo0ioO0kpHTt27N27d69duzZ06ND09HQqVMnkhNBPNoS9GiWNSCQaPXq0oaEh7P/AbOPr64uTEzQYcBhX10vfrZ3QgHnz5o0fP75///6avkDEcNVQG9+dcAMNOA8Y35CQkODg4JCQEJVQD61q3zAhxNXV9bfffjM0NITISYlEsn37dp7ni4uLp06dCiY6U1PToqIinud3794tlUo5jrO0tIyMjFQqlVlZWYMGDYqLiyOEQI1IcGyBqdnIyAiap6WlpaOjo1KpgoKC9PT0IFpMW1sbQ59nzJixZ8+egoICuFJHR0cmkwUHBwN6lIU0v3GwoFw02NVFIlF4eHhwcPC2bdswoz4ReG/dwuXVE0siIyOj4uJi9lTVM4ON9WTzpOP6R+kL4hkcbDCNAP+COedUTFUJwmS3JozVUQ2wDaoSiHYUvYRBz3JM+jqVUHwUhDFqV3+L0FZfWlpqYGBA6qOV/hlBqkI0crCJq5o0aXLixAkXF5dOnTodOXIEvBK8UCgaR7Pam6SlpbVq1SqJRAK7N29vbzs7O0KIXC6H7EuAD6rZ5Bgw67Zu3frixQuInSOC1QcnPKmzG0Q1sYT2sxMnTixZsuTw4cO4Qa/iIZD6o3fv3l9++SXIdbRdaWlpAcLAwcGhSZMmNjY23bp18/T0lMvlRUVFU6ZMadq0qUQiadq06YQJE5ydndldoFKplEgkhoaGUG9boVBIpVLgQh4eHnPnzgVLG1wvk8n09fVNTU179eq1efNmBweHZs2amZiYuLq6fvXVVxkZGZXqrFVvKyHNnEgkOnjw4Pz58/ft29e0aVMwByJXBGZYR/O31BOxt7e/c+cOLmbVawrxssRr1MgEYwvmmsef7DNpxfqDlCkJoBKqO/BMKnZVxSKjag1j365i6hjyGpnisW5uFV/0Nh97//59e3v7f/KoegJipwEIObWJcfbsWVtb27lz5+It2dnZLVu2vH79erU3Br3RDRo0ADH87NkzHGK2KGeNl0y4f/++trZ2QkICTvjXTcU6VHqEXbxs4WH8tGvXrrVo0WLnzp1VfxT89/79+yNHjszPz2cLaWtejGVg1PgJO8QsR8LKNOxD8Cdmuq30jdhseLha7ec3MhPkgb/88ouNjQ0sARVTDkelUUS8nuociZycnK5fv87aSeAfVUhuzd0cKDQY5ssi98CKCFt1POCYYmRgbKFMYBz8Fzxz+AoW20U0LOe4H4SfYF2Enyyuu2piiyoSoVgFvi4uLo7FstXTOxOOHZjyiDAxsGM9PDzi4+MLCwt79OiRmJjI83xaWlpOTo6fnx9cwPprQQtBsAIOGR5QQVPUnNj4Ukqpn5+fSCSaPXt28+bNUVnHyUMZo1+lC4R9HRyopWpiV13V/aMWIY3fOG/evMDAQGdnZ+y91z2hltgnK/1eNagwu64hBhJxTPD5xsbGo0aNWrBgwfLly+EM9g+buoDjuJiYmPbt28+dO9fY2FgNcqVGoFwSZirCAWstY8OT4Hq1R+FPcNLjT7XLcCzg4WrwFESEsTY2tovggqVLl/7666/nzp3r0qWL2mPZXEn1VEdJ5OnpCZkFcWPICbVKKiXW/IsnKbOvxP/izEY3MBygrFUJaSOJUCoYLd6sVAYhDVAFaBjOWnRmo9ESWoVOGsKs86rZHwQCsggsZAfwnLNnzw4YMADb87d7up6qJESQghXaxMRk165dkydPdnR03L59+5MnT8Ri8fXr16Ojo2EWsWZqxFETZqvHCnuRkOUfxxevAb+vlpbWnDlzRo4c6e/vDzIeRC/ONARPsJhkll3Cc6gAlwW0DlbnxBvpm3y3YLSHAp3YbLFYvGbNGolEsnDhQlrrU31RQcnjBOJ5HvwLRHAS8ULKAbgFXUgwfDKZLDIycvXq1W3btv3iiy9yc3NDQkJycnI8PT2Tk5NBkkHOeSJEmYtEou7du1NK3d3dRUJy+Fq4TrHkDHQC9gm2mVTsoufPnw8YMCAjIyM2NrZ169ZE4KI19wX19C9QUVGRWCx+9eoVZWwyULL3dcQLRCktLCycPn06zBttbe3PP/88IyODUvrdd9/B88PCwsAOAwnqgAdBmJ1cLl+9ejXHcS4uLg8ePFCpVGVlZd988w0hRE9Pb9q0aaWlpZTS3NxcDw8PQoi+vn7btm0TExPhvR4eHrAOv/vuu4yMjK+//rqgoIDn+Zs3b44ZMyYzM3PNmjWI79i7d+/evXursCvC54B9CUipVCqVSrjl5cuXWlpa5eXlaoWH66m6CBgx/oQ5I5VKb9265e7uDilRCSEDBgxgjXu8UGUWb2ft23BcWlr66NGjU6dOBQcHL1++fNq0aUOHDu3bt2/Hjh2tra1NTU2hZhdhdpYNGjQwMzNr0aKFi4tL3759Bw8ePGPGjO+++27Xrl1nz5598OABLhA19wplzIxqnh22hu5bmhBxoUVFRenp6aG1XLOwbi0klkvgGSqMC64sta/4448/pk+f3qpVKycnp6VLl0ZHR+O/ysrKfvnlFyMjo82bN7NGbBDwlDHP8jzPehNqG6lNDLZuNK1YWH3Tpk0SiQQSKrC8q3Z+Vz29M2np6+vPmjVr06ZN/v7+gLhTKBQAZ3gdsZt6HR2dxo0b37hxo0OHDsXFxYsWLRKJRBEREefPn8/Nzc3NzR0zZkzLli07d+6sq6sbGBi4ZMmS5OTk4OBgqVR6+/bt58+fFxcXx8fHHzhwYNmyZd9//72VlRXP85mZmZMnT7516xbscO3t7ffu3WtsbLxs2TKJRFJaWvrtt99OmTLlr7/+SklJmTVrVr9+/aCYEsdxJiYmEEbs5ua2f//+kSNHKhSKuLi4uXPnVgHRQusTERDdrElg+/bt33zzjVgoYEzrJh61NhP2J2iNgIqHcBFra+uEhATQd2NjYy9fvgzJFgDeBdow2i20tLSePn167dq1+/fvP3r0KDY2Njs728rKytbWtnHjxi1atHB1dW3YsKGZmZm5ubmRkZGBgUGDBg0gYB3bkJ+fTyktKSnJz88vLCzMy8vLyMhIS0tLSUl58eJFcnJyTk6OpaVlp06dHBwcnJ2d27ZtCykaiGDmgdaKhMzkVKjqQynlmQSrlZJUKn3y5Mnp06fnz58PtyxatOi3336zsrICIDfECMAraps1khdQk5xGBgL0Uql1RVZW1p9//vnXX3/9/vvv7u7un3/+uY+PD0QcsXh1PT09Ly+vvn37Amhr2bJl/fr1YyuxgiYNHfL2rqj3TDBkmKmNnQyQGB8GNyoqKjAw0NTUNDk52cbGpry8HPGwYF+stRU56+kdSEssFi9atKhNmzaTJ09u2bIlpRRmyduE2MJkKikpMTAwwEhfbW3tR48eTZs2zczMzNTUdODAgWfPnnVzc5PJZDY2NmBYBlbyySeffPLJJ5RSXV3d9PT00tJSyMtKCDE1NW3dujUn1Ao1NTU1MzMrLS2FiWtgYPDDDz/AXqFx48ZmZmbAniQSiVwuhyyYlNKOHTuGh4eXlpbm5OTo6+tbWlpWwbZ4IVyKVEypKBaLHz9+vH79erCLwsW1cHl/MATWOXAQdO3a9caNG6zbrLCw0M/P78qVK0Twd4CQu3btWmxsbHR09OXLl42MjBwdHZ2cnIYOHRoYGGhra6s27momUwRvYwy6qakppRQyrZKKQARg93K5PDU1NSkp6e7du8HBwUlJSf+PveuOi+Jo/3PHwdGkC4ii2LErdgWjsSBiFwsW1FiwJSaWWKIgRY0ak7xJjLFHQQgaxR6xgIiAYC8RFbFLP+AoB1d29/fH8+7zDnvoLzFGQff7B5+9ZXZvZm5mnpmnfJ/8/PzevXt37969e/fuwPAAMwhNjFiH/9fd19jY+MaNG0uWLOnatWu3bt2+/PLLJk2aQFy+TqfDhH34FdUKdF/hNEGJizIYOvDIkSPHjx+/ePGij4/P4MGDt23bhonX4FWwUKBJy8DAoEmTJvv27YuKilq6dGmDBg1WrFjRvn17ujCpnCW9uulvkfaA8HKX4zgQq1D5ixcvbtiwISMjY/ny5T4+PqCrNzExwb2mKIPfP8gIIfXq1QsMDFy2bFlUVBRtW60SmDIBjiwQ5A7bXohHKisre/z4caNGjWCla9q06YMHDwghjx49at68OcQNw6iCk/f8+fPPnTu3b98+MzOzu3fv+vr6AlkVy7ITJkwghOTm5trZ2SF1A6ybt27d6tKlC1Spffv2EMx3+/bt7t27w1aA4zgbG5t69epdv349Ozu7devWEDr1snahwQ/3pxKe/DIwMHDlypV16tQhhHAcB+xx1W16vwdAWYV9a29v36lTp8ePHyuVStBPKJXKS5cu/fLLLzNnziwoKDh69Ojp06fPnDnTuHFjDw8PHx+fTZs2wWiBN6AAwFMa0fPvo/kgOZ4qBAQzXYyjWK+NjIyaN2/erFmzYcOGwX/z8vKSkpISEhIWLVp09+5db2/vAQMGeHt729ra0mmMOT7R3suGIoRpZWRkMAyzYsWKZcuWHTp0KCUlBTadqK1BQuPqBvCxMKDSosDMwg1uUlLSkSNHTpw4oVQqBw8evHjxYm9vb1hV0LiOPwFw/qCeg/D2+LFjx44dO/bnn38eN25cy5Yt586d6+HhgRsUgftSdQN0C8uyIINhnWEYJiEh4ccff0xPT58zZ86BAwegMO1EhluZd1d3Ef8K/itQly5d6uXltWHDhoULF8KP/bIDHx0qDgYeU1NTGBnAkGVhYYEymOO4Bw8ewNBRKpW2tragN4YwO5icmzdvfvr06bJly9atW/fdd98tWLBg0qRJKpVq8eLFwJOVk5NjZ2fHcRwMVpZlS0pKli5dmpiY2KNHj7y8vIULF9aqVevTTz8dN27crVu3CCGenp4w+Xv16nX8+HEDA4NJkyahw0uV7aLXaLAtAW3s2rVry8rKli9fji421XP5q+kAyYSsudDbx48fhyNOQUHBgwcP0tPTr1+/fvz48adPn44YMSI+Pn7YsGFeXl7ff/+9tbU1etgR3nfPgM+TQ6pakXH7SBtZQI0MjDH4LAB1qgLyRUIIy7L29vbDhg0bOnQox3HFxcWHDh06e/bsvHnzevToMX78+OHDh1tYWMCz5JXbXJZlZTLZ9evXWZZNTU0dOXLkjh07rK2t8dxPj8BqaBwBt2HsWNzaHjt27NChQydPnqxXr16/fv2AYg9OeHAoJJQXMcszqeG/0LcOyT04jpszZ8706dOjoqJWrlxJCJk2bdq4ceMguJ8QgofjagU81OJWQ61Wb9u2LTIykuO4mTNn+vr6yuVy3KhhT+KzsF8RV6H3CVJcnsLDw7du3bpv375XyGAAS4XxQFQ7rJsw6DUaTYMGDcLCwgoLC+/du3fo0KGPPvooIyPjxYsX9erVMzQ0BD2zgYFBRETEvn37wAjH8JkNYfBdu3bt559/BnPvsWPHOnXqhI6FuJDBnZiYmBs3buh0uhYtWty8eZNhmLS0NFtbWzhzuLm5paSk5OXlubi46IccCEBvM2Hyb9myZc+ePVu3bgV1pYR3/6bVpCLeCNAHHsUhOh+wLGtjY9O5c2dnZ+f8/PzHjx8/f/582rRpRUVFv/7666RJk+zt7fG4SfjFmhZ1TFVp3iV8gmQEbDEFFSCVHW5B2LNUaBxqPuGFBgYGFhYWU6dO3blzZ3Fx8bx5844dO1a/fv0pU6ZAIu0qKyNAWloaIUSr1Wo0Gl9fX3t7excXl4KCAlqwkepqHMETcGZmZnh4+ODBg2vVqvXjjz+2bds2KSkpMTFxzZo1PXr0QFdwOBTCsxjvIOFpcRmK2g+FMeo2jIyMJk2adOHChbVr154/f97Ozu6TTz45fPgwGPv/Sle/ZYD0hevjx49PnjzZ0tLy5s2bwcHBSUlJfn5+kEcEdxuECipBcmxRBr9voB07b9++bW9vHxUVhXcweJyOc6cD0svLyxctWnT//n2O4/Ly8mbNmpWXl8dxHJDBgqwFijj8Rlgfg4KCCgoKBg4cCB+B1v/ChQuEEKlUGhwcHBgYGB4eHhoaSvg0I/D4wIEDCwoKdu/eDfNw8+bNn376aWxsLFYvPT19zJgxCoWC4zi1Wr169erIyEhBiD2A9jgFhZhWq0W6j6ioKOCbNTMz8/T0DA4OPnv2LJDb0Y8L3sZVxTGCF/qEJAKg2+eHAJoSQeDaikwOcB0eHt69e/euXbv+9NNPtDd79Qd6a2/evLlLly7du3ffvXs3/RNjJ9Dj0MLCAkY7iB9TU9OuXbvevn2b4z1padaL1wD9XQB4FThV0CNZQBWCrul069AzGT7euHHj22+/dXd3r1Wr1ujRoyMiImAyCt75T+pfJbRarUql2rZt25AhQ6ytrceNGxcWFpaXl4fTrcoZJ4CgzMv83gVlBP+lKTWw6+CmQqGIiIgYP368hYXFsGHDtm3bVlpa+ndbKuI9A+Go2ciy7NWrVxs0aLBlyxYcWBgZAuFDWJJ+C0oXwTIKvvgFBQWffPIJkKEDIGM2x3Hl5eWCIctVHvErV65MTU3FoaxUKqdPn56dnc1RdK90oAKuaBCsWVBQMGbMmDt37tBfwTAMCl36G/F7tVrttm3bGjRocPHiRY7jSkpK9u3bFxQU1K1bN0JInz59Fi5cePTo0aKiIv1ewoUJawXrJkZocNQyh0ubVqulV7f3WxIzlQmJcH0sLy/X/zm2b9/u6uo6atSoM2fOQAe+OpquegLbe/LkydGjR7u6ugLXMS2QcADk5OSAIVwqlRobG3fu3PnMmTP0NOEqhz/9LeCDOBoFr6JrQs9KenzCkIa0x9iEuLi4lStXdujQoVGjRlOmTImJiYH7WAZMUfBCeMMbB8Mw0Jzs7OywsLDx48fb2Nh07Nhx3rx5hw8fhnWD5bnb9J+lJyY9RAXXgtEreA+9oYQtY15e3sGDB7/44ouOHTtaWlqOGDEiMjIyNzdXf7kT8WGCCIZCRUXF48ePO3XqtGzZMixEDzv92UvLkioHaH5+/pw5cyCeGHDhwoU1a9YIZrvgI1QmMDAwPj4ev0ihUEybNg0kuv7wFcyu9PR0V1fX8PBweqevP4voj/DVK1eudHNzy8jIwCZD6xiGKS0tPXPmTEhIyIABA0xNTdu2bfvpp5+GhYVlZWWxPPQ7je49nKWvCG18j2fmy/oHN3kob6Kjo1u3bj169GiawxI6rWYdiPGkiAfZxMTEsWPHdujQ4dChQ/Q5EnDx4kUTExMTExMXF5d9+/ZhR+m3+vWEMU5hhmEE78QtDgaz0jIY9g30D6dWqw8fPjxx4kQnJ6fOnTsvWbIkOTlZsN0UnLlpAfwGxzn9KlxPoMI3btz47rvvvL2969atW79+/ZEjR65Zs+bw4cP37t3D7XiV79Fvr/5sxf7BHtPpdGlpadHR0UFBQWPHjq1fv76Dg8OQIUO+/vrrlJQUuoav0IqJ+KDwv0QIGH9JCGEYZvr06Tk5Od9++62rqyvHcWiapSNroTzt9gk2G/DVwngSVEdzvN8WIQTii2hfA/qdsCUXeKuyPO0lW5k1ieM4CORg+HhNQuXkIZSbAxRgK3vfoPMLIQSMjk5OTjt37qSDQ0hlHx/Y4BsZGaWmpsbHxycnJycmJlpbW/fo0cPDw6Nr164tWrSQVE73BBMPIyY5jkOXMY4idaqe1r43CBxjELpG96pKpTI1NeU47unTp4sXL87JyVm1alWfPn3Q05j9/yJuqyGgvejoy1IhNKdPnw4ODnZyclqzZk2jRo0IIbCUR0dHA1vIvHnzoCRHuWLhq17PTweHHD3SaL8zlmINg2LgJ0XPmufPn585c2bfvn1nzpzp06ePt7f3kCFDIK09vrOiogK8uxk+NSpESWCZN+5CxVI+K/R9SIEAhv8nT55cunTp5s2bN2/e/PPPP3NychwdHZs2berk5FS3bl0nJyd7e3sLCws7Oztra2tzc3NjY2MjIyN4Fr5Co9GUlZUplcqioiKVSpWfn5+ZmQl/Hz9+fPfu3fz8fGdnZ1dX1zZt2rRp06Zbt2716tVDnxLwcjegUm6TaulqJ+JtQgIyDIMBkHaA47jNmzcHBgYGBAR89tlnOH90Oh2GH8CzwL1nZGSEE08AmIdSnjcY5T2U15flhFpi1Go18CqgBIW6gRQnVY1gfBV+HZahC0P6YSwplUp//PHHJUuW/PTTT5MnT8ansCbgGQFu3tBMjN2CdfbmzZuXL18+f/48UP9ACGm/fv1atWpFTzkUKlVOPI5yjHyPIWgmxqsYGhr+8ssvCxcuXLNmzaeffkqvp/gIvR2s/qAFMDglYc1x1H311VerV6/+9NNP8Sn0EEaxzXEcw7N4YjH2teJiWYoWQyKRBAcHh4SE0N5Me/fuHT9+PE5bwk/hRYsWPX/+PCcn59atWwMHDhw4cODo0aMh+JDwwg/XEDpmSSqVXrlyBUIiLS0t6Q3omxrq9BECVxLofHqzi56AcFFRUfHixYtHjx49fPjw2bNnCoUiOzu7uLhYoVAUFBSUlpZWVFQAsShsQYAXyMzMzMrKytLS0tTUtE6dOlZWVvb29o0bN3ZycmrQoEHTpk3pVY7w9JMYDU8q56PjxByFIrjKilmBhuTOnTujR4/u3bt3bGwsqm4EikH4SOua4F/geqCvhNT3lkJlHWiBXmEtprVwMD3gcYHljFYO48tpRRDtZcYwzLlz53r27Onj4wPxmpyeAZImnNMnEaTbAjW8d+/ezp07Z8+e3bRpU3t7+8GDB69btw6162gtpjuHbvv7DbqNeA2//oQJEwYPHnzv3j3u5YbJGmc4R18EBI5PsGU+fPhw0KBBU6dOLSsrw5RTEJEPxQQUquhJ8HqjBa1I8DEkJAQcNbC2HG/3hWLx8fFLly51dXW1sbHp27fv0aNHQQfLUXOQfjPqhGk9bWJioqenJ1hn6cJvENCZr7AKwSIgsBxVOZ0FBJNVejOwlfNu4dJEO7gJ6oA9L1B9v0ZjRbxPIDh6cOLBHdrAc/DgwbZt2/r6+iYlJdF2Vk5vDKEwpg1LtP8RvbaylLcU93JiXrym5f3L9g1QN4HlFa8ZKp0ZCNpLly6NGTOmXbt20dHRguaguwdtS8Ov4Cp7XelvHfDm06dP9+/fv3DhQjc3NyMjI09Pz9DQ0D/++EOtVgs8s/S78b0E7QoH12q1Oj09vXPnzsuWLaM9gTUaDW7a6OHx2g5K7wTYTBiZOPgFP/2XX37ZpUuXBw8e6LsiI1Ae/5MdG05h6NuQkBBMaIFfferUKW9v708++aRu3brOzs69e/cOCgoihMhkMohwhaAGQsjs2bOVSmVJScmsWbOCg4PhkBcaGgpflJaW5ubmJpFIAgMDBwwYUFxc/C9tNOkhQTup6Bt3abc4vMCZWOV85F4pLOnVBh1Q6G9HP039CosyWAQHntKsnsM9ghY8v/76a9OmTYcPHx4bG0sfYji9wUSvmHiHq8oVAlcEeuDivwQn1ypfiBtw/YVJP3soR23V4+LiRo4c6erqunnzZvo+V3m3i6ue4AIrrO9Zxup5dmDT1Gp1dHT0kiVL+vbtSwhxd3dftGjRwYMHc3Nzucq+mu8xBINHrVbfunXLxcUFfghOb7SgGKvOfP0vA11b/YVesLHbunVr/fr1r169imdNrvK4etnF3wV9hgOlNHx89uzZ1q1bhw8fbmxs3Lp160mTJqWmpoaEhICUCgoKioiI0Gg09+/f9/LyunPnjkqlmjlzZnBwsFqtnjFjhr+/f2lpaWJiYvv27f/888+ioqIBAwaEhYWxLLtq1SovL6+cnBz6x32zIpleUmAC0guRvkICL6rs2Cr7Vn+prPK3qFKzJVg39N8g4oMF+f+LVEZYWFinTp169OixefPmsrKyV8TOwlD+Nza/9ASjh/vL4g3oYiUlJdu2bevUqVPPnj13795NK7lREDIAACAASURBVAD+VejrwcrKyhISElavXu3p6WllZdWmTZvZs2fv2bPn2bNnghmrL9fpBgqWdewWvCOoxjuf9rj3guvr1687OTn99ttvHN8W+qBADyFaEyt4SZXbwZqIiIgIR0fH27dv02oqTm/bR49YlgrbpZ2E6WKo66bLAwICAmgDs729/erVqwsLC7Va7YIFCwYOHAi+DgzDhISEREVFMQwTFhY2e/ZsUJtfuHBh+vTpCoVi9uzZYWFhHMfl5OSMGzfu/v37aWlpY8eOhS1mRkbGiBEjFAqFqI8VIUKAv+3fMWHChEuXLgUHB6ekpNjb2/v5+R07doxlWcKzucIkR34i8Mxi+QTm8BJUgNMmarzgKidm0b+DtEeETxkLqwz4hrCVM8LCI1Kp9MSJE76+vnXq1Ll48eL69evj4uL8/PyAS+8tsNJgK7BuwMmwfPnyEydOFBYWbt++vVmzZjExMV27dm3UqNHUqVN/+eWXtLQ0cA9BVndCiEajIbyzEsMnbIH7UIzj+SCJXrpl2kX8XYHjOJZlwSseAru//vrrsWPHajQamvge1mhoOzQZeYnhcAYl1Wo1lGF4Bq4aDV9f37Vr1w4bNgyaDIMTsozArwyDXD97PPgBoXsUdAU8C70NDmIMxcd06tSpJUuWbN++3dzc/PPPPz9x4gTHcVlZWcuXL7eyspLJZKNHj65fv3779u1ZloVuV6lUMMY2b94MCSI/+uij58+fl5SUSKVSyN0il8vBMFxcXFxSUgI1rKiosLKygjoQQqBW78HvJULEP8ffdjeFCd+3b98+ffr8+OOP0dHR27dv9/X19fb2Hjp0qLe3t6WlJUgCrVYLyR5wyUAvQQxUYKnoCLoM0aOlRcDqTHjuQHgDfhEGLBFC1Gp1WVnZ0aNHT548eeLEiZ49e44ZM2br1q3m5ub0O9+Ozy2dso3jOPAtxwAtjUbTpUuXLl26VFRUGBkZ3bt3Lykp6dy5c9988w3Hca1aterVq1e/fv06dOhACAGHbdq/HXoYuD+B/RFWXqaqAK13C7ayR+vkyZP9/PwmTZqE4WEgYk1MTMBZHcoDxT/LB6ph3Bc+Rapr4r+/C61WO2XKFIVCMXLkyJiYGJpsGX9Q/Cnxl8VdGrJ4wjYFM0AwfFoenU53/PjxY8eOHTlypHHjxgMGDBg6dKizs/OSJUsEoURZWVnbt29v1arV8ePHx4wZo9FoTExMMDQgODgYmJxZnhcadgxYValUamZmVqtWLZxfKpUKdgMSiUSkYxQhAvG3T8P0ym5ubj5mzJiIiIisrKyhQ4cePnwY8rkuXbr04MGDpaWluA2HZ3ELjEdhOMvSEkJwbuN4PSqhgh9grYHVHEM4MLRUoVCAS5SHh0ezZs1Onz49cODAhw8fHj16dMqUKSiDOY5j+AQA/7wf/yIkfAIrEJZwvoF9CVwbGxtLpdIWLVpMnTo1LCzs3r17Z8+enThxYnp6+uTJky0sLPr167du3brY2Fia457wuxPMRItLNsOT9BI+Ox78fWtNFgB2IVDtjRs3yuXyr776ivDbFIgKg9SqDBUwQ6hdFyTKJFSgOWhiydv9Kf8lgHxasGCBhYXFmjVr8D49VvFQS6hfFq6hZ1iWxUzM8Ivn5+fv2LFj2LBhxsbGW7du7d69O6SGDAkJcXR0hLhhNFjApmfbtm2zZs2aMWNGUlJSeno6HKxhlrm5uZ0/f/7Bgwccx61du3bmzJmQhQW2UECFLZfL69WrZ21tffToUULIwYMHCwsLdXyKaBz5b7d3RYiolng9XbbAoZ824F28ePHrr78eNmyYo6NjvXr1fHx8AgICDh069ODBA6YyawyrFxjwV2xF8F3wIFzfuXNn//79QUFBPj4+zs7OtWvXHjVq1Lp1665evYqP0OZVffvoW7AN01bzV5cUuGfTjJu5ublHjhxZsmRJp06dCCG9e/f+6quvYmJiCgsLWd5VTRBIRqOamOKghi9evDAzM8vIyNDpdNBkrDnth0+buvUJmDCurDrYvN8I0Inh4cOHcrn88ePHHBUdgKFuHEW4TT/LVXZku3r16tdff92jRw8rKysfHx9Iv81xHJh1wfcN6N8JpRZatWpVWFjYmjVr4OvS09PHjx+fm5sbFhZGCNm9ezfHe0pLJJL+/fvn5uaWl5dPnz49OTmZ4ziFQjF+/HiIOrt9+zaM1W+//dbf3x8G6vsdCCBCxN/FfzmtXkN4g22S5gEglZN96nS6rKyslJSUtLS0K1eu3LhxIzs7u3bt2q1bt65bt27dunVr165dr1692rVrm5ubm5mZWVpampub42GXEMIwTHl5eXl5uUajUSgURUVFubm5+fn5ubm5z549e/DgQVZWVkZGRrNmzZo3b966deu2bdt27NixYcOGbOUEagiBDpzjE26/Rg+8Nlg+YSIqV2leJGg+di9t5EYrKTyl1WoTEhLi4uISEhJSU1NbtmzZu3fvHj16dOvWrW7dusiLxFHMZfAqOIi8K60gNtbf39/R0RHCYAiv20SlPa0ggUeANYXjGWNIZQ4Ewp+zq4nu/Z8AWxEcHJyXl/fjjz/S/2UY5ocffnB0dBw3bhzNRQNDHTonJibm9OnT0dHRMpnM09Nz5MiR7u7u+jRehMo8j9OZ7lUoifNIMOtJZU4VeBbHG/6adLtwfeA+DJoaESL+Cl5HDLMUs4+ACkegSBRMNpZlnz17dufOnRcvXmRmZubm5r548SIvL6+srKy0tLSwsLCkpITjz7uEEJlMZmxsbGJiYmRkZGNjY21t7eDgULt27dq1azs7OwNtTZMmTdBACLIHlgBBbWGBoKvN8ByWb20toLm0sGKo6BNUT/As/kx0h9MkQYmJiYmJifHx8deuXTMzM+vdu3fv3r07d+7crFkzeBCN9O9cVnEcp1Qq7e3tc3Nzrays7ty54+Pjk5aWBiPH09Nz165d9vb2dOuw2snJyT179oTeGDBgwIEDBwwNDQWbrRoNeljm5eU5OTllZWXZ2dnBz8cwzJEjR0aOHNm/f/9Tp04xPJ+rRCKpqKg4fvz4iRMnDhw40KpVK09Pz6FDh4J3FVeZ1AlMvzg3GYp1jtVL9EvXh+HTfYInNvgiyGQyeK1geBNKbEsqp2d+D0z4IkS8Sfzd4zOq/vTzBQn0rvra1yqjaQWvfT2wLyGmYStH77BUINA/4SF6PWC4CLJ8sJUDZOlq0xFHgubQb9NvtU6nu379+k8//QS08s7OzmPGjNm8eTMkY+beNfcFVHLHjh3jxo0Dy8L9+/eXLl0KatKcnJzp06cXFRWhGpZu8p07d7777js6QAuLvWzI1VCgYnnChAm7du2CmzqdLiwsDIhUN27cCI19/vz55s2bhw0bRgjx8vL66aefHj9+LOg3/KgfsozFBFFhgserLIkXNAuN4LX02zCqSj/CUISIDxl/20ULt7S488WNLV6g85Tg2VekLviH5zP6CE6/DYOa6I/oJ1VlJf89YOpy+GpUOGNP0tXGitGdRveSfidju9q1azd37tzffvvtyZMnsbGxQ4cOTU5O9vHxqVu37sCBA7ds2YIUSIR3qSW8shp9fziOY3mufAD6ygHokniNBegLjopGg0qC3xz42WGQK3YOWAoqKipmz54NqvXExERCyL179xo3btyxY0eJRDJw4MC8vDxwAJwxYwaw9fr7+5eXl2dkZLRu3Rr6bcCAAUqlkuO4kJCQixcvMgxTVFTk7e0dHx8fFhYm4SGVSufNm3fmzJnVq1djbbFRcHHhwgUoHBkZCW2JjIyEOx07drx79y4hpKysbO7cuRKJBOqTnJxMCCkvL58xYwb4EkINQ0JCoEVlZWX+/v4pKSmBgYGRkZHwRXv37g0PD4ev7tevX2xsLHTmtm3bZs+eXVFRYWtra2JismbNmp49e7Zr1y42Nnby5MkKheLEiRNz586tX7++wDEeP9JnUByN9EcsI3i8ypJ4AV5XVb6WfhuMc5oWWzwTixBBXsNTWkTNQsOGDceOHbt79+579+5dunRp5syZaWlpX3zxhampqaenZ0BAwPnz5xmGQa9j0F5isDJHuePBAspxHAawoq2dTngFnGhSqbSsrIzw2wh4BFSUhJDr16+3b98eDkNyudze3t7U1JTlk2KBjfzbb79lGKasrCw+Pn7BggXXr1+/ffv2jz/+eObMGY7jpkyZsnLlSq1WGxQU1LhxY5Zls7KycnNzr127ptVqhw0bBqmsJ02a9MMPPxA+usnAwODIkSMnTpwwNjaGKKm9e/cGBgayLPvdd9+heRW6DoQE5OfJy8v74Ycf7t+/r1AoYmNji4qKLly4sHv37pycHI7jhgwZsm/fPnjEzMzs7t27wDkFr/r666/BdJKbm/v8+fPExESUW+AKoFKpBg4ceO7cOXCGuH79eo8ePaAOHTt2vHLlCiHk22+/Xbx4cWlpKSGkvLw8ODhYoVAEBwfn5+dHRUUNHTrU0tKS5SOt3+L4EiFCxD9FzUhTI+K1gXFNhBAnJ6cRI0aMHDmSZVmlUnn+/PmUlJTQ0NC+ffv26NHD3d29R48eXbt2tbe3h/BQjUZjbGyM0clIyQLG7IqKCjqyCHK3MQyDllozMzPCizFMKgXBNo8ePWrdujWIohcvXlRUVMAjYDWUyWSlpaX379+fO3euXC7v3r1769atMzIyCCFTpkwBQ2mfPn0OHTqUkZEB2YE4jrO1tbW3twdLJKQckMvlBgYGcDqEPURGRsbt27cXLVoEhN5wmIaag40Z/OY4yq8N0nHWrl173759cJguLi7OzMx0d3c/efIkVLtJkyYPHjwghOh0OlNTUwcHB+gTiUSiVquDgoJgj2Jqaurs7Gxubq7VatFbGO67uLgQQlQqVV5eHsuyDRo0IIRoNJqmTZs+fPhw3Lhxp06dgl4yNDRUqVSEkNGjR3fv3p1Q+hWAKIlFiKhZEE/D7zn0dcuEEKlUam1tPWzYsNWrV8fExHAcFxQUZGVl9dNPP7m6unbo0GHWrFkHDx4EkUD43MD4HiCuAhmMvq/goQMyGFmugFNJJpOVl5fTqnU4MYOZ8PHjx+jcDiGnRkZGOp0uJydHrVaDAtPJyam8vJxl2fr16xNCDA0Nra2tGzZsKJFI7t2717FjRwjF3rlzJyixT506ZWFhYWBgEBYWNnjwYIhwk0gk4eHhgwcPtrW1JbyvuEwmg4SyoBIIDAwEme3v719SUkLLM47j9u/fb2dnN3bs2JYtW5aVlc2ZMwdk7dSpUyHdNcMwYLsFfTu8PD09vUOHDjKZzNLScsuWLYSQBg0aJCUlwYYGwrQcHBycnJxu3ryZkpLi5uYG3SiXy42NjWG7Y2Njo9PpzMzMoNtVKpWnp+fVq1dZHhzlxPevjCQRIkT8OxDF8HsO+qiEZmY4h2k0GpAEDMP069dv2bJlp0+fLiws/PXXX5s0abJ7924PD48mTZpMnjw5MjLy7t276E8LIS6EEBCToEOGhMGEZ/WCjxh4hhng4VSN7CIGBgaPHj1ycXEBcWtsbCyXy4FuqXHjxqAAl0gkhYWFUqm0UaNGT548AalTUlLy8OFDtVr93XffLVq0iGVZhUIxZ84cYPQcOHCgSqViGGbJkiUBAQGg7r5161ZFRUXnzp05jjM2NkY9uUqlgjOxVCpdtWoVdE6DBg2AdwJV5TqdbsyYMaWlpTExMUlJSYcPH0ar9vbt26FpOTk5MpmsVq1ahFeDq9XqjRs3LlmyRKvVgiWYYZjRo0c/fPgQ2MF27doFm5K+ffv+8ccfN27c6N69OwTXEkKUSqWlpeX27dsfPnzIMExKSsrOnTtXrlzp7e0tk8kiIiKkPGjp+w7pWUSIEPF3IYrh9xxIWMbxTqqE99mhaSAJxXHWvn37BQsWHD169MGDB8ePH+/cufPp06c9PT3r1as3duzYn3/++cqVK/AqYA8GozKh2Bbho4GBwfbt2zGCmfCmUI1G4+rqCkI0Ly8vMzOzSZMmhBCNRoN1MDMzs7GxiYyMZFkWArHc3Ny6d+9+4sSJ/Px8qVR64sSJ9u3bQzgWKJAfPXr0008/gQ4ZmswwjKmpaUVFBRzf/f39Bw0aZGJiotVqy8vLkYELNg1c5ahW2GEgB/KtW7eCgoLUajVkuYdmSqXSkpKSoqKiiIgIjuOMjIwOHDjQvXt3jAuC9wNplIGBQXJy8o4dO9Rqtamp6bZt23Q6XWlp6WeffQYxPy1btrx27VpxcbGDg4NEIoEDcXZ2toODAzJCt2zZctSoUUFBQceOHcvNzd24caPAaY5568RwIkSI+Kd4s47XIqonBPEnDMOALhSjRzCZ4CtIzZ4+fbpt2zZ/f//27dtbW1sPGjRozZo1ycnJYObEREAY33LgwAEDA4M5c+bQTE9w7evr++uvv2ZmZnp5ecFJGkzCsD+YO3euUqmsqKiYOXMmIcTIyOj8+fPw2ri4OBi3Xl5ekK4nKSkJ7qxevTo4ODgsLCwtLa1ly5ZGRkYg+5OSkjiOCwoKCg4OhjqEhoYmJCRAJffu3bt27Vpowvnz5yU83fGsWbMghgrju5BpBPL6KRSKAQMGEEIGDRp05MiRWbNmbd26lfDqaEKIXC5v167d/fv3z507BwfWFStWrF69+rffflOr1eCeplKppk6diq1btWpVREQEwyep1el0O3fu9PX15SpHB/2/P/d7E7glQsSHAFEMv+egY47ZymlQ9Rd0OqCZflAQYw2GWyDu7tKlCyGkb9++q1atOnz4MFhw8YWmpqaWlpYDBgwAKjS8v2XLlvHjxyuVymnTpikUCiAihn+dO3du1qxZFRUVgiSGguBvjkrnJwh1hVeBGKPbJfjIUNms6TrTIcv0V1eZWJqjKDbDw8PDw8Ox60pLSxctWpSWlsZVFbCr3+c5OTnjx4+/e/cuXZ9x48bt2LFD/1kx4laEiPcGolL67UGr1YaGhoIZD/4aGBjs3buXUFG2uM4GBwdHRUWxVaVhENzBABvC6zYSEhIGDRqUl5dHKscio8Mw3NFn8aQDmukHBTHWBgYG9vb2Pj4+33zzTUpKSnFx8cKFCwkh69evt7W17dmz52effRYdHZ2bm9uxY8fS0tK4uLg2bdo8ffoUaz5u3Ljff/89MzMTo6SQFRUrQztXE73gb6gGHQ6L96FdSImKBQQf4YX6YbKgq8fuEpSkL+ApOl0YMDhioC0EEAsc3Dgqiprlma3S09M//vhjLy+v5s2bc7yftkKhiIqK8vX1Zah8nYI6iBAhoqbjNTmlRfxdwIIbGhrKcdzSpUsx/RxmDYLFGkl9g4ODmzVrNnbsWEllTml4G8eTCxI+wR98BL1uYmJiaGjonj177Ozs/m2/WWgX0hOWl5dfvXr1woULYNBlWba0tBQ8n83MzA4ePNi3b1+o0meffWZra/vVV1+BlzI6c0GEFXhm1bh0eBwfLIQZJ2mmVZrVmdMjx6bJIKFMYGBgSUnJunXralw/iBAh4q9DPA2/JaA0Zah0uSByLl++7O/vz3GcVCoNCwtbu3btnj17AgMDfX19IyIitFrtpUuXIBZo9uzZpaWlarV69uzZa9euhXiYVatWwbkwMzPTzc1NIpHExcXBy99C7ApuI+BsZ2Ji0qNHj8WLFx88eDA+Ph68kUF7XFJSMnDgwO+++w52DwsWLFi3bt2LFy8If7YDGQyHe0zG/G/X/w0CKRsZhsEjMlzAz0EX5jgOGgjuY1qtViaTQUAwIUStVj9//nzDhg1z5841NDSE9IUiRIh4LyGK4bcEOlYHJI2ET0TTvn37Pn36REVFFRQUPHz4cMGCBZMmTQoKCoqIiJgwYcKTJ0+WL1/+4MEDpVLJsuyPP/4I7sSPHj1SqVTnz58/dOjQo0ePCgsLp06dOn/+fHgnhMm+HTEmYMgihEilUqVSOWDAAIi6sbCwMDExMTMza9OmTbNmzaD5Li4uq1atWrBgAZqrkcYSJDrEQb2F+r8RoLrC0NAQJC6ETqFZAUPF6L0RRH8RQmBUAJUYIcTExGT+/PkrVqxo3LgxofTeIkSIeP9QY5a5mg5wBuY4bsWKFaamprBkt2zZ8v79+3K5fNiwYX/++efYsWO9vLzAxReyrHMcl5qa6uLiUr9+fWNj408++eTJkyfl5eXGxsYeHh4mJiZNmzZt1apVSUlJXl6es7PzqFGjdDqdj49P7dq1QQy8haYhbRbyCTMM4+HhoVAoHB0dBw8evHbt2gsXLpSWll67dq1///5QnmXZxYsXsyy7ceNG2srL8ayZNUsTC00AJ2dCGbnpoF7YbWDsFiFEJpOBqoBU5j9fvXq1Vqtdvnw5OK+9ozaJECHibUAks3xL4DgOlK7BwcFgG+b4NHCEEGNj44EDByqVyjZt2sByrFarDQ0N4XrHjh3bt28nhEil0kGDBqlUqvLycqA/hDJmZmbAV6xSqczMzEDhiXlk/+2mgR0Xgl/hxG9gYPDTTz/Vr18fAoIB0CKQwWq1GnYbmzZt8vT0tLW1nTp1KuEJRqDadBK9GgEw6KJ/FljEwVpPCIHthYRK5QtsmmAaJ/wWRKfTHThwICwsDAKx3nIybBEiRLx91Jg1rqYD/I1BRYkszSC0NBpNfn7+gQMHWrRosX//fgmVWR3KQ+4BWKMPHjxYp04dkLVghgTWCzs7OxsbG3DyYlm2uLiYvBU2JSCZAg5qMBKDpPn444+bNGkCRk3YgsjlcqgbIUQulwPfspOT0549e1atWnXgwAFsMkhiIyOjmiiD6aMtKNgB6HwOH8E/i6M4Q8COcOzYsfnz5+/bt8/CwgJfTjvDixAh4j1DjVnm3g+ALRAkFqbZMTAw2Llz55gxY6ZNm3bv3r1bt26BJhOIk7p27ZqUlASZA0JCQubPn19SUlJSUgL5EgghhoaGUqm0bt26tWvXPn36tEajOXjwoEajQXn/rwIlJW4dQGbADoBOL094z3AoD4KZYZi2bdseO3ZswYIF27Ztg5eAQCKV45eqOXCHQXcISl/USYDWGrhKIPYXvKYJITKZbMuWLZ9++unJkyfbtm2LLl0wVN5Fm0SIEPE2IIrhtwc4OAYGBspkMhMTEzgfh4SE7N27V6vVuru7m5mZTZ48efXq1Xl5eS4uLn5+fpGRkc2aNQsMDGzWrJlEIrl48WJoaKi5uTloazmepRJclOfPn79hwwa5XG5hYeHs7PyWW4eiAsN24SMdgEt7C+MWBBIknzlzZteuXcuXL4c3MHzaREIF2uKhEO2vgmDcdyu2BWd3+nCMFcMgbNhw0BuXpUuX/vrrr+fPn2/Tpg2hWl2D9iIiRIh4DYhxw28VcEKiUyyAXw8dsYPHSrwPelp8hFCxpyio6Pcgj0QNUuoSQjQajb+//4sXLzZv3ty4cWNBt0AkLqFii/HETHdpNQTmcqbPxPQB9+HDh/7+/nXr1t2+fTvY9fEpQqkZRIgQ8V5CnN5vCSgtICwHb9IXEDULjk6EPy/CU1AAVJpoZsYDMS2DCS+qa9zabWRktGPHjlGjRnXs2PE///kPzVVC+KAdyJTA8IBOAIN0tfUopglYkFoLGqXVan/44YcOHTqMHz9++/bt6B9OxxlX2+2FCBEi3ghq2Epdc4F+0WjqA8FJH2FJZY1ueXk54T25QEKDChc8s/ApcPkBwQzmRpT0NUjVwfIZc/39/a9cuZKQkNCrV6+EhARwNkYRi6pssKzjRoRU120Hx3Hgv4ZnXPS2S0hIGDhwYFxc3I0bNyZPnkx4AzPoqGk9x7ttgggRIv5ViErptwf6jEuTU9IshnAfD0P0GRfoLDC6FOU6ih98D624rnGL+H+5zqXSyMjINWvWtG7d+vPPP+/atSuyZqIqnvD9oNVq4axcDfW3tGodrcVXr1797rvvbt26FRAQ4OPjQyqLW7wWMJiKECHivYQoht8SwPsXM/vSZMJQgOYfJnzSeCym0WgwDhg9cjGVL1AhwoVOpzMxMaH9k2sKIMUvJC1G8bN9+/b169d36NBh5syZH330EW1ShWguuifpXUv1AW3MPnny5K5du65fvz5//vw5c+ag1R+2UBUVFcbGxvggbf8WhbEIEe8rRDH8lqDPYohHXpVKZWpqCvdBQqNYpR+ElRolDbgs4X9puQsla9baLfAvIzzdB9BchIWF7d69W61WT5w48ZNPPoEdiX5vvOM2vBxKpTIqKmr79u1yuXzatGl+fn76+gx0rCO8ezk+XrN+ShEiRPwtiGL4rUJwSKVlDxyFaYUkpk7CRZleqel1mXauBs0nZvipKcs3vU2BysNmgj4Rnjt3Ljw8fN++fT4+PqNHj+7Xrx9qCARO5tUHR44c2b9//7Fjx4YPH+7n59enTx9654RZMfQ10gBRLy1CxHsPUQyLqNZAQg+km1YqldHR0b/99ltKSsqgQYO8vLy8vLxsbW3RNI4nY/qgibKNFnICmQdsX3DIrtKsTktQmhgLAbuB7Ozs2NjY48ePnzx5smvXrmPGjBk+fLiVlVU13CWIqHHAUYReFITa0uEsoD1OEPpmDv23VYdRiucT/VbQJxl9B0a08lTp20j3GKk8i+lWv+ywhOoreERwn/wDrZUohkVUa8AQxwkAOgNQ3RcUFBw9ejQ2NjY6Orpt27adO3f28PBwd3e3t7fH+Ybmc8E7BSHX9MEU2SXJy8Wt4FUSiSQ7Ozs5OTk1NfXEiROFhYU9e/b09PQcMmSInZ0d4Sc2Tu+aZbMX8Q4BowsiBUAgoSRAqanVakEtBJtIgRoJHQ4wfh2CNWiXBYFoeYc+FrgDFvhJECrug94KQw9gGOdf/xZCsQnpC1TBfdzH668ksML8w42LKIZF1ADgphj3m+jmBvM2MTHx0qVLFy5ciI+Pt7Cw6NixY4cOHZo0aeLm5kanl9AHPfFoxgyBsBQYC7Ra7cOHD9PS0u7cuZOamnrr1q2ysrJu3bq5u7v369evefPmwLMNQp1UWQziWwAAIABJREFUpg8TIeJvQa1WYxIzgZzAEYtCC4YcGjJeVp5QFi4Q87QC6d0eiOmtM+5CMBcOlBHIUQTHg/4XvQmmee9J5XldpQJM0BXQXbiVoesD3iqv12RRDIuo1sANKbqtvWwGoqh+8ODBjRs3rl+/fvfu3WvXrj179szJyal58+YODg4uLi5169a1tbW1tra2tbW1sLCwsLCQy+VGRkaYz4pl2fLycpVKVVpaqlQqlUplUVFRdnb2s2fP8vLynj17lpaWlpubW6dOnTZt2rRu3bpTp05t2rRp2LAhODwLJjnhd9C0U54IEX8X6LEIYeV0Yi5asYwpQwjFGAPXIIA1Gg0UgPA/HJAo7N9tuAE9g2hTlIApgT7I/sOwTIECjL5Pa8LQ1CUIb6E55F9b0SWKYRHVHbRFVn9rD8sKrVgmlSezVqt9/vz5/fv3c3JyHj9+/OLFC4VCUVhYqFAoSkpKlEqlSqWC2CfY0hoYGMjlcjMzM3NzcysrKwsLCysrK0dHR2dn59q1azdu3NjZ2RnSP5PKeYWRZQXIovGAItgpv2zaixChDxhUAQEBoaGhIJNAoO7Zs2fcuHGECqCA+19//bWjoyOkDUVU6ZNP219hsiQlJQUEBOzfv9/CwuKdj0+cPnQgCQLZfliWffHixf379x89epSVlZWTk5OVlVVQUFBYWFheXg5ZcIAHCSCRSExMTMzMzExNTc3MzOzs7OrUqWNjY+Pk5FS7du1GjRo1adLEyckJc6KDbgAFv/5hAG0B5B/sYMTMLSKqO/RTRYEAhk09ndYXucaQxgToq1xcXBo2bEgo8xJtZ4JJxbJs//79ly1b5unpiQZjrjItqL7lmFZYgVENv9rY2BjeQ89MZN/8d7pKxPsGGGAymSw4OHj58uW0GhkKwFjCQaXVatESDMIVxySYkAmvnsFBSCdlAfL2dzg+ca+AZ3dTU9OKigpIe6rVajMyMv7888/bt2/fuHEjPT39/v37devWbdq0acOGDR0dHdu2bevp6WljY2Nra2tsbFyrVq1atWqZmJjQ76+oqFCpVCqVqqSkJD8/Pycnp7Cw8MWLFzdv3jxw4MDdu3cVCoW9vX2nTp1atWrl6ur60Ucf2dnZgdaBo+IyUNcFKgrMmPcaEMWwiGoN5P5k+VTNEokEPE2QlAqPyLRfJSiR0N9E4P1IP2LAw93dPSkpydPTE90xBComkKnoG4KiGs4WKHFBWmNkMDxL69KrgzOqiBoBsNpKpVIc2LDoGxkZJScnb9++fdOmTYSQ6OjojIyM+vXrr1q1Cs5nEyZMSElJ6d69OyFk9uzZGzduJITMmTPH0dExKCiIZdmAgAC4ePDgwejRo2/evBkcHAz8Oe8wCh81WCCGoRq3b9+Oi4uLj4+/du2aqalp69at27Vr5+fn16xZs5YtW+q/RN9NGm3GUqnUxMTExMQEfCfpArjDZln20aNHV65cuXv3bnR09JdffqlWq93d3d3d3T08PDp27Ijmc3wnSuLXa7UohkVUa4C4gnUBY6NhB4rCTD+2gWVZOh2Tvp8Foc4ZqN36+OOPAwICAgMD6cIC/0wU/7TbM8dzeuMxGqqEunRS2ZgtymARfxGg7MEsJoSfCwzDdO/e/eHDhwcPHvTy8kpPT1+4cKGZmdnjx4+bNm06ZsyY9PT0lStXpqen16lTZ8GCBd98883ixYt1Ot3z589VKtWVK1fmzZvn6+vr5OTk7++/bNmycePGBQUF4Ze+q/bClDE0NCwqKjp06NCpU6diYmKaNGnSq1evqVOn7tixw8HBQf8pwSTF6UnfEXhc6u/LcYdNCGnUqFHjxo0JP9/z8/NjY2MvX748a9asR48eQZBknz59nJycMIf6P5nU4nIgogaAXhcwPEAw+umtKN5ElR39Nti94kfwe5RKpT179kxMTBR4S0h4CN5M35TwRN94of+G12v4hwDQc7yiAC6OeFHlv172oP6/9G0T1RkwXENCQmAgmZqadujQ4dGjRzqdbtiwYbdv3/bx8RkwYADoouFYJpVKr1271rx5c3t7ezMzsylTpmRmZpaWlkql0l69esnl8ubNmzdr1kwqlWZnZzs6Ovbr14/jOF9fX1tbW41G8wYrjz0Ms4y+CXp1lkrIzXGcSqXatm2bt7d348aNY2NjBwwYkJGRkZSUtGHDhlGjRlUpg4neJK3yzqvL433obcHUtrOzGz169Nq1ay9fvnzjxo0hQ4b88ccfLVu2HDJkSFhYWElJCTaKNlrrNxOB7YWPohgW8aED5DrDMHK5vHfv3jExMe+6Rh8QBBGfoBsUrNe4YmK8rE6n0+l0tG8qKh7gcfpB2q8V76NHHtYEdLlvreF/HaD8XLFiBdS/oqIiNTW1SZMmMpnM3Nzc29u7UaNG7dq1A30MwzAmJiYMw2i12k2bNllaWhoYGPTo0ePevXvQ2IYNG8IFkLfn5+cXFRWhxkij0RgbG79BSQxmI0hLI+VTs0D/g9oZ9qwSiSQ+Pn7GjBn29vYJCQn+/v7Z2dm7du2aMmWKqanpO7RVgxmejgGrV6/eqFGjwsPDi4qKPvnkk7Nnz9atW3fSpEkpKSmoKiO80o7lU6tJ+Sw+6G6iVqv/t7l/V80TIaJaAeZJjx49kpOT33VdPiBwFAMRXMN6rdVqaUc59FaFBVEmk8lkMjTOEUpg06cZPJfA8of30SGA1ltI/g7/w1sDnKVgj8hxnFqtlslkGPubm5sbHh7esmXLgwcPggwwNDQsLy8HU0tAQAA8wnFcbGyshYUFvA16SaPRSCQSOzs7c3NzaHtFRQVw0b9BpTQKYPhIJ46rqKiA64iIiB49enzxxRddunTJzc3dtWvX0KFDITrrzVbm9YDjhONpAKCXOI4bMWJEeHj4s2fP3N3dFy5c2LNnz127dkEnw2+E4w12eJiAhxAil8tx2yeKYREfOmAywITx8PCIj49/1zX6gEAHg9JKQgxCQ9mMCn8Qq/irSSozF6LMxpvg3yThWRcIv4zC2ZE+fFdDwGoul8srKiqkUqlcLler1fjfX375ZcKECfPmzbty5Up6ejqhTvxdu3a9fPnynTt3CCGrVq3y9/eHyGPoH9iXyGSy+vXr165d+9ixY4SQ33//vbCwkOhpUP9h/cH1GjYEhCfQgGP3li1bYA+xbt26q1evTps2zdTUVGD3YRjmzerJ/y7QJYXww0+j0aBihhBiaWk5Y8aMpKSkNWvWnD59ukOHDlu3biX8b0E7UaOEFviLiGJYxIcOmAywNx8wYEBCQgK90ol4C8B4G9AMo5yQUGktUMCAWKX12IQQeIqW2fqWP/pYBtdw0MFo2mpoKoauUKvVQUFB0C5jY2OIX4qMjGQYxt3dXSaTzZo1KyAgoLCwsH79+lOnTo2MjGzWrNmXX37Ztm1bExOTy5cvgxc0dB2+B9yw586du27dOqlUamNj06hRozc7+DF5q06ng3Ap6O0TJ0506tTp7Nmz4eHhERER3bp1I5Q7FYgrTA77Dg/EqGvBM7FEIjEyMsIDMewSoEs/+uij8PDwnTt3xsXFtWvX7siRI6C5YRgGSFcgex4hBJ76nx9ZNRx5IkS8TbB83mJYyj09PZctW9a/f/93Xa8PBTStBKkcpY36an03VIErbJX/ov8rKK//sfq70WElaU5KuuZAeQF6YJpnimEYmqtSkDIVAP+i3/zGq11RUSGXy9PT01esWJGVlRUQENC3b19BXB8aF9CEjMLvzdbqr1ceLnAoYgglVxUpCj519uzZkJCQOnXqrFq1ytXVlVAu7lI92i9RDIv40AHzB8n8AgMDJRLJqlWr3nW9PhSwejzhdKZLQohKpcrJycnIyMjIyMjMzFQoFJmZmfn5+cXFxcCDVlpaSp8tDA0NjY2NTUxMDA0NbW1trays7Hk4Ozu7uLg4ODi0aNECDX4cT8PyT0I//1WwPJUxfBSQN9HbF5qyjeZfpAuDqxToV+lEDlqtFk9vb9BMDuQbUMOff/55xYoVAQEBn3/+ORYAeUZTZ9M8X9VhhwQdSGtT6F3LK7KRbtq0admyZRs2bJgxYwZugKBFYJv/rwlZFMMiRNBT/eTJk2vXrhUtxG8NNF0wLFVPnz69dOlSWlrajRs3bt++/eLFCzs7u7Zt29rb27u4uNja2gL1oIWFRa1atSwsLMzMzEBNjU6qwAqu0WgUCoVSqczLy8vLy8vJyXn27NnDhw9zcnLu3r3bqFGj1q1bt2rVys3NrUOHDs7OztVTBgNwu0DLSNw36OsGQAZzlVkpCO+jK5fLBXH2tBr/DUo+FKUMw0ybNk2hUGzYsKFFixak8mkS2TAIdRR+tTrk7QCrBB8FtDyCozDaR+gdz4MHD+bOnVunTp2tW7eifl4w0kQxLEJEpUQr4JVaVlZmampK66Cq7VGpuuFlayh0oEDzTPiV+sqVK2fPnk1KSrp8+bKhoWHnzp1btWoFYhIiXN94yoG7d+/eunXrwYMHV65cSU1NNTAwaNOmjYeHR+/evTt37gxlaAFACwy6saSq/Hfv/AD3TiAQ8CjdMzIyxo8f369fv5CQEK5yghN9Nh669+jjI5ZEvS4aj2mJTmdIpMeMYLcHN3GzQmv7BXkPUTFOqCyT9AVdErUL6NsP/1q+fHlcXFxkZKSzszOdPPG/LeVEiPiAgV61cA06vZ49e8bGxkLMDMdxeAF+QyJeAfQ9hmu4CZGXcBP+arVahmGys7N37tw5ceJEGxsbNze3pUuX7t+/PysrC5xR4Vn8gfDOGwH9m8J1ZmZmdHT00qVLO3bsaGdnN2HChF27duXl5eEjarUaBkB5ebn+C6GeUMkPcJxAGDfH9yf84vCvK1euNGjQ4Oeff4bQKYZhysrKZsyYARLI29u7oKCA4zsQmbwkEslXX33F8aMIXfBwUKlUKroCWAzrA8HTXOU5Tn/EC3yKvi94IdyvqKjgqMHDUilhANBGugBWfuvWrfb29teuXeOo6HaAKIZFiOC4ynN15cqVK1as4DiOnmM4tUS8GiiE4AL+4hqt0+mUSuWuXbsGDhzo4OAwbty4qKioFy9eQBlYxRDgYgrXgsX0jQB/XNyBwa+sUCh27Ngxfvx4e3t7T0/PXbt2KZVKjgr1wb+wY4CnYLR84OOEFoQsy968edPe3j4iIgJuqlQqhUIxdOjQiIgI6MPY2Nh27drdv39fq9WGh4dfvHgRSuKAEbwfuhfuY7fDv0BGcpVHIO7ecKMg2OHRvxc6MAu+S6vV0iMT9wQcNXL0Zbng/QzDHDlypE6dOpcvXxa0SxTDIj500Kc0juN0Ot2ZM2fc3d1xzcWZJuIvQq1WC84ugLi4uOnTp5uamk6aNOnIkSN4PKLL4FlTX+6+8V8Bf2KOP6DTXwSbgCNHjkyYMMHY2Njf3z8uLq7KugkqJthMfAgA6QUiR6PRQK/m5OS0aNFiz549UAZu7tmzBxjBsOcjIyODg4NLS0u3bdu2efNmOA0HBwdzHBcREQEfExISuMrdjk6Ue/fu5TiuoqIiKSkJyWtnzpxZUlLy4MGD5cuXl5SUcBwXHh4+e/bssrKy1NRUeDnDMGFhYcHBwVqt9osvvgCisTt37vTr1+/mzZszZ86E94NB98CBAwEBARcuXICW0vUXiNtly5Yhd8evv/5Kl2FZNiwsrGXLlgqFQqPR4LAR44ZFfNDgKN8ICOmTSqXdu3dPTU0F2gGWz+DEiV4Ufw0syxoZGSF1Bugnf/311y5dunz55Zdubm4FBQV79uzx9vYGsxy6+ILZGA17aCBE1sk36KcD0gIsi7BEQkAtFoCwH4lE4u3tHR4enp+f37p166VLl7q7u+/Zs0cikUCgOcczK2HmQYwO+qAAggekIJhXOY6bMmXKxIkTJ06ciIGzarU6Li5u6NCh2PMsyzo7O1+4cCE7O3v//v2FhYUwYLKysnbv3u3r61tWVjZ37lxDQ0OwBAOVx969ezMzM9Vq9b1797755pv4+Hi5XC6RSFauXKnT6e7cuWNhYUH48FyZTJadnb13715I/gjabNrSX1paCv59Op0uOjo6NzdXKpVu2bJFpVLNmTMnJiaGZdmRI0eCJzmKWHAnJHq5W+Ry+dmzZzmOy8/PP3ny5P3796EYPDVx4sRJkyb5+fkBQQ3cF8WwiA8dsIzSXIampqYtW7ZMSUkBIcFSeUbfaU1rBtB3FGyE+/bta968+YkTJ9avX5+amjp79mzw4pHyqXMJT9Qg8NvC3pZQlJZvqpJAwkAIgUOwgHQQWCEJz/LBcZyZmdm8efOSk5NDQkIOHDjQokWLqKgowuechvIqlYpUTqX14QBJzcrLywkhRkZGa9assba2Xr58OcwscGVnGMbc3LysrAwlk1QqtbW1tba25jjO3t5+yJAhMpmsvLx8/Pjx169fLysrA12UWq2GjjUyMiotLU1ISPDw8JDJZI0bNx4+fPjjx48JITqdrlGjRkBTSggBxlP4Zbdu3Tp8+HBra2tgEaE9nDmOq1WrFsuycrn8woULCoXC09MTkoVLeap5aJ2VlRWcegkhFRUVuGLgAgItglcRQrRarampqa2tLVQDCaWXLFlibGy8evVqUQyLEEEIv8TT7rvw0cfH5/Tp07BYABkCEBG/4+pWe8CCBbxCf/zxR5cuXaKjo6Oiovbt29e7d284/RCKNAO5dkEqE0Kgz3ExJbwsfFlo5usBD6+GhoZALqjValFUQB1wH4CKUIlE0rt378OHD+/evfvIkSPt2rU7dOgQvs3U1BTq/wa3CzUFKFFMTEwIIU+ePFmzZk1wcDDhu5HjXcq1Wq1cLgefeZrUDLQg9vb2hBBTU1M7OzsgrjIyMmJZtnfv3jAGUlJSYLRMmjQJAsRDQ0MfP37MMMyTJ0+aNm1K+OFnYGAA6ui0tLSKior27dtLeDLtkJAQeJu/v79EIikpKTE0NMzLy/vjjz/8/PxMTExKS0s53thP+OxtpaWlvXv3Bk3P8ePHITcDqnNYnoXNyMioa9euUqnU0dGxf//+tra2Wq0W+LrRv3r9+vWhoaFPnz79b/Pf4i8lQkR1hJRi/MfDjZubW3x8PByJYJGF2IN3XNdqDxBjmZmZPj4+69at+89//hMREeHm5kYIgRMwqPJAIYmyFrc7GB6GwD7HZe6NwNDQEIUlnIbhDsdxcHTj+GgTwo8QjGkhhHTp0uXAgQPff//9Dz/84OPj8+LFC5TZgowRHwhwFwV9+P333y9YsABS9tLcUsbGxh4eHqdOnaIfuXr1aqtWrSwtLZ2dnYuKiqAni4qKiouLCb8Hio+P5zju7t27GzZsgDKJiYngEFdWVhYYGGhgYJCTk2NlZQVvhgO0mZmZRCKJjIz08vKytraGuhkbG69cuRLU5tu2bYMzK8MwV69eNTc3d3V1VSqVJiYm8KMDmQlUSS6Xx8XFsSxbUFAQGRn57NkzwqtDCB+ABHcSEhIgeD02NjYxMRG2CzjINRpNo0aNlixZsmHDBugZMQ7ynwIj21g+TJ5UjjHl+KA0rnI0YXl5eV5e3p9//pmbm/vkyRMgBiooKFAoFMXFxUqlErhkwRYi4bPKmJmZmZmZWVtbW1lZWVtbOzo61q1b187OrmHDho0aNXJxccE89rRpTVo5Uz0d00b0CP/ohvzXg+C9XlawdbQA6Nev36BBgyAGEYQxRuWLIJUjrXEfA+ebLVu2LFu2LCQk5LPPPqPJEbH34IIeVPgv/ZH2P8Xdmx6E+EL62C34Xv3wX9ru26dPnz59+nz//fetWrX69ttv/f39BbHFHM/s/95PIkKlLFQqlb/88gsc9XDnhD3Qv3//3bt37927d8KECRKJ5NKlS+vWrdu/f7+JiUnbtm2joqJWrlxZXFy8e/fuTz75BOwXhErNZGRkZGho2K1bt8jIyHbt2lVUVPj6+k6ZMsXNzS0zM7NBgwbwdbhtOnnypLu7e6dOnR4/fgwDFXZdMIABDMMUFxdv2rTp999/h40gasgkVFoRXDBfYZyCdRWMLBBAjOp3jKWGPeinn37q6OgYFBRkY2MjLiv/CCqVytTUFPOmET5IHEPOaSPEs2fPUlNTb968mZaWdunSpfz8fAcHB1dXV3t7+wYNGnTo0MHOzs7GxgbpgWQymVwuR0s+GK5KS0tLSkoKCwuLioqKiopycnJevHhx7dq16OjotLS0vLw8JyenNm3atG7dumPHjm3atKlfvz6ugzACMLwdMq6A6Qs1rlKejRaGGnoufGgSyNDQsFevXvHx8Z6eniBpBGq0Dxwog/E4K5PJtFrt7NmzMzMzb968Wa9ePcJ77rxx5o3qA5ZlP//88+HDh8+aNSsxMXHPnj0sT8QIKzid8I7ma3z/wPLZdo8fPz548GA4fdLEF4QQjuNq1659/Phxf3//KVOm6HS6vn37xsfHm5qaymQyHx+fDRs2gM115cqVHTt2lEqlkLexZ8+e8J7k5GRbW9upU6c+ffrUwsKCZdmvv/76448/nj59ekxMzMaNG6GYkZGRubm5j4+Po6Pj/PnzTUxMYClDfh7Uc4CKWyqVLl26tGHDhmD0xZ8J9NuwAmg0ml69esEKCUQchD/VoA8BIUSn0/Xp0wdyYc2aNcvd3R3sHbD8YofY2tqOGjXq1KlTPj4+IovWa4KtTGMGN1HthutOampqXFxcampqUlKSmZlZ27ZtO3Xq1Lx5844dO7q4uLzGsi44UtM/H7gRPnr06N69e7dv305JSbl9+3Z5ebmbm9tHH33Uq1evLl264KmF49OvspV57MA9GBdNpKX9ABEQECCRSAIDA9GZSP9s9CFDwKR4//79KVOmeHh4rF+/nvBeV+R9d1liKW7hgICAP/74Izw8vHnz5oICH8I8wtVszJgxQ4cOBQdpmhQaPpaWlpqbm+NTAn2bQLkIHUuvk7iVoc8GeXl5oOO1sbGB74qPj79w4cJXX30FxaD/8VlU0sCZhNXjR8OzClae/jpw6wM3LsEpRVCe02PzJtQJZ9euXadOndqzZ48YN/z6wFhvSD+J97OzsyMiIsaOHWtlZdW1a9fPP/88Ojr6+fPn+BTHcTqdDoLNwWkF9mj6gZL4XwHrCv6XrkyV/8rKyjp27NiCBQu6dOni4OAwevToPXv25OTkcJVpiVg9Ohj47wdLR8Cy7KlTpzw8PJCo4QOkRnoFMFYSRuadO3dsbW137NjB6dFdqdXq9zvqGqOfWZbds2ePs7PzlStXWIqKhI6p/RDQsmXLGzdu4EfkKRP0AB16y1WO26bZr6Bjq+xDlkdhYeHs2bPz8/NxqUxKSgoMDIQyNMsH/Y366yfGMtHfgnNfMLAFb9ZfnwUrBsuHDmMzb9265erqyon0Hf8QdNcXFxdv3brV09PTwsJi/PjxYWFhubm58C8k6Hn1Us7y+cyrFMk0BDQutJCglzxgQoBoeoZh8vLywsLCJk6caGFh0b9//7CwsJKSEhhbyJmAwphmn/nrHfLeAGNXYBHBKfSu61VdgF2h1Wpv3rzp4OBw4MABvA+990GNHJQ0e/furVev3q1bt+A+CGO2Mn/T+w1LS8uioiL49QXCD/dk9ApGE7bQYwbvC9iyNBoNvkdfQOLuh63MukPzawLoGnKVFzqoHo5htjLJGpy7qqTvgGvkPYWz1svOUWVlZWZmZpwohl8b9CA4f/68n5+fmZmZn5/foUOHsAxul2jQIhN/Y+SdEQCHQpU/5MuOaPpDhL6GkXH8+HE/Pz8jIyM/Pz8INsehjIf7l42eDwQVFRW9evWKiYmBjx+UUPkrgOFXXFzcuHHjnTt3chR9Ekctne/3+IHYaMFxf+fOnY0aNcrMzOT4YfMh8GphJxA+6o/+b5VKEVqPSJM+6p9T6WMGfWimF1jUQNBHW44iuaQPGKhl5CjSSvpsg6+F/+IviFpMLIkbC67yKgGP0D89PoUUWv/VY3OibfgfYO/evf/5z39YlvX39580aRKYEwR+K9DvAssi/GACswfhLSWENyToW47x96LfBg5Wgm+hDcD4dbTpRSKRqFSqqKioHTt26HS6L774YvTo0SzLGhkZQYJu2oP6QzOLQkdh7mG2coIzEWgPGzJkSM+ePZcuXUrfR/dpVi+f0nsJaHV5eTlEzXIc9+2338bFxR0+fBjcYj+EwYMNNDc3z8nJgXOehEokjFKH9p7Rd1ujA9vQqspxHPYkPIv2XXCAQhMsR0V/cJRpFgUh+BKi46rAbM9QWZIErqn4kfaK4PT43eBYZWRkJNVLYs1WziJVVlbm6OhYUlIinoZfE9u3b2/WrJmPj09sbCzcgb2V4Pirn+JDoHjBm684NLAU/vpTgjrQF/RTUBlw2HN1dd22bRv9rMBg/EGBYZiYmBgPDw+8834f7P4uWJbdsGGDj48PDk48baBqGkq+34oEWgdAH5JGjBixceNGrvIx6/0GLBeurq5gG8ZW66hMDHi/ytOn/lChT8kcpUHER+jDMaqRBe+hl2X9a4FFD3WBWLdXKK4FLaKfwgfpC7raf/75Z/PmzTlRKY3QV4OgTBUktzpw4EC7du3GjRt3/vx5+tmaKK7oOqvV6itXrowaNapLly6///472rporQttIOFqZpP/IqBpZWVlSEJLzzp6vnFVLQo1rmcEa4pgh1elnvDRo0e1atV6+PChjs9jg08JpA6a5QTWOATLm07xX/T+j1Yq0gUEj+N/q3SZQUch+imWyt7B6QkDVs+4yOkt2YIX0sv0w4cPTU1NMzIy6Mc5vREi6Ha8ZqjUfgLVK6cH/Z/sFXt0QWH6u17xFfrvFLyntLT06dOnly9f/vjjj8FIQS+MAvervwv9XhKcLvQPG9xLHLKwgL6lgOUtu9zLO+G1gUcyHGw7d+4cN24cJyqlaYB6BKjAUcnAUgEJ9+7dW7ly5fPnzzds2NCtWzda80wEaZyrPVieJ5mOcQRdSkxMTEhIiLOz85o1axo2bMjyKjXIlACtAAAgAElEQVRCCHrns+97BC3Hh0y4u7uHhoYCESPdV1iS4bN8Ez54n6ucpfzdNeJ1wFVmdHnFqP7888/lcvm6devwQSiGWj6Bug9GDhhQILjO0NBQo9FAhCVmg0AwFDEIyAlQJNJaPpyttJqR8NOW4+NJCEWegNpOfA/9LKyYAo0o9ACOecgQQAefMHw6B1RpwkgIDg4uKCj45ptvUH0KPDx0JVGND+uJoAxdNx2f5V7/Z6I7jfCkE1X+uK9YoKDt+uYztVpdWFiYm5urVCpzc3MLCgqysrLy8/OLiory8/OzsrIKCgqys7MNDQ1tbW0dHR01Gk39+vWPHDmi37csRQ30d4Gx6bQtr8oxRnhNNcZnMgwD1WD1YpPorsPxJqj5mwJ+OyFEKpWOHz9+4MCBfn5+ohj+H9AmgRMP5wbLsps2bQoKCgoKCpozZw7Lx7Qh2QVXmayjpgCqzfGWY0JN1G+++SY0NHT9+vWYoJueRTVrz/F6gBkeFBTUtm3bESNGwNq6ZcuWffv23blzJz8/38LComvXrp6engsXLoRHYKsLXVSzxoP+DwptoW1jHOWXUFpaWqtWrfLyciDKx43IpUuXYIcKNrkpU6Zs2rQJVjeamg1eEhQUtHbtWmDtDw4OXrJkCcw+AwMD2BPTI5MGPRRp8S/lwVVFXcfxeXVoMg16caftlCxl1Wb1SAI4nk0J+0ffcEgIycnJadCgQXZ2tqWlJVZDv6T+ig8SkVA85xwVXIvrEr16QxmcnlhhUplOUvAXaPuysrIUCoVSqYRroPMrLCzMzs5WKBQMw1hYWNjb21tZWdnZ2YGstbOzg4+Ojo5wB/JlAX+yk5PT48ePbWxsYIcEuxaucgDxywdjFUCnFolEcv/+/bFjx16/fl0qlSYkJJw8edLKyurcuXNHjx5dv3794sWLAwIC2rRpM2LECJZlDx8+XF5e3rVr17Fjx964cQO2X8HBwStXrly9evWKFStgAWzfvv2ePXsOHz7s4uIyduxYQ0NDyJE8YcKEv1XPVwBHF/w62dnZderUyc3NtbOz+7CokV4Blucwg+EO4wm2XQzDTJs2TalUJicnN2zYEFcrnDmw8yI1yhUFBTC0F9mOcNovWrRo1KhRM2fOTEpK2rJlC3hsYW4yaO9rTKeaApZlYVkJDAwEbWdMTMzChQvbtGmzZMmSbt26gRBKSEj47bffGjVq9M0334wcORK3cTCEatB4QKGF1+ghqC8SGIbZv3//+PHjUWoSQuDAoVarQ0NDv/rqK0JIRkbGli1bNBoN0DUwfCIj6Jxdu3b17ds3MDAQxSG8B1xjMA0OPcsggx7yURN+qwQ/EOQAkPKUilASTsM0hTVsOCDBAL4H/iIvBB52q/S1oU+xUABmBNzBGaHVah0cHIYNG3b06NFJkyZhVWUyWVpamq+vr42NDXiW4OyD90goqkVCHVKhALLrCA7EEp7yGnj38vLyCgoKSkpKcnJysrOzQazm5OTgKTYnJ6ewsBCyGzk4OCCFX4MGDdq3bw9SFsStmZlZlUTf9P4G7LIGBgZGRkYQf7Fp06aAgABwW2NZFioGDXmNRQNdokCP4uXllZCQAOMqNjY2IiJi9+7doOPt2rWrl5fXzp07hw0bZmBgcP78+Xnz5slksv79+ycnJ8vl8pSUFMjaotFoLl++3K5dO4lEsmzZMnNz8169ekVERPj6+iqVyhs3bvj5+f3der4CuMODDfrWrVu/+OKL2rVrs//H3pnH13C1D/zM3C2rSGQTBBEaIvY9IdQaW4tStdMSyktbailijaW6q62lIYilrWorpYpGgtiqmhJLEEFkvUlEcveZ+f3xvPP0mJuo9te3kjjfP/K5mTt39jnPeXZRrDTDxL8DbU6Ed/7mzZuhoaH169ffv39/QEAAloeV5K7g8BZxVKOeSgFOk2GeAQuxaCrY8fz9/X/66Sd/f/8uXbqAi4vI5d9EUbRV6Y5DaBQBDWPPnj2jR49esWLFrl27+vbt6+HhodFoHB0d+/btu3nz5o8//jgyMnL79u1QABweD/hcWeAoRKqeDJEtnDilgGH06NGjvXr1QhEFFmMQn7CaIAgGgwGeFkJIampq+/btNRpN79699Xo95NCnpqZyHOfm5hYVFaVWq81mc0FBQUREhEajUalU0dHRFovl5MmTcFQuLi6RkZHww1mzZl2/fl0Uxdu3b/fq1Ss1NXXGjBlgy4U3NzY2Njo6+uTJk0RW9OHZRqvguXPnYCHP85MnTzaZTDDsfvjhh25ubsHBwdevX7969eq4cePy8vIIIffv33/rrbeKi4sXLVoE7/sbb7xRWlr69ddfg0msXbt26enpolzfH03o/fv3//bbb2FWRwjheX7u3LnNmzdPTU195ZVXCCHoqlSpVDjnAJUdgt04uawxrGAwGG7fvn3+/PkjR47s3Lnzww8/jIqKmjJlyuDBg7t169amTRtvb28HB4egoKABAwZMnTp1w4YNSUlJubm5Li4uoaGhEyZMWLZs2d69e69evWq1WnNzc69du5aYmLhv377PP/88Ojp6+vTpY8aM6devX2hoaIMGDdzc3HDygYcKd0SSHagcx2m1WrzChJDZs2evWLHi3r17jo6OYEvHop42ucbyX4J+m+AiQFA6IUSSpH79+gUHB3t6eo4bNy4pKalRo0YqlSovL+/27dtOTk7+/v4wUMOVhKmMWq3WaDSlpaVgC4E4u5CQEJvNVlRUpNfrLRZLo0aN/sahlgltgeA47tatW9HR0W+88Qb8y7Th/0I7DHCW99tvvw0ePHjBggXjx4/nZDeqJEnwtsNjB9NbhdWo4oMSFKeZYP2Dc9RoNGgMmD9/fr169cLDww8cONCkSROYjCsyCqok+OZcunRpzJgxSUlJHTp04CjvOChbOp1uwIAB3333XadOnTp27NigQQN4JOi2ppULRQYd7SfGIfjcuXOQpKRwWJSUlPj7+xNCVCqVs7MzhBcZjcZZs2bB+L548eL58+fPnz9/79694eHhMALOmTNn+/btL7/88oIFC4YNG3bw4MHU1NRZs2bdvn2b47gVK1bMnTtXFMWVK1d+8803ffv21Wq18NJ98803WVlZarV6w4YNH3744Ztvvjl69OgOHTrwPL9ixQpCiNVqBR2U9u/CQx4VFbVkyZJr1659/vnnOp3O0dHx119/rVevXmFh4f79+997771Vq1a5ublduXLFy8vrzp073t7ejo6OarX61KlTbdq04Xn+xIkT27dvv3fvnp+f3/Lly+Pi4ubPn89TfZStVmuzZs0gXpoQsnv37rfeestsNoP9DMo9gtGF4ziTyVRUVJSXl5ebm5uXl6fX60tKSu7fv5+Tk5OXl1dcXJydnZ2Tk6NWqz09PcE4XLNmTU9Pz2rVqjVp0qRHjx41atSoXr26j4+Pl5cXaOdELgsvlZXoSB51RtBeCVqjUFhH6OX0+rRBsV69etHR0W+++eaXX34JB4C/QtvyX3omcRIDJ6XRaLDeJM/z0MoJozdq1KhRp06d+/fvX7lyJTg42NHREUIQ4LdoVyCyRdNsNru4uNhsNjc3t4CAgCtXrmRkZLRs2fIf9A1zVIVLUL5Xr15du3ZtMCFU2TH0r0IH2sDNvnTp0oABAz788MNhw4Zh4AOag0Bo4RJ4IiuXWKKjGGhLEZ2TB2Jm/Pjxbm5uERERx44da9y4MTo5KtHJ/lXoWJIVK1YsX74cZDCYFmHKJcoJgqIoduzY8aOPPpo5c+a3336LETd/dax56ijCytC6jpoErpmZmdmwYUOcfapUKrgUeXl5eNZms5nneZ1Od/fu3erVq0dERBBChg4d+vbbb+fk5Hh7ew8ZMgQeoZdeemn37t1Dhw5dv349IUSSJD8/P5B5oP7i81m7dm0cOs+cOZOVlTVw4ECMlkJ9l1BRXegxJbIMIIRwHNe4cWMivwUmk8lisdSuXXvcuHFarTY8PHzfvn2FhYVdunRJT0/v3Lnzjz/+2L17d41Go1arDQYDbLBz586dO3eGLdeqVev+/fuKnFSNRhMYGJiamvr777+//fbbZ8+eheZ9arU6MDBw0qRJhYWF9+/fLy0tvXv3Ls/zzs7O3t7eXl5eNWrU8PLy8vDwCAgIaN++vbe3t5ubm7e3t6+vL+29VtwXhXjD11PhPKI1WoVkpaU1vSlay6d3h7oHCmn8dtasWREREe++++6cOXOIXKUZbNR/QwwT2UEAEXmgAuFJ3b17F4bumzdvwgF06dJlz549EJ0gCIKLiwu0iCByFBsM8vDMODg4GAwGGM/bt2//ww8/mEymqVOn/tUj/FPgaVy9erXBYJg+fTpe5Co7jP5V4L7iC1xcXDxixIgVK1a89NJLRDYz0g8iRuvB3ApU5MolltRyG2qYxqLnj5N7r2J4ISFk0KBBBoNh8ODBiYmJXl5eRO4u9TRP4H8J+h3y8/Pj4+Pj4uJApQChi/oBxgSIojhjxoyoqKh79+7VqlULJ2dP+TSeGNppZ7PZIPa1oKAgJycHPkOIbG5ubnZ2dmFhocFgAHnAcRwIHq1Wa7PZrl692rdvX1Q64VoVFhYWFBTAA+bn5+fq6mq1Wp2dnX18fOClw4Xnz5/v0qULCIPWrVuDEhMVFQUVVCZPngxqKBhI9+/fP2HChJiYGHiMYd6Dflye57t06UII0Wg0mzZtGj9+PJwprJmRkVG3bl1BEMBqqlKpdDqdm5ubi4uLJEkQHWY2m9u0afPFF1+ASgoNG+CQCCHgk5oxY8amTZtgp1FRUYQKGYFJubOzs9Vqfffdd5OSksxmM17wgoKCPn36VK9eHUSsn5+fg4MD7QEldmKVyEqnIvKAlp3So8Ur6NtapojFdYid6CWUrqyIULPfDkLrM9u3bw8NDfXx8Rk3bpyDgwNcbXx9/hIYqyHJaUioVQuCkJSUNG3aNKvVevr06Xnz5kmSFBwcHB0dHRAQULt2bZVKZTQaQQQSWeWA6Rc8M3RYZevWrVevXt2gQQM/P79/1poFR7tz584vvvgiOTmZyE5iZpQuA5hjvvrqqyNHjhw7diwu5+SgD17uW453iH+036oipYdeSO9IoqIcBbkVSXkTW/yX3g4dyE3b3LBLEno3eTnjiD4RtEIr3mc8TXos4Dhu9OjRmZmZkyZN2rt3LzSy/scueoUEpts//vhj//798aLhIEivhuNUr169EhISRo0a9YTZDpIcYI9Te/q+2xsSy3sq7P+13w4+P0VFRSBW9Xo9iFVYUlRUlJmZmZ2dbTAYXFxcwOAJOpmvr29ISEiNGjW8vb1r1qzp7u4eGBiIrXLw+TGbzaWlpS4uLrScACOhh4cHjKF6vT4vL8/FxcXd3V2v11evXp3n+fz8fL1ebzAYFi1adOLEiU6dOuXn50+fPp3neZPJFB0d/c4770iStHv37g8++ODNN9/keR5aljVo0AAnxGiywjE6KSmpU6dODx8+nDJlSocOHUD9heuQk5PTvn17mEOo5AaxBQUFBQUF3t7e2dnZDx480Gq1Pj4+giD88MMPvr6+Xl5eqPrDdr7++mtCCJSc27Fjx61bt/BewNRWFEWTyeTq6rpt27ZBgwZ99tlnSUlJEpXE3LdvX84uoh5vnL24oj309uvbfy7vq/LWKW93Zf5bJiq5XyohxNPT88svv+zTp4+zs/OQIUPor+i3Cd+pPxXP4O6xf8hbtmzZuXPnS5cubd++PSwszGazeXh4hIeHe3t7w7xKkHsMS3I1Lgj9Qds7iGpCiJubW2hoaGBgoKOjo/DYvsIc1Z5OfDTRoLyJ1N69e2fOnHnkyBEPDw9CTWuYGFbC8/xHH30EPlHMcQQPE95IjFnAmGEwmHBl2aXhOYOFkJsBn2nJjWIbtk/Kf+Jpqxc9cNNyAvwoeCQ41YUtYKYdjl84xYbtYOArDjdofZo7d+6LL764cePG119/XUW1MKt64OQpLy+vXr16imxFSa4Giv/CpWjUqFF6ejrMb2ibf5lg7UMihwcr1qc/00mNIlWmVHHMhYWFkHACzsWsrKy8vLzCwsK8vDxISsnPzwex6u3t7eHhAXbOoKCg8PBwd3f3mjVrent7V6tWrbyufHjHa9Wqdffu3cDAQJjJwZXJzMzU6XSYaw5ai06nc3d3z83NPXbs2LBhw3bs2BEcHNywYcPg4OAdO3YsWbKkoKAgJiZmwoQJ0NEdRsbDhw9fuXJFFEVI5SdyKBPooKWlpZs2bdqzZw/YJziOs1gsoG/BMwy6LEwxobQIZCeDwz49PT07O9vX1xdePdDSJEnKyck5f/58UFDQhQsXGjRo4OXl5ezs3K5du6FDh548eRJVfJPJJFDVOm02W0lJyd69e1u1amX/CKWnp9esWVOj0bz00ktDhw69ffv2Bx98EBsbazabX3/99WHDhmGYW5UkJCQkPj5+wIABpaWlEHjMU5Us6UHv8YMJPYoGBQWtWrWKUMHhbdq0effddzGpSa1WZ2dnX758+eWXX4b09JCQkOjoaNhpx44dW7duTQhZuHAhHIyjo+OqVavgGIqLi1NTU0eMGPH45tCcbA/DwyOUc5oQgm4aSfZgxsTELFq06NChQyEhIeKjiWRMDP8BDKwZGRnz58+/ceOGQBUjBYMbLdXgJvFySBcMWyKVZwkZEYIgWCwWrDSLeWNEvgc8z0P+sSS7G+nh1V4fwh+iigPHScsJ+xhmWkGHiBUix24Q2a9Da2b2V0YlF4D9+OOPAwMDX3jhhTp16lRVGUwI4eViJhBDBPMe3q5igCiX2sHLC+5DOie1zO1LkoQyGC4+3ES8cYprq1Kp8vPz79+/DwkneXl59+/f1+v1mZmZDx48yMrKAi3W1dXVz8/P29vb3d0dQnhCQkIgEaVmzZqgzhJq6oYHU+atpB8JTo7XheVt27Y9deoU6JdwChD6m5KSEh0dzckpN4QQV1fXRYsWbdq0afDgwS+//HJERMS2bdvUavWYMWNgTULIihUrQkNDrVbrmDFjwNu6cePGtm3b6vV6nuchX1+lUoWEhHz55ZdwoaZPn96oUSObzVZcXAxPtdFoBBlJCBEEwcnJCezboijGxsYGBATAY28wGF5//fXDhw+vWbOGl2spODg4jBgxomnTpklJSaNHj+7Ro0dcXJybmxshpEmTJsOGDatfvz68WfBywW3q2bPntm3bPDw8unTpMmnSpISEBBD5ONUmhJw/f75Zs2ZEfonq1q37wQcffPLJJ3FxcW+88QYoZFVYDHMc16xZs59//nnMmDHXrl2Ljo4m1KQTrhImaDwGTO8mhIATFxVcrVZrMBhwO5Ik3bhxY+jQofPmzfP396eLP2NlCNq1RL9xN27ceOGFFxYuXNiwYUPyZ93WBap3AKG847gQf6vRaGbPnp2YmHj8+PGAgAC6JPV/daQ/Pf9nB7go06dP9/Lymjt3LsdxKN5QAYUbA3/pjHI6HkQhSsmjued4DxTtE4hdYiIeFaEG5TI3BdDaOZGfEsU69pm+EGcELaxhCX1IeOLgjYNpxMKFCx88ePDJJ59U4REEr1tsbOzRo0e3bdtWZn0GBOTu8OHD+/TpM27cuD8N1oMbgdaR7OzsrKwso9F47949e19sQUFBXl6eu7s7mEYhfsfX19fd3d3Pz8/Dw8PPz8/X19fV1RWTRnBI+lNxqzCJk/Jd2vRYERMTc+zYsa1bt2JgQWpq6vbt2xctWgRaKbwC27Ztu3v37oIFC+gRDaU7Pjz4rf0RSnKCO6F8aQpLPtTSInY2JBx2CfVO6fX6uXPnrl692sPDAx7vc+fOHTp06JVXXpk/f/769etr1KiBV4bn+ZiYmJycnLlz5yqqd4GiA//CCEC/9WhIGz58eL9+/UaOHKmwu9JW2coV2vmXoO0ikZGRd+7ciYmJ8fPzU6lUeMUeU8bEflPw2X7oo+1S9HSZDhfHNXFHOF2WJAlquoGB5PGqMFBm1QQUB5ycWZORkTF58uRatWpt2LABHXn0cf7xPwPe6sLCQkJIfn6+JEmpqamzZ8+GesJwn3JzcydPnvzgwQPp0UYOdIdL6dGCw3StXUVlc5EqhPuYmrFiWaVNcftY/Bbr7opUv3GktLQUP+O+bDYbHBh+BUcLPzeZTGVWfxVFMTs7W6fTFRQUCJWtcvLf4MaNG25ubnjLFHdWokoZi6Lo4eFx584dWC4+WpG4PGw227Jly7y9vZs2bRoaGjp06NDIyMjFixevW7du9+7dR48eTU1Nzc7OLvMxwAOwWCx0zzjFfkW5aDA8hAJVzbjMzYoU5e20qKhIo9EUFhbCv1ar9ffff589e3ZRURF9reLi4pYvXy7IRfnpXeOrAUvwX7qir/Bo4Wi85vSvFAdp31ZW8ZOcnJzIyEi9Xg//mkymU6dORUVFpaSkjBw5sqCgQKLe0EWLFvXu3TsvL8++UjH9AEhUQWn67cvLy9PpdDBiwPoC1Ty0zFb2VQy8g3BZNm7c6ODg8Omnn8JC+h3505cFhzjsQ4wudrGsfjnSo2XAFdcZu7DjEvvX5zH9oXF39HCqqDouSdKHH35YvXr1jRs34pbtn2GJtXagEQQhNjZ25MiReBsWL168bds2XGHbtm07d+6kC9BLdg8HvpNS+a+ZIBdSBxkvPtrzUqIKg9iDoxU+i4otwwccKfCdx07UZf5KIcjpE8Hzwp9bLJYRI0bExMSUubWqBDQ0HT58+Jo1a2AJznvgX/phWLNmzbBhwyT5sj/5sPIkAzHeR/iA5TUU95ReDdex35rwaCMHGEHKW1ksq/S/IAjTp0+fM2cO/cALdm0t8Ff4YEt2BffLeyzpeQA94NpfWJRwuDJAfytJEvgX4DPdmLbM9jvlDeswG8DzxZm34nzhw5w5c15//XXFjhSP0GPmOlUDuBd4d27evDls2LCwsDDo5I1vEE5ny4R+chTd2e0nnfZNOPAphfw3xSQPHkJUh+gJ35+eGg71ivt49OjRjh07Dh8+/Nq1azB4ljmJB5gY/gNBEIYPH/7FF1/gSFdYWPj666/n5eUJgqDX66dMmaLX60+ePImWk4kTJz58+FCSpKSkJDCw8DwPwZClpaVTpkwhcvZer1698vLyTp06tWjRIrjZS5cuXbZsWWJiIjqYOY7r16/fqVOn5s6dazaby3xRLRbLxIkTIVxzwoQJVqu1tLR09uzZV65c0ev13bt3P3r06KpVqxISEoxG49SpU2EakZCQgDaW06dPp6amDh8+HKrF5ubmTpw4Ua/Xr169+ujRoyCPIyMjExISwIeHhzd16tSioiI4jM8++2z48OHlDaBVAPrdvnTpEiEEbiuAGg9OtM+ePcvz/NmzZ3GdPxWu9MzGRjUpwhX+VCXF1RQjnf0KKDDst//4jZe3QUmS7ty5o9PpsrOz7YUQ6nxwVLAcph0o/2iJSK8syZURaRmsmBrSTXXoeQA9gCoeTpy2KqabKEdxcIeRWnpUfouiiG3kFeDDQI/+NpstIyPD2dkZrSOKRkCwjn1n+CqGQmlBObdv3742bdoMGjQoJSVFevRWlgc9c6I3Rc/wJDtbI20doTVvxb1WWGWkP+vOSetOEnXTJUk6d+7cgAED2rRpc/DgQcUMQ7Ev/HnVdOz9PXie//XXX6FKgyRJPM9Xq1atY8eOP/74I8/zBw8e7NSpk4eHh81mW7hwoSRJly9frl69ulqtvnHjxuLFi69du2az2Xbs2LF9+3aIE3FxcUlLSzObzXq9vl69eugcgqKye/bs4Xm+c+fOZrP59OnTkZGRDx48OHDggIeHB45B9ge5YsUKf39/q9UK3sTk5GSV3GTi0KFDEyZMeP755yFJ7vz5856enmPGjLl69Wp0dDQ87jt27Ni6dauXlxeUByKE3Lhxo06dOh4eHiUlJY6OjpxcbQ4Kw1qt1q1bty5btkwUxbVr17q5ucFzExoampKSUlUdw0QO0SKESJLUuHHjuLi4gQMHQlVCIkdhiHITgsOHD3fv3n379u1t27aFn4tyRaHytg9uS3DewwYhwg5joAhVYJL+of1YAMHtmEEnycW/EDq6inu0BiEdeg3Q+wLpSO9alMtbCoJQp06d6OjoSZMm0Vlzohx+iFH3uBeYCGLxEzhfURQh1JmjCshAxDheCtgaRD6D1w2CNjDOhcj+bEEuACfJra4kOQfPwcEBLjVd2hc+gJMPskjhxsFvcbYNt5LOYIFYIdg+HZ4JjwRscObMmfPmzatTp45NbvEkUUkW4DyGWKHHxAFVdrAwHzw8GOX64osvnjt3rnfv3oMHDx48ePDJkycFuaD9YzYFHyD9Gn3DmNlB6KAneQzH1UTZf4yvnslkwnuNjy76jDH7uUzguVLJTbHgRT5+/PiQIUPGjBkDZ/f888/TMbAYOYsvHR5blR1G/waSJKWnp9evX5/IV5nn+X79+h07diw9PT0hIaF3796EELVaHRAQQKhw0/r16x85cqRBgwY8z/v7+2MItNlshhEQhwOMsI+JiZk2bRo+OqKc4EvkSkY4JOGDBWPlwoULoSuIs7MzZIZAAd7c3NwTJ0706NEDnmaj0RgfH//yyy8TQho1anT48GGo91a3bl2r1QpFzG/dusXz/JEjR7p27UoIgfGLEALjCD6C9PONZ1GnTp07d+7QsT/So6m0ig+4jv3IXuYPFfcFJyX0+jDNxNVEudXgY4Sf4ufwAcvV4vUnjzax4TjulVdeiYmJeeutt0aNGvXVV19BLaSioqJvvvlm0qRJU6ZM2bNnD1R6weOkdwqzYPp64htIR5rgMPSYEHSOwj5nCX9Lr2a/guKHKDUVK2N8E/1D+AwXB1pLrVy5Ep46G1Uu2FZ+6WDci2L7ZV4BhRTH9wIHZTpMBi4mRNLSv4V1ygyD4qhCeGUeAP0vvgJ0tp4o54/haiqVasWKFYIgzJ07F6YLOO/B0/xjCK66c1mErqwCcBxntVojIyOvX7/+wgsvzKSvetcAACAASURBVJ07t2vXruvXr7dYLDCLgtXgZcFXG0QpFFfBGSF8hVX/4If0C6i4s3jlMWBKsQIhBHaBt9teKYKZKJHf7s2bN3fo0CEqKmrgwIGXL1+eMGECIQTmWHj89omsf3z+65e0aiLJLQ3okqeiKLq6uvbo0SMgIKB3796Qv3/r1q369esLcq0AmApFR0fDWBYWFoZTP1dXV/BpEap4gkajOXPmjE6na9OmDQgSUAskSXJycrLZbA4ODvHx8ZBDGRERkZ+fT+SbzXFcenp6SEiIg4ODi4vL+vXr1Wp1aWkpFCh44403IB3F0dGxR48eERERjRs3hgd30aJFTk5OHMd17tzZyclJkqTWrVunpqZmZGRkZmaGhITARYDpm7Oz85YtWziOA/MdFme3Wq04rrm6upaUlPj4+DRt2jQ8PHzEiBHTp0+Piopau3btV199lZCQcPHixdzcXLyMhJqfwrxEoZDR0xRa7gpyzCE9sOLVwIkwTnVpWUIbRQk1bUIdkVB5BZJss0JtBuufwJovvPDCzZs327ZtGxsb6+/vz3FcgwYNPvnkk5YtW2ZkZPTs2RNrFxOq7ask2z9sNhtcT/voykoKXNuYmJiYmJivv/4aVD1erm0Cl5E8Vh5XInCkpj+Icu44jtFwsnBNPv30UzRyYEjwUzyFCgVtbBg7dmxycvLSpUsvXLhQvXr1CRMmHDp0CLytWPFDpOqywaQWA+BJ+ZVJFHuUZAdHeYdEKwk4MRUfreiAe1SpVN9///3YsWO9vLySkpLef//948ePjxo1iuM4nNk/4cteNaPk/wZw7dzc3FAZxQG0e/fuw4cPxxTJgoKCli1bgskaYuIhISwvL8/T0/PEiRNxcXGiKOp0OihUC3NzyGXieT4nJyc+Pn7s2LH5+flgG8EObmazGQxf/fv3P3v2rJOTU2xs7MaNGxcuXMhxnFarNZlMq1atmjt37pAhQwRBmDNnDkwz3d3d4+LiNm3aNGnSpEaNGpWUlJw4ceLo0aOSJIWHhx8/fvyXX365f/9+9erVT506FRcXZ7PZ/P39LRbLkSNH/P39oQQ/x3EJCQlhYWElJSVQqAhmiyio6JRoSZKqVav2+++/02UiCgoKrl+/fvz4cb1eX1hYeOfOnQcPHkC7NCgZAX3TatSoAY3VvL29fXx83NzcUH3Be4H/2qdXkUe1KMmukAVKdIWyhaJXkDPC8QNmLBA5awLfPbQdmUwmrVb75ptvQl8UtVoNcfWEMkjicIyt68BaBcMxjjtClWgQCZfX3d3966+/BjPM0KFD4d2xyS3/nrCaWKVAKCtP9OHDh66urrxctlOj0ezcuTMqKurIkSO+vr70z6twVtLfAI1G6Enp0qVLt27dPvnkk717965du3bUqFERERH9+vXr3bu3q6sr3Q3dvowgvne0EYXeEQ4pdBoxPYYorEH4K9wFSuKsrKyEhIT4+Pjvv/8+PDx88ODBH3/8sbu7O54a1HoiVNLanxo82GPxBxqNxsvL6/r161DlhJeLriUkJAQHBwcHBxNCUlNT7969+9xzz3EcV1JSopJrk+p0OpVKZTAYdu/eDbcQXP3Ozs6wEUgp0Wq169evX7hwYVBQUGJiIkyQIV+NyH4UiOdEyzYqZ6CuwY60Wu25c+fWrVv38ssvOzg4QN7kq6++um3btmXLlsHpzJgxY968eSEhIdCNBKIVdu3aBTvSarUdOnQYNmxYQkICPOIgSGCnmG8nyXEERBZacMAXL1709vauUaOGp6cnPmRonePkOsOSJOn1euhyCn+hus3x48eh3lNmZqbZbHZycgJRXbNmTcyLrVmzpoeHByyEvdBvDgx8uDuRqohCa8PwAV4w1FrQP4f6Ljpv4AqDqk0oHzDHcTApkSQJqgrDxJneMg4QOODycl0OIrumRCrbtVKDp8PzfEhIyMGDB1966SWTyTR+/Hha3mDSeVUyvdLS1NXVFabacK83bNiwevXqb7/9tn79+jjne4xJ/JlFMXtG0wKEpIwZM6agoOCHH37Yv3//xIkTW7du3bp169DQ0LCwMG9vb7Ra0cnHRDZoocXLXrKCNgw2G04OksABhP4JbhDuXWZm5unTp5OTk3/++ee8vLxOnTr1799//fr11atXx/sLR4KzeVEucv4kc272ZPwXuB/Nmzf/5ZdfQkJCYIg5efJk165du3btunfvXpAos2fP/uGHH9577z1err/j5eU1bdo0Hx8fDw+PVq1avfPOO1999VVubu6UKVPUajXYpUGz1Gg0JSUlnTt3nj59utlshv6sUEtPksswgRj4+eefXVxcBEHo1avXrl27UKtwdnYeOnRo165dR4wYsXTp0sWLF9+9e7dt27YgrRs1aqTVamNjY0G5dHNz69ix4/r162fNmlW/fn1/f//AwMDly5fv2bOnuLjY29u7SZMmo0aNgukFhImiwICq1IQQjuOcnJxwDkFk0XLlypW2bdsqHNj0UAsyWJIkaMqGy/GhxEx5QRCgDhRdtuL69euJiYkFBQX5+fn37t17+PAhdHCDUvg+Pj4+Pj7wAUtEQc0jQpWWpGe7YFHHoVCiOsNIcv0yKOuDZ2qjij9wslNfo9FAcTSMPaHnSbBlhTCmp978o/WoKy8Ki1/Lli1/+umnIUOGpKWlgVuUyHZpFVV9vfJCq8JoSkEnC4zjCxcuPHLkSEJCQt26dcs051Sx6cj/B7QSEfm1ogvV2Ww2T0/P0aNHQ/3LxMTEc+fOxcbGzpgxw9HRMSQkpGXLli1atAgMDEQjJXm0TZy9mRqEK3qg6PXp+T3s/fbt27/++mtaWtpvv/2WnJxsNBq7devWsWPHTz/9FEqRcxwHkWK0l5qW37TZ/E/FMKui9QeCIGzfvv3w4cPbt2/HEQS/FUWxpKTk7bffXrlyZfXq1eGKJycnHzlyBJqM4mr4JKEflJMb5BGqvaDinZTk4kcYlUCbRvHucpTrUVEkC2oUo0hA24go93vAuj8wE9y5c+fdu3ehXhiRO5HhLuDdAD0bnydOdtC+/PLLffr0GTt2LP3k0XEoKI3wsOkTxG/pCSysrHh/8Cf5+fn5+fnQ8ycvLw8CxXNzc0tLS3Nycu7cuWM0Gp2cnGrVqgVFHKEnARZx9PX1BQM4HCQajUW5yDsekkCVNyKPFpmC28rJAcD0u4NngcdPxxnQG5GoUJ1KDa0QS3Lj7QkTJmRlZX300UfPPfdc1ZM6qHspCobfvHlz6tSpPj4+kEyPzw8+V2gcqhq3/h9BfLQdApHHHPra0lX8wFKYkZGRkpJy4cKF3377LSMj4+rVq7Vq1WrYsGG9evVq1qzp4+MD1eW8vLwcHBxcXV1dXFwcHR3R9C2KoslkMhgMBoOhpKQErHSFhYV3797Ny8tLS0tLS0srKiry8fFp0aJFUFBQ8+bN27VrB5GtMKEUqYpdimHcJrd+IlQwkPoJ+iszMfxfQBO12Wyurq65ubnQAYM86sbLz8+fN2/e+++/7+rqCpf1+PHjJ06cmD9/vkBVjkR5Q+RYdnwziTzdw8frMSYL+hGELaBTSiH8FE44geoaW6ZHymq1rly58vTp01ARF6fzCsFD/1aSy2eqVKqioiIvL6+cnBwo+6dwtNDA6Kzw0dLflvdDeh08U0I93FidDuWizWYDrbrMlgaZmZlFRUXTpk2DbnTYM5zeEdYuFh7trKKWO6hzcrAYWOYxNAwjIRUhHqguL1iwICoqiuf5/0+/1QoF/bTwVHVAQsiGDRsWLlw4d+7cWbNmEfkZqOwmWXz+6bkaPAAbN25csGDBmjVrJk2apHgy6RqNVeCm/4PguCfK1S5pXZZQo5/iutHCG+KtMjMz09LSMjIysrOzc3JywK6Wm5trNptLSkpKSkrAJUdkhdXR0dHZ2dnJycnFxQViVqAorK+vb8OGDQMCAry8vLCFq2JSbqOK86M9j8hFMelDpScTf2qXZmL4v0hyLdCZM2e6urpCpiwtIXAirLimijcTFtKKAv3AwXOgGMJQGuETSU+gFM8rHi1IAnq5QmkWHu3JQ+Sn0P75ttfL7Ucc+kznz59vMBg+/PBDxSHRH1A44ZmSR2P06UcWUwZpkw491cCv0AxQ5jaJ3UtL/2sv9WG/aDbA6a1ikk5fYZFqTYreIHtLFBoAyhx5q4aaiBeKnoMSQgRBSE9Pf+edd3Jzc+fPn9+zZ8+nfaT/ALRdCt4gm82WmJi4bNkyLy+vFStW1K9fXzHUwgWhB+6qcd//KVDCoY2N1h8QHA8VY8L/Z05DDymP2ZriLaZXw+eBUEMTvAWgdeDgT54gXpqJ4f+Cl/j27dtNmza9ePFiYGCgInmUPBvhjoohgxbbkiRlZmY2atTo6tWrdevWfdpH+tSQ5Lwmpt/Yg+6PPXv2fPLJJzVr1pw7dy4UNkGZBOOpvVkPLTH2Y59iNVJ+r1zFIGu/pLxJEr3E3hRET8QvXbq0YsWKq1evLl68eMCAARDigJ6sZ2GUYPyDMDH8B/ieL1++/LfffoMqV0Q2YNIRN1V48KXNyAonLpz1oEGDOnfu/NZbbz3tI32aMDH8hBgMhj179qxatapp06ZTp059/vnnUZXEZwyjdWjriEpu10qoMAt7BzxgL3dxIWyKFsCEyudGAwbaOWiDh71dhBBy7NixdevW/f777zNnzoyMjFQYnB/fGo/BKBMmhv+LwugxcODATp06zZkzhxDCcRzd9+pJemBVdujpPGrDNpttzZo1J0+e/Pbbb588CLBKwsRweYB3HCQf7XzZuXPnxx9/TAiZNGnSuHHjoNSJ4uGBd5CUr+ba7ws/26//GDMjsfNW0L4bOu4MvTMGg2HLli27du0qKSmZO3fuiBEj8L1QhGuV6SthMB4De1b+gJdL1xJCYmJivvjii127doGVDOSuKPfcFcuvNVrZgagHcMYIgoBFvsxm85dffrlt27atW7eievFsymDGY4CHBxyoIIqgFvTo0aPPnz//3nvvJScnu7u7jxw58tChQ1gOEH7LyRFw+BpC4CR8q4ibI3IBDUwZUqA4KkUYP0cFuktyzgnGEvJyOQ6bzfbTTz+NHDnS29v76tWry5YtS0lJGTFihCg3F8e5uyRJUC+vvIBEBqM8mDb8B2BQwribS5cu9e7de926dYMHD1Y4sZ4F3w9t6JMk6Ztvvpk+ffqBAwdCQkIUVR6fQZg2XB60UZdQTxFIZVj+4MGDr7/++ssvv0xOTh44cCAUXvXw8ADZhpuyz/2jw3no1VD/VhwJyl37rzDW3WazwSQbtVuLxVJcXHzw4MFDhw79+OOP7du3Hzp06NChQ3med3R0VBwbvU32MDD+HkwM/xd4wzGzAl6qCxcuDBgwICoqCnoLkkdTZaowCg/Zli1bli1btn///ubNmzMNmDAx/Fjo0HqFdRpjnWCFnJycH3/88fDhw/Hx8Q0bNuzevXuLFi3Cw8N9fHwIVVSBjvl/DH9q01bMHVFwggDOzs4+ffp0UlJScnJyWlpanz59unfvPmjQIGdnZ/qVp53BoihCqVc6cIQ+cgbjSWBi+A9oHRdHivT09FdeeaVbt24rV64kz4AeTKdLwd85c+YkJSXt3LnT398fa0XZB68+UzAxXB7lpc8RuRQzptJidS2wQp0/f/6nn346f/786dOnNRpNu3btGjdu3Lx582bNmjVo0ICTs1loOYp25j/NSlcIYBCf6enpKSkpN2/eTElJOXHihCAIbdq06dKlS2hoaPv27YlcZ54OuaKzBohdMLYkp+r941eVUbVhYvgRFIFa6I569dVX8/LyPv7448DAQFJVSvM/BrgI165de+ONN2rWrLlp0yYs6UXsUtqfQZgYfhIUrlNa9cQPWM+VowrO3Lt378yZM9evX//ll19+++233NxcT0/Pxo0b165d29/f393dHeolVa9evVq1ai4uLlApFooME0JEUTQajaWlpWazuaCg4MGDB3l5efn5+bm5uXfu3Ll582ZWVlZ6erq/v3/Tpk2bNGkSEhLSrl076HBKyjIv07FaxK4JJl1pjpQTts1gPAYmhp+UzZs3z5gx47333ouMjOTknn34LV2pA6UUhKs8Rmb/O+JcfLRqOaEKG9FaL11TmuO4devWzZkz54MPPkCDPANhYvjfxGw2Z2ZmXr9+/d69e3fv3oWmILm5uYWFhcXFxSUlJWaz2WQyYQkzaLXi6Oio0+k8PT3d3Ny8vLw8PT19fHz8/f0bNGjg6+sbFBT0tE+LwfgvTAz/OXCJTCZTVlbW22+/nZOTs2LFitDQULqmPzrAwI9FO1bRRodb+zeDm+xrgeEB21exgXUSEhIWLVrk4+OzevVqUBGqvPb/V2Fi+N+hzEhAe1u0fTU32v7M9FRGBYeJ4T/BXgJ99dVXS5cubdKkyfTp0zt16kSonH26VS2sTNenxC38+8OBaNdfD4ob002EbDbbr7/+unLlyoyMjHnz5r300kt09uS/dqiVAiaG/01AzQV5XJ5hRvGUYg5Sme00nmV/CqMCwsTwn0DLUXpuHhMTs2rVqlatWr322mvdu3eny3xLVCuhJx84/kdALiOdB2Lf1UAQhBMnTqxbt+7SpUtz5swZMWIEvT4d6sIAmBj+X1NeRhyOV1jP8gmfTDo7+Z87TAbjH4CJ4T/HPngYBe3mzZuhtdnYsWNHjRoFCYh0m3dCibGnK8/sNQDocr958+bY2Fi1Wj158uSRI0diQA2aAdiwZQ8Tw/8OYMUhVA5SmRecjspWrM8UX0bFh4nhvwC24KVzGERRTEhI2Llz5+7du4cOHTpo0KAXXniBXsfeXEb+RdkG0hQLcGKJkvj4+H379u3du3fEiBGjRo3q0qULXZkEZbC96swgTAz/7ylPfIpUH8knySTm5GpZzCjNqLAwMfzn0EWV6Vhi+IsV+wghsbGx33333fHjx4cMGdKlS5eBAwdWr15d0SWQlFPY9l8gKyvr2LFj8fHxhw4d6tSp04svvjh8+HBnZ2fu0e6NoIKA+s7zPKtWbw8Tw/9r6FejzJnrX5rOKhIRGYwKBRPDT4TFYtFoNJhMTMc64b8YI11cXPz9998fPHjw2LFjderU6dq1a8eOHcPDw11dXUEl/TfFcE5OTlJS0unTp48ePZqdnR0WFjZkyJDu3bt7eXnRdRVwekHK6grMtAcFTAz/C5SpxcLUsDwJbW95YmENjIoPE8P/PDgWWCyW33///ciRI+fOnTtx4oSrq2twcHDr1q2Dg4ObN29ev359OpXiCQ3X5RXkA6xWa3p6+pUrV1JSUs6fP3/lypWHDx+2a9cuPDy8c+fOLVu2BIPzk5QGfMaBmQc2z6EnKDC4Y3s+Zi1gMBj/H5gY/uexz2uExr25ubnJyckXL15MS0tLTk7Ozs4OCAioW7eur69vvXr1/Pz8atSo4eHh4eXl5ebm5uLiotFodDodBi1brVZBEEwmU3FxsV6vf/DgwYMHD7Kzs+/cuZOTk3Pnzp3r16/r9fqaNWs2adKkadOmbdq0CQkJ8ff3hy3YVxlkPB7MsaY1KryMIIahQwC7pAwG42/DxPA/jKJcAO2RQrUJ46SuXLly//797Ozs9PT0zMxMvV5fUFCQn5//4MGDkpISq9VqNpsh44jjOI1GA+WBqlWr5u7u7ubmVr16dV9f37p163p7e9etW7devXp16tTRarUSVRMf8ybR3QvaMLPUPR5FoTHaHCpJ0oULFwYNGrR///5WrVoRKnqAwWAw/ipMDP9PsLcqox9RoVc9eYEqWi1TBLBgY6gnPBjGEwJmDPrawv1q27Zt48aNL1269Msvv1gsFnD5MxgMxt+AieF/GPuyAwopiN3fFKJU8a9Caj4+XZI8GmaFBbMwjVIRdQWm1H/mhKsueHlxqgRab2RkpCRJGzdu/M9//mO1Wjdu3MhCcBkMxt+GieH/FZjgCCKQbntO8+S9VNEuSuySJtESrjCJKzbLgrOeHEUFNFEULRaLg4PDZ599tnHjxgsXLkD3rY4dO06ePHn8+PHsqjIYjL8HE8P/MGVagGnLM21Dtq+0ReyyLB4T/qMI36WPAeW0/c/ts5IY5SGKoiAIaDn45Zdf2rRpc+HChWbNmkH01oULF9q0aXP+/PnWrVs/3UNlMBiVFCaG/1co4qWlR0va/uMZjWVK6zLFPOMJsc+rbtmy5eTJk8EojVlM27ZtW7t27YULF57y4TIYjMoJE8MMRhnYe/T/85//CILw2WefYUoxasmvv/46IeTTTz+lp1yPj5tjMBgMgKlHDEYZgFUfXMKEkJiYmDNnznz22We4AohYKGL60UcfnT59+vPPP6d/zmQwg8F4Epg2zGCUAd2J+fTp0x07dvz111+bNWsGshkqWUK8GyjH4DY+d+5cmzZtMByP5RMzGIw/hWnDDEYZqNVqaGths9lmzJixfv36Fi1aENlMjZKYEMLzfGlpacuWLbds2TJ58mRCCNTVIo+2eWYwGIwyYdowg1E2EJk1efJkjuPWr19Pp3rbR28R2X9sMpliYmIIlSD+FE+BwWBUfJgYZjDKZd26ddu3bz9x4gTKWgw+pw3OaMEWRbFdu3ZTp04dOXIktuRiMBiMx8DEMINRBoIgpKSktG7dOjk5uX379rAQZLDJZHJwcCByTRU6I1wUxZSUlFatWv3222/NmjWjdWUGg8EoE+YbZjDKQKVSvfbaa5s2bWrXrh1MVS0WC+jBDg4OkDHMcRwWucTuhyEhIVu3bh0zZgyTwQwG40lg2jDjmUbh5cXmhlOmTBEEAXOQ/lIrQ0EQJk+erFKp1q1bRzckZoKZwWDYw7RhxrMOqLZqtRpcvISQzZs3nz17FmWwyWQCGQxNJx+zHdiUSqX6/PPPf/nll61bt0qSBDLYbDaDmCePVh5lMBjPOEwbZjzrQMspyPS12WzgEj5//nzLli2xVxV54qbCkE9MCElOTg4NDYVMYlCIsQQmqyrKYDAQJoYZzzS0tRkEbevWradOnTphwgRYWGZjSnvgt2h/hpU3bNiwefPm8+fPE0JoAcwkMYPBQJgYZjzr0F03xo0bp9PpNmzYwHGcoiuzIi66PKCEliRJarVakqSJEydqtdpPPvkEvMJMIWYwGArYWMB41oHWwoSQ9evXp6ambtq0SRRFjuNABoM312q1Ylx0eRgMBkmSNBqNSqWCNSVJ2rx586lTp2JjY3FHrNUVg8GgYcMB45lGFEXUU/Py8rZs2WKxWLBtA1ikoeUwaMOP2Y6TkxNoujabDeQ6z/OCIGzZsuX27dsg2olsnf63zo/BYFR0mFGawVDWxgK1ldZZnyTX6EmSmhT9ExkMBoOJYUblBlRP2lxMi0OQr38p65fBYDD+TZgYZlRKQD1FLdZmsxG5BzCRvbDwFZPBDAajIsPEMKOyAs5aaPqLS+g4ZHtFmcFgMCoaLESLUVmB2hocxwmCACU4aK0XYq9AHkO0M4PBYFRAWIVbRqUEVF4IPwZ9F8KPURXGYKgnSfZlMBiMpwXThhmVEixHBX8FQdBqtVA6A2o7q1QqKAENS57y4TIYDEY5MN8wo1Jin/kDjmHFclavisFgVHDYCMWolCiKYMTExOh0Oo7jwB/McVzz5s1TU1OZb5jBYFRwmBhmVFZoH7BGo4mJiZEkyWq1SpJUWloaERGBlh6ohHX8+PH58+eXuSn4FXxG6Y5LYLNEjs2G5SjacX3FB3qWIEkS3eLQZrPhB1wH18ctWywW/BY+494Jm1swGFUFJoYZVQpUf8FbTAgpLi5+7bXX1Gp1t27dXFxcrFbr5cuXQ0JCOJlly5ZpNJro6OiEhARCGbRLSkoiIyN5no+IiDAajVar1Wq1Tp8+HbTts2fPEkKuXLnSunVr2E7//v31ej0hJDs7OyIiAqK4ly9ffurUKZ7nHR0dIZrs+eefN5vNN27cCA4OdnFx6dOnT15eniRJZ86cgZ9Uq1aN47jY2FiO4958881bt25ZrVatVmuxWKAUCZGjxJkkZjCqAEwMM6oUCslks9nWr19vNpsbNmw4Y8aMffv23bt3T6PR9O3bFzTgkydPoqKp0+nAwWy1Wm0223fffRcYGGg2m0eNGvXdd99pNJqVK1eaTCaTyZSQkDBp0qRbt26Joti7d29o6jBs2LCNGzcajcbo6OhRo0ZJknTlypUTJ044OTlJknT8+PHXXnvNaDQeO3asuLh46tSpmzdvNhgMHTt2XLBggc1mEwRh4cKFoMrHxMQ4ODhAiyeLxQIVrWFWAZL4Cds9MRiMig8Tw4wqhUqlMpvNzs7O2Bnp+vXrFy5cGD9+/KpVq1q1avXzzz/zPM/zPMhOQoiTkxPkHEOINSFEo9Go1eqRI0e++eabarVarVZnZGQ8fPjw3r17Y8eO1el0HTt27Ny5c1JSkrOzs81mg1+p1er69etrNJpPP/105MiRNpvNx8fHzc3N3d2dEAKNlUwmEyHk5s2bKpWqcePGoiiOGjXKYDAUFhbCfuGwVSoVTA5AP8azgx2B8o2aMYPBqNQwMcyoauh0OqPRqNVqjUajxWKJj48PCQmZN2+eTqerVauWk5MTKLtgW4aGSGq12mKxdOvWDeK8YmJiCCGiKObn50dERGzdujUyMtJms92/fx8UUI1G4+XlxfO81Wo9fPiwi4sLx3E7d+7s3bu3SqU6c+YMx3FOTk4eHh6XL182Go0g4DUaDei1PM//9NNP7u7uGo0mMDDwwoULDx8+JIRAQyfQyLVarSiKBQUFQUFBIHRhs3COULSEFelkMKoATAwzqhQQ9KRSqURRdHR0nDZtmru7+4wZMyRJMhqN9+7dAwGs0+lAm8TGSjqd7uTJk0ajMT8//9ixY9evX+c4ztfX99ChQ/Pnz4+KirJarbVr1yaECIJgNpv1er1GozEajX379jWZTJIkRUVFvfPOO5mZmYsWLTp9+nRpaWleXl5wcLBGo8G9gHZrs9nGjh1bWloKNEBBVgAAHKxJREFUsVqXLl1q0KABz/MajQaCsEAbVqvVrq6u6enpgiDcvHlzzZo1er0eI7lAYD+9K81gMP4ZmBhmVCnUanVpaakgCCqVavHixUVFRSNHjoyNjTUYDBcvXjx79mz79u1FUbRYLFgIkxCi0WhUKpXRaAQ1FMTqsmXLkpKSRFHUarU2m83b29vPz2/79u1ms/nixYsJCQmtWrWqVq0aFA8hhIDKCxqqwWDQaDRHjhy5ceOGyWSC6CrcXXBwcE5Ozq+//qpSqXbs2NG/f/+CggKbzQarwfwAJLRWqy0pKeE4zmw2o28YJDFrWcFgVA1YMUtGlcJmszk7O1sslsTERKvVevr0aYPBMGvWLBcXF57njx8/np+f36lTp+joaJBqoDcTQiwWS9euXUG/jIuLe+6554YPHz506NBLly6FhITs3r1bFMU5c+a8+eabzs7OarU6ISEhMDAwLS3txx9/XLNmDew9OTnZx8dn7NixPXv2FARh3bp1rVq1evjwIViYURLXqFHj3XffHT9+/NmzZ0NCQvbu3Xvo0KGRI0fGxcVhdwowXxcUFISEhMBBJiUl1ahRg8hRWnQTCwaDUXlhVbQYlRJw6FqtVo1GQwgB9RcVxHXr1n366afHjx/39va2r7fFYDAYFQemDTMqJRgqhaHFhBDI5Nm1a1d0dPTBgwe9vb0JISyxh8FgVGSYNsyorKAqjLWlVCrVsWPH+vbte/jw4bCwMDTYgur8NI+VwWAwyoE5lhiVFTRH8zyvUqlUKtXZs2f79++/a9euLl26gGCGIpRMBjMYjAoLE8OMSgnIV5qrV6++8sorn3/++cCBAzETCUQ1g8FgVFiYUZpRicHILKPR2L179yFDhkydOtXR0RHs1ZiDi+ZrBoPBqGgwMcyorFgsFkg6IoR069atbdu27777Lr0Cy+dhMBgVHyaGGZUYyFAaMWKEs7Pz559/jsoxJunCakweMxiMCgsbm54JsO8Q3eAWgCQf/Kz4FoOQy5yugcBT/AtrKpbTP8eDwTUVHXwVrX/hr81mg4MHrzAWrpoxY4bVat2wYQNuH/oJ0onCTAYzGIwKC9OGqzgQSMxxnMlkcnBwoL/CWw8SC4Ql1EqEooxPnm5LJ+8S2WVL7Aou4nIs+qioqgFFHFUqFS040cWLHyABSRTF6Ojow4cPHz16FMtU/bWrw2AwGE8blshRxQGhpVKpQAZjP10IWUIpSMtRKGsMyyUZWiTT+jEUx8BvYfvQkZ42C+PBgLDE7YM8BsGvVqs5jsM0JEmS1Go1Sm70BMOaoiiuX79+165diYmJWq0WV2MwGIzKBdOGqzggg0EcYh89nudpxZSWsmWKz79EeR3pQZxDr1xCiVVaY6Y1WpDQ8BUeLUwgrFbr3r17582bd+jQoSZNmsCvWKsDBoNRGWFi+FkBjdIGg8HJyUnxLe3TzczMvH79enp6elZWVk5OTlZWVkFBQWFhodFofPjw4cOHD41GI/6Q4zhHR0dnZ2cnJydnZ2dPT8+aNWt6eHj4+fl5eXkFBAQEBgb6+fnpdDoiS1la8FutVlCCUR2XJEkQBCi4Qc8VeJ7HYliHDx/u37//sWPHwsLC6ApZrFoWg8GodDAxXMVB/RJEGuigJpNJq9VC1/qbN29evnz50qVLv/32W1pa2vXr12vVqtWwYcP69ev7+vr6+PiAWK1Ro4aDg4Orq6urq6ujoyO9fZPJZDAYDAbDw4cP8/Pzc3JyCgsLMzMz9Xp9Wlra1atX9Xq9t7d3mzZtgoODg4KCwsPDPT09Ia/XZrOhSRnVWbRR08eP3548ebJnz5779u3r3bs3qr8ozv/9K8xgMBj/H5gYruIonMHA+fPnf/755+PHj//6669OTk5NmzZt3rx5ixYtGjVq1KRJk/I2oliCIV2wxH4FNE2Lopienv7LL79cvXr18uXLycnJZrM5LCwsLCysc+fOrVu3hvXBsIzbBNUWdw0TiLS0tF69ei1ZsmTUqFEwjWB1ORgMRqWGieFnhaKiov379x8+fPjHH38MDAzs0qVLhw4dwsLCfHx87FdWBFGXueTx6+Ny7DOImi7P8/n5+ceOHTt//vyxY8fS09MjIiIiIiK6devm5+eHhmWFHk8I0ev1PXv2HDly5MyZM1E8gzO7vANjMBiMCg4Tw5UM2nJL5IxYWuVF/ysol0ajcefOnfv37z99+nS/fv2ef/75F1980dXV9WnFFePxo7p87969kydPfv/99wcOHOjcufPgwYNfeuklV1dXhWOYENKjR49OnTotXrwYTxA3y6K0GAxGJYWJ4cqHKIqCIND9hSDESZFTlJiYuH379t27d4Ngi4iIgE5EdA3Ip4LVaoXMYJSaqAF/8803X3/99XfffffCCy9MmTKlQ4cO4CSWJGn48OGenp7vv/8+nf1Mx4GbzWYIBGMwGIxKBBPDlQxQeWmhi2olxEILgrBnz561a9eazebJkyePGjVKp9NhMQ3am/u0QEWWVujp9KQHDx7s3r1769athJBp06aNHDly/PjxJpNp165dhEo1xiuAHmKWPcxgMCodTAxXPkCdlSTJYrHodDo6BHrTpk0ffPBBSEjI9OnTu3TpoohAJrLMFgTh6SrEhBBBEDiOA/OyzWbjeZ4OyAJZm5CQsHbt2qSkJF9f35SUFDwdnEmgAGbmaAaDUUlhxf8qGZDhAx/ABgsy6YcffmjTps3Ro0d37NgRFxfXoUMHIkctgdsYfgIlrp6iDMYKXFixkuM4rVYLhbEgadhisYClPTw8fN++fQcOHAgICGjevPnBgwcxIAvqS0MpD0II/IrNKRkMRqWDacOVD9T8TCaTTqdLS0tbsGBBVlZWVFRU9+7dFZFKGKgMC596XLEipppOEYYjpE3WdLWvI0eOLFmypHbt2kuXLq1bt65WqwUDwP+/7BeDwWA8RZg2XPkwm80gvRwcHDZs2NChQ4dOnTolJSX17NmT9vuazWYiZwqBjRdF2lMUWugAttlsIGgxPQm0dhC9KIwxZ6lHjx5JSUnt27dv06ZNbGysKIparRZCtGDLFosFNGMGg8GoRDBtuJKB/lFBEF599VW9Xr9mzZrGjRuTR7VJTOAhlCpMe16fVqAWHhL8q0g0UqjCCv0Y3Ml3796dOHGin5/fZ599hvZ5VsOSwWBUUpg2XKEBjRabBEN4sCAIt2/fDg0NrV279oEDB4KCguBbkGS0Eomqp6Kr4FMMlsZDoo/E/sDo5bgQ3Ml169Y9fPiwn59feHj47du3sQA1lsVmMBiMSgQTwxUU6PQHgdCEEJvNhhHCly9f7tq162uvvRYVFUVkZfcpH+6/TnR09IQJE9q3b//7778T2RLAPMQMBqPS8SyO4JUL2iTL83xKSkrPnj0//fTTIUOGKIpMPWuIohgfHx8ZGfn999+3aNGCZQwzGIzKCBPDFRTIiAWvJwQuqVSq3Nzcbt26vfPOOyNHjiRU+YtnsGwFert37ty5cuXKpKQkqND5bM5IGAxG5YWJ4QoN3V9Io9H069cvNDR03rx5oAErOh88U9BJWatWrTpx4sSBAwdYEQ8Gg1HpYKpDBQVcwhzHGY1GQohWq12xYoW7u/v8+fMhyQeUYPKsdhbiOA785YSQOXPmODg4REdHP5uXgsFgVGqYNlxBUXh8MzIymjRpkpKSEhAQgM2UIIJarVY/gxk7UECbyBfq1q1bwcHB165d8/f3f9qHxmAwGH8BJoYrLpgBzHHcW2+95eLismzZMrS7Yjnlp94x6WmBkw+4AosXL9br9WvXrn3ax8VgMBh/AWaUrrjADInn+XPnzq1du3b58uVQEVqlUm3fvl2j0cAKWq0WU2ZBP4a/UOKDUGWcYbOwEIE4L0KIxWIhchcmxcqwjiIxl9641WpV7AV+Qq8DtbEIIXl5eVOmTNHr9XCoy5Yt4yh27doFq8FZwGfoSIEbx6ZSsFmYhcyYMWP9+vUFBQWKc1ScL4PBYFQomBiuoEDFKJCICQkJ7u7uN27cEEXRYrHk5OQcOnTo2rVrdOUpWBm0Q2iTADIbtoaCje4PSAjBXGQQZorsW6zYBf9i6WZooqBSqaBXBDQ/xgohUHIE629AAjRUnYSF7u7ufn5+ly5dIrJFfenSpXCmqamp27Ztu3r1KiFEpVLBqcFe0BeOsxM4KliNEOLi4jJ8+PDDhw9jhUtYTp8Cg8FgVDSYGK6ggNACoXjs2DEfHx+z2cxxnFqtdnd31+l0+fn5paWlr7/+uk6n4zguMTGR47ijR49yHOfg4NCiRYsLFy68/fbbaWlpVqs1PT19wIABV69e5Xm+uLi4R48ePM/37NkzJydn6tSpHMeBHOV5PiYmZvny5e+9915ERISLi0tUVBQsP3nyJBwPaOccxyUnJ69cuZIQIghCWlrazJkzHzx4kJSU9NFHH8HCqKio1atXq1SqXbt2OTk5Qc5V//79i4uLAwMD7927BzFW0CdKEASr1VqvXr369esXFRUtXbo0Li6O53m9Xj99+vTExERCyN27d5s1a8bzfJ8+fYqKimw2W35+fkREhEql4jiuQ4cOwcHB3377rUIvZzAYjIoME8MVFDARE0JEUbx27ZqnpyeaedPS0u7fv+/t7f3xxx/7+PhYLJYzZ87MmDEjLS1Np9MtX768pKQkJSWlcePGarUa/KaxsbGZmZlarbawsHD27NlLliyx2WyRkZEbNmxYt26dzWabOHFiYmKiJEnjxo0jhOzateuDDz64e/fuuXPnTpw4ceXKlaioqJs3b0qStGPHjtjY2NLSUuyjAC0W1Gq1k5MT7NFqtd66dSs+Pt5msxUWFu7bt+/cuXOiKGZlZXl5ealUquDg4NTUVKvVCtozSGiNRpOenl5QUNCwYcPZs2dfvHjxypUrN2/e7Ny5c1hYWHFx8cSJE+fOnSsIQteuXWfOnMnzvEajqVOnjl6vLy0t7d27d9OmTS9evAgucyJrzGAY+PfvIIPBYDwJTAxXUDDqiuO4nJyckpKSkJAQ0IabNGmyYMECd3f35OTkHj16CIIQHBzcvn373NxcMOGCSdZms1mtVpVKlZiYaDabn3/+eZVKpdfrS0pKgoKCeJ5/8cUXFy9eDC5bbBfBcZzJZBo2bFjjxo3d3NxGjx79888/N27c+MiRI/Xr17darYGBgWD0dnBwAGszIUSj0ZhMJo7jLBYLdH9av379jBkzYBLQqFGjatWqEUJUKpWjo6MkSUFBQQaDITMzE6ziCxYsAL2/adOmb7zxhpeXl4ODw6uvvrpkyZL333+/V69eHMfdu3fPy8srIiKC5/kXXnghOzv72rVrVqu1du3azs7OPM+bzeZ69erdvXuXPOqiZmoxg8GoyDAxXEEBbRiEnNForFatWlpaGjhQjUZjWFgYyMvOnTs7Ozu7uLhs2bLl5s2bVqtVq9VCVyIHBwee500m04EDB0aNGgWfs7Oz8/LyQOKq1WowMptMJmj6C+5eZ2fn2rVrg18WOklYrdYVK1ZwHOfi4tK+fXuTyQTpUtim0Gq1Ojg4GI1GsJCfPn3ay8urTp06Op3O2dl54cKFK1eu5DjOy8sLDpLneS8vr9zcXHBgL1++HE7t4cOHW7ZsiYuLEwQhKCgoODh4wIABNWrU4DguNze3uLhYEASLxVKzZk2omVVaWlqtWjU4GNDFS0tLCZVLDSf49G4jg8Fg/AlshKqggDYMkhK0PTACC4Kg0+ksFgvP8x4eHteuXYP2w0ajccyYMaAHQyAxRD+dPn26evXq/v7+IJg9PT1r1KgB8pUQYrFYOI6D4CybzQa2ZYvFkpaWButcvXrV0dHxzJkzp06dys7ONhqNycnJ1apVA8UX5D2Ea0mSpNFoLBaLwWA4dOjQ4MGD1Wo1aKLp6ekeHh6lpaV5eXmNGjWCyK/u3bv/8MMPhBA8NUmSnJ2de/TocfXqVZVKdeHChcLCwosXL6alpVksljp16ri5ucE1KSwsLCwsFEUxPT0dTken0z18+FAURRcXF7yGGHHGFGIGg1FhYWK4QgOxwZ6enuBAJYSAeqrVat3d3Zs1a7Zr1y5JktLS0tq2bQtRVBDJRQgxm81Go3Hjxo1DhgzRaDQgIz08PIqKilJTU6Ea87Rp08CVK4qio6MjqLYqlerMmTMFBQX5+fmnTp3q0KEDyGYnJyeDwRATE1NaWmqz2SBjCsOnscD16tWrHR0dg4KCQBO12Wz79u0bOHCgk5OTIAgmk8nR0ZEQ0rBhw4KCAr1ej9HaFovFbDYnJCQ899xzRUVFa9euXbhw4auvvvrFF1/Akefm5h4+fJjn+a1btwYEBPj4+Bw6dKhdu3ZETh3OyMioVasWobKwAOYbZjAYFRYmhisooNGC/GjSpElRUZFCtAiCMHPmzJycHJ7nn3vuuVmzZrVr1w7CpK1WK+Ysvf3224GBgWC2lSTJ29t7zZo106dP53l+x44dy5cvV6lUDg4OGo2mpKSEyIK/RYsWXbt29fX1HT16dJcuXVq2bNmgQQNvb+927dpFREQYjcaHDx8SQhYuXAj6elBQ0Pvvv//NN98IgtC7d+9p06YROVspOTk5KyurWbNmRA7/BjXa0dHR0dExPz+f47jFixfDEgcHB19f35deeumdd94ZP368u7t748aNmzRpsnbtWnd39w8++ODdd9/lef7MmTPLly9fu3bt+++/36RJE7Va7eLismbNmnfeeadJkyZE7moMBS+JnVRmMBiMigOz11V0bDbbVzLgQAUrrkajgYgqhe+Tbm+gaJKI5bdASINiDfZk0G7hV1FRUUFBQa+88gq9LzCDoycYpC/6mAkhO3fu5DhuxIgRsF9IJsZTAAM1bBAeOdShwX5ON6iA7RM5yBlUfMhros9xyZIl3bp1Cw0NFUVRo9Hk5uZ26tTpjTfemDZtGp4XnVr9v7pDDAaD8f+AjU0VFFTgVCpVnz59vv7667y8PBS6Go3GbDaDcgn1MYhcNgu8toQqzUGXswCJhe5SrFGFIlMQBAhmBgEG4hlMvli2GrYA+wUJivIV4rlgHbruBwpUIquqWOUD5gRYnQN/C9FbYNbW6XTwLVQggb2rVCqtVgtpS4QQg8GQkZHRr18/+4vJjNIMBqPCwrThigvWTBZF8c033/T09Fy4cCGt56EySktEkLhGo1Gj0ZTZ7wGkMkpiWnUmsozEXUNqL3aPwJKZKLbxtyCGUR7jZ9w+7g6VaeyjbH/WoijabDaIU8Pa2mXq/ZIkQXz4woUL9Xr9+vXrcU1cgYlhBoNRYWFiuIKiMKhmZmbWr18/NTU1MDAQ5Rmsg72G8IeoB6MwAysxSF+Q3PRqij0qNkLkNhK03Rjlrr0UVwhpFKKEqkBJKEMxxlpjjwqUxGhRh59geUvFlnmez8jIaNy4cVpaWq1atco0yzMYDEbFhI1QFRQMLwJq1qy5fPny+fPnQ3wTSFP4CmQwKIWE0m6hFDPIYFA6QWhh9BaaeXFl+CGGhpnNZqzOQeQgbejiADZkTq56Teu+WMPZarWCvgth3mBepntF4JlCvjLqvmq1Gn4IvZbhyGEGgKZy+IxS9q233lq0aFHNmjVRBtPNmNlck8FgVFiYGK64gKhDf+qsWbNMJtOHH35ICMFUXRA2IBE1Go0oiiDzQJjRAgmkIGqlGEJFtysG4zaur9Pp6ERkQgj0d4LNgv4K8pujukFgqi5kSRFC0LMLFUIU8WIgTUFBh58TOZkYUpuILHFRxMJGwNksSVJ0dLTVap0zZ459RDQzRzMYjArOs9UrvhJBi0YQWjabbcuWLeHh4Z6enq+++ip5tMsQiChRFCGiGAQtLEcPMX5QuEvRAgxCF2QnmnzpkGPYJkZUgf5Ku3ix+SCsBsIeNoKaK+24hUPCo0WjN3zGHaEqjHotfrtt27bdu3f/9NNP2IAZw7vwBJkwZjAYFRbmG65kpKSk9OnT5+OPPx4yZAjt9aQFpL3jtuKD0whQpvED/S2xc2B/+eWX//nPf44cORISEkKYJ5jBYFRCmDZcyQgJCYmPjx8wYEBpaemYMWMIpUqSRyOWK5cYRls0/IvRW5jIhDFcmOUcExOzaNGiQ4cOhYSE2IeAMRgMRqWAacOVD0EQbt26NWbMmK5du0ZHR2NyMJ2eZB8IXfHByQREYEFUF36LJwjTi9mzZycmJsbFxQUEBCi+ekqHz2AwGH+HyjRMMwgh4GetX79+YmJiTk5Or1697t69S2cPEznsGVsmVDrUarVarUYXMpEd5PAhPT29V69eeXl5CQkJAQEBsD5d+5PBYDAqEUwMV0pA8HzxxRdDhw5t1KjRxo0biRweBVHH8EFRZKMio1CFYQnMJ+ArEMNr165t3br1kCFDYmJiHBwcRFHENC0mgxkMRmWEieFKBvhKsZJzZGTk5cuXExMTO3fufPjwYRBamLdTiVoa0CHWRI6+xo5PhJBjx4516tTpzJkzZ86cmThxIqr+MNWAxKeneQIMBoPxt2C+4UqG1WpF1ZBQXRP279+/YsWKOnXqLFmyJCQkRFGIquIDbl06TQs7T5w/f37p0qVZWVnLli3r1asXXZNL0cJB4SBnMBiMig8Tw5US8JXSQVggijZt2vTee++FhITMmDEjLCxMUa65IkMnWUEGsM1mS0xMXLdu3ZUrV2bNmjVhwgSLxQJdJeAnCqFbieYcDAaDgTAxXHUA6SVJUmxs7MaNG9Vq9SuvvPLaa69BlQz7+ht0ko8isto+5FjRB+JvgE+afVowkQt1wQGYTKadO3du3LjRwcFh4sSJY8aMoat0KSpLMxgMRqWGieEqgn2Bi59//nnnzp1xcXFDhgwZMWJE9+7dMfyYPNpZAT7TqbqP2T69hMh6eXk/gXUU3+IkACt14ArffffdV199tW/fviFDhkyYMCEsLIxQGcOKLfzdS8VgMBgVCCaGqwgg1VCjBeVSpVIZDIa9e/fu3bv3zJkzERER/fr16927t6urK9Z9JJSOixFStOaq2FGZavGTK9N0myZYeP/+/YSEhPj4+O+//z48PHzw4MGDBg1yd3fH32KVSmzR+P+/XAwGg1FBYGK4ikCLNwCCuVBxLCgo+OGHH+Lj4+Pj41u3bt26devQ0NCwsDBvb29sNQhiEvsuYDLu/7V39i6LA0EYt9PECCqERC0UMaCFGBu/Ovv8z0KaCKISK2EbFwkaI2qxxMSkeIvlhiXvccV7zV2YX7lskt3qyTO7MwNNFTNhZF7QSszx5Z8TOzH8tial53nr9dpxnNVqFQTBYrGwLMuyrGq1ChvJnH/DSr7vFEEQ5P8FZTg/cLNY+GUfRcmEC9V80LbtzWZj2/Z2u5UkaTgcjsdj0zR7vd5gMPjBpzMWOeOG0zQ9nU77/Z4Q4rqu4zjv93u5XM7n89lsNp1Oub7GcVwsFtM0zZS0LAjmviCYYwRBkByAMpwfvt974oqVJAlc0QIN47Y1SRJK6eFw2O12rutSSo/HY6vVMgyj0+k0Gg1N03Rdr9VqqqqWSqVKpaIoiiRJov2NoigMwzAMGWP3+933/efzeT6fgyAghBBCXq+Xpmmmafb7/dFoNJlM2u02ZF6BX4fuDmI6FnSIElOSsGglgiC5AWU4J2S6O/D6U2LwNtMHEMZF8eYNiT3PI4RQSq/Xq+/7l8vl8Xjcbrc4jhljjLEoini7Bf6gJEnlclmWZUVR6vU6l+1ms6nrumEY3W5XVVVZlsV1gtaK+c2fzwdKdnBnLC5V/JnAuDSCILkBZTg/gMJxreLHqLy4tDgNDKV43PuX/vLPQWlxGhwzZ6ZB3jC8h2+Hx6jBNEO3pR8vFUEQ5J/iC/NpdrFYW8f6AAAAAElFTkSuQmCC;" parent="1" vertex="1">
          <mxGeometry x="20" y="-70" width="642" height="352" as="geometry" />
        </mxCell>
        <mxCell id="8375zv5q1dLebi3DOs6F-3" value="Регистрация/Вход" style="ellipse;whiteSpace=wrap;html=1;" parent="1" vertex="1">
          <mxGeometry x="180" y="610" width="120" height="52" as="geometry" />
        </mxCell>
        <mxCell id="8375zv5q1dLebi3DOs6F-4" value="Пользователь" style="shape=umlActor;verticalLabelPosition=bottom;verticalAlign=top;html=1;outlineConnect=0;" parent="1" vertex="1">
          <mxGeometry x="290" y="500" width="30" height="60" as="geometry" />
        </mxCell>
        <mxCell id="8375zv5q1dLebi3DOs6F-8" value="Удалить аккаунт" style="ellipse;whiteSpace=wrap;html=1;" parent="1" vertex="1">
          <mxGeometry x="320" y="610" width="120" height="52" as="geometry" />
        </mxCell>
        <mxCell id="8375zv5q1dLebi3DOs6F-9" value="Создать группу задач" style="ellipse;whiteSpace=wrap;html=1;" parent="1" vertex="1">
          <mxGeometry x="380" y="490" width="120" height="52" as="geometry" />
        </mxCell>
        <mxCell id="8375zv5q1dLebi3DOs6F-10" value="Удалить группу задач" style="ellipse;whiteSpace=wrap;html=1;" parent="1" vertex="1">
          <mxGeometry x="572" y="390" width="120" height="52" as="geometry" />
        </mxCell>
        <mxCell id="8375zv5q1dLebi3DOs6F-13" value="Посмотреть все группы задач" style="ellipse;whiteSpace=wrap;html=1;" parent="1" vertex="1">
          <mxGeometry x="120" y="370" width="120" height="52" as="geometry" />
        </mxCell>
        <mxCell id="8375zv5q1dLebi3DOs6F-14" value="Посмотреть все задачи во всех группах" style="ellipse;whiteSpace=wrap;html=1;fontSize=11;" parent="1" vertex="1">
          <mxGeometry x="200" y="318" width="120" height="52" as="geometry" />
        </mxCell>
        <mxCell id="8375zv5q1dLebi3DOs6F-15" value="Посмотреть все задачи в конкретной группе" style="ellipse;whiteSpace=wrap;html=1;fontSize=9;" parent="1" vertex="1">
          <mxGeometry x="330" y="318" width="120" height="52" as="geometry" />
        </mxCell>
        <mxCell id="8375zv5q1dLebi3DOs6F-16" value="Создать задачу" style="ellipse;whiteSpace=wrap;html=1;" parent="1" vertex="1">
          <mxGeometry x="110" y="490" width="120" height="52" as="geometry" />
        </mxCell>
        <mxCell id="8375zv5q1dLebi3DOs6F-17" value="Удалить задачу" style="ellipse;whiteSpace=wrap;html=1;" parent="1" vertex="1">
          <mxGeometry x="-30" y="310" width="120" height="52" as="geometry" />
        </mxCell>
        <mxCell id="8375zv5q1dLebi3DOs6F-19" value="Изменить приоритет" style="ellipse;whiteSpace=wrap;html=1;" parent="1" vertex="1">
          <mxGeometry x="-30" y="430" width="120" height="52" as="geometry" />
        </mxCell>
        <mxCell id="8375zv5q1dLebi3DOs6F-20" value="Изменить срок выполнения" style="ellipse;whiteSpace=wrap;html=1;" parent="1" vertex="1">
          <mxGeometry x="-30" y="490" width="120" height="52" as="geometry" />
        </mxCell>
        <mxCell id="8375zv5q1dLebi3DOs6F-21" value="Изменить название" style="ellipse;whiteSpace=wrap;html=1;" parent="1" vertex="1">
          <mxGeometry x="-30" y="550" width="120" height="52" as="geometry" />
        </mxCell>
        <mxCell id="8375zv5q1dLebi3DOs6F-22" value="Изменить описание" style="ellipse;whiteSpace=wrap;html=1;" parent="1" vertex="1">
          <mxGeometry x="-30" y="610" width="120" height="52" as="geometry" />
        </mxCell>
        <mxCell id="8375zv5q1dLebi3DOs6F-23" value="Изменить название" style="ellipse;whiteSpace=wrap;html=1;" parent="1" vertex="1">
          <mxGeometry x="572" y="448" width="120" height="52" as="geometry" />
        </mxCell>
        <mxCell id="8375zv5q1dLebi3DOs6F-24" value="Изменить описание" style="ellipse;whiteSpace=wrap;html=1;" parent="1" vertex="1">
          <mxGeometry x="572" y="508" width="120" height="52" as="geometry" />
        </mxCell>
        <mxCell id="8375zv5q1dLebi3DOs6F-25" value="Добавить комментарий" style="ellipse;whiteSpace=wrap;html=1;" parent="1" vertex="1">
          <mxGeometry x="-30" y="670" width="120" height="52" as="geometry" />
        </mxCell>
        <mxCell id="8375zv5q1dLebi3DOs6F-27" value="Посмотреть конкретную задачу" style="ellipse;whiteSpace=wrap;html=1;fontSize=9;" parent="1" vertex="1">
          <mxGeometry x="390" y="370" width="120" height="52" as="geometry" />
        </mxCell>
        <mxCell id="8375zv5q1dLebi3DOs6F-29" value="" style="endArrow=none;html=1;rounded=0;entryX=-0.015;entryY=0.574;entryDx=0;entryDy=0;entryPerimeter=0;" parent="1" source="8375zv5q1dLebi3DOs6F-4" target="8375zv5q1dLebi3DOs6F-9" edge="1">
          <mxGeometry width="50" height="50" relative="1" as="geometry">
            <mxPoint x="340" y="530" as="sourcePoint" />
            <mxPoint x="390" y="480" as="targetPoint" />
          </mxGeometry>
        </mxCell>
        <mxCell id="8375zv5q1dLebi3DOs6F-30" value="" style="endArrow=none;html=1;rounded=0;entryX=1;entryY=0.5;entryDx=0;entryDy=0;" parent="1" source="8375zv5q1dLebi3DOs6F-4" target="8375zv5q1dLebi3DOs6F-16" edge="1">
          <mxGeometry width="50" height="50" relative="1" as="geometry">
            <mxPoint x="290" y="530" as="sourcePoint" />
            <mxPoint x="388" y="530" as="targetPoint" />
          </mxGeometry>
        </mxCell>
        <mxCell id="8375zv5q1dLebi3DOs6F-33" value="" style="endArrow=none;html=1;rounded=0;entryX=0.5;entryY=1;entryDx=0;entryDy=0;" parent="1" source="8375zv5q1dLebi3DOs6F-4" target="8375zv5q1dLebi3DOs6F-27" edge="1">
          <mxGeometry width="50" height="50" relative="1" as="geometry">
            <mxPoint x="364" y="482" as="sourcePoint" />
            <mxPoint x="414" y="432" as="targetPoint" />
          </mxGeometry>
        </mxCell>
        <mxCell id="8375zv5q1dLebi3DOs6F-36" value="" style="endArrow=none;html=1;rounded=0;entryX=0.461;entryY=1.036;entryDx=0;entryDy=0;entryPerimeter=0;" parent="1" source="8375zv5q1dLebi3DOs6F-4" target="8375zv5q1dLebi3DOs6F-15" edge="1">
          <mxGeometry width="50" height="50" relative="1" as="geometry">
            <mxPoint x="320" y="520" as="sourcePoint" />
            <mxPoint x="460" y="432" as="targetPoint" />
          </mxGeometry>
        </mxCell>
        <mxCell id="8375zv5q1dLebi3DOs6F-37" value="" style="endArrow=none;html=1;rounded=0;entryX=0.47;entryY=0.981;entryDx=0;entryDy=0;entryPerimeter=0;exitX=0;exitY=0.3333333333333333;exitDx=0;exitDy=0;exitPerimeter=0;" parent="1" source="8375zv5q1dLebi3DOs6F-4" target="8375zv5q1dLebi3DOs6F-13" edge="1">
          <mxGeometry width="50" height="50" relative="1" as="geometry">
            <mxPoint x="330" y="530" as="sourcePoint" />
            <mxPoint x="405" y="382" as="targetPoint" />
          </mxGeometry>
        </mxCell>
        <mxCell id="8375zv5q1dLebi3DOs6F-38" value="" style="endArrow=none;html=1;rounded=0;" parent="1" source="8375zv5q1dLebi3DOs6F-4" target="8375zv5q1dLebi3DOs6F-14" edge="1">
          <mxGeometry width="50" height="50" relative="1" as="geometry">
            <mxPoint x="290" y="520" as="sourcePoint" />
            <mxPoint x="266" y="379" as="targetPoint" />
          </mxGeometry>
        </mxCell>
        <mxCell id="8375zv5q1dLebi3DOs6F-39" value="" style="endArrow=none;html=1;rounded=0;entryX=0.973;entryY=0.684;entryDx=0;entryDy=0;entryPerimeter=0;exitX=0;exitY=0.5;exitDx=0;exitDy=0;" parent="1" source="8375zv5q1dLebi3DOs6F-16" target="8375zv5q1dLebi3DOs6F-17" edge="1">
          <mxGeometry width="50" height="50" relative="1" as="geometry">
            <mxPoint x="340" y="530" as="sourcePoint" />
            <mxPoint x="390" y="480" as="targetPoint" />
          </mxGeometry>
        </mxCell>
        <mxCell id="8375zv5q1dLebi3DOs6F-40" value="" style="endArrow=none;html=1;rounded=0;entryX=1.006;entryY=0.629;entryDx=0;entryDy=0;entryPerimeter=0;exitX=0;exitY=0.5;exitDx=0;exitDy=0;" parent="1" source="8375zv5q1dLebi3DOs6F-16" target="8375zv5q1dLebi3DOs6F-19" edge="1">
          <mxGeometry width="50" height="50" relative="1" as="geometry">
            <mxPoint x="137" y="508" as="sourcePoint" />
            <mxPoint x="97" y="416" as="targetPoint" />
          </mxGeometry>
        </mxCell>
        <mxCell id="8375zv5q1dLebi3DOs6F-41" value="" style="endArrow=none;html=1;rounded=0;entryX=1;entryY=0.5;entryDx=0;entryDy=0;exitX=0;exitY=0.5;exitDx=0;exitDy=0;" parent="1" source="8375zv5q1dLebi3DOs6F-16" target="8375zv5q1dLebi3DOs6F-20" edge="1">
          <mxGeometry width="50" height="50" relative="1" as="geometry">
            <mxPoint x="120" y="526" as="sourcePoint" />
            <mxPoint x="97" y="416" as="targetPoint" />
          </mxGeometry>
        </mxCell>
        <mxCell id="8375zv5q1dLebi3DOs6F-42" value="" style="endArrow=none;html=1;rounded=0;entryX=1;entryY=0.5;entryDx=0;entryDy=0;exitX=0;exitY=0.5;exitDx=0;exitDy=0;" parent="1" source="8375zv5q1dLebi3DOs6F-16" target="8375zv5q1dLebi3DOs6F-21" edge="1">
          <mxGeometry width="50" height="50" relative="1" as="geometry">
            <mxPoint x="120" y="526" as="sourcePoint" />
            <mxPoint x="100" y="526" as="targetPoint" />
          </mxGeometry>
        </mxCell>
        <mxCell id="8375zv5q1dLebi3DOs6F-43" value="" style="endArrow=none;html=1;rounded=0;entryX=1;entryY=0.5;entryDx=0;entryDy=0;exitX=0;exitY=0.5;exitDx=0;exitDy=0;" parent="1" source="8375zv5q1dLebi3DOs6F-16" target="8375zv5q1dLebi3DOs6F-22" edge="1">
          <mxGeometry width="50" height="50" relative="1" as="geometry">
            <mxPoint x="120" y="526" as="sourcePoint" />
            <mxPoint x="100" y="586" as="targetPoint" />
          </mxGeometry>
        </mxCell>
        <mxCell id="8375zv5q1dLebi3DOs6F-44" value="" style="endArrow=none;html=1;rounded=0;entryX=1.015;entryY=0.321;entryDx=0;entryDy=0;exitX=0;exitY=0.5;exitDx=0;exitDy=0;entryPerimeter=0;" parent="1" source="8375zv5q1dLebi3DOs6F-16" target="8375zv5q1dLebi3DOs6F-25" edge="1">
          <mxGeometry width="50" height="50" relative="1" as="geometry">
            <mxPoint x="120" y="526" as="sourcePoint" />
            <mxPoint x="100" y="646" as="targetPoint" />
          </mxGeometry>
        </mxCell>
        <mxCell id="8375zv5q1dLebi3DOs6F-45" value="" style="endArrow=none;html=1;rounded=0;" parent="1" source="8375zv5q1dLebi3DOs6F-4" target="8375zv5q1dLebi3DOs6F-3" edge="1">
          <mxGeometry width="50" height="50" relative="1" as="geometry">
            <mxPoint x="120" y="526" as="sourcePoint" />
            <mxPoint x="102" y="697" as="targetPoint" />
          </mxGeometry>
        </mxCell>
        <mxCell id="8375zv5q1dLebi3DOs6F-46" value="" style="endArrow=none;html=1;rounded=0;entryX=0.5;entryY=0;entryDx=0;entryDy=0;" parent="1" source="8375zv5q1dLebi3DOs6F-4" target="8375zv5q1dLebi3DOs6F-8" edge="1">
          <mxGeometry width="50" height="50" relative="1" as="geometry">
            <mxPoint x="300" y="564" as="sourcePoint" />
            <mxPoint x="265" y="621" as="targetPoint" />
          </mxGeometry>
        </mxCell>
        <mxCell id="8375zv5q1dLebi3DOs6F-48" value="" style="endArrow=none;html=1;rounded=0;entryX=0.008;entryY=0.618;entryDx=0;entryDy=0;entryPerimeter=0;exitX=1;exitY=0.5;exitDx=0;exitDy=0;" parent="1" source="8375zv5q1dLebi3DOs6F-9" target="8375zv5q1dLebi3DOs6F-10" edge="1">
          <mxGeometry width="50" height="50" relative="1" as="geometry">
            <mxPoint x="330" y="556" as="sourcePoint" />
            <mxPoint x="390" y="620" as="targetPoint" />
          </mxGeometry>
        </mxCell>
        <mxCell id="8375zv5q1dLebi3DOs6F-49" value="" style="endArrow=none;html=1;rounded=0;exitX=0.923;exitY=0.288;exitDx=0;exitDy=0;exitPerimeter=0;" parent="1" target="8375zv5q1dLebi3DOs6F-23" edge="1">
          <mxGeometry width="50" height="50" relative="1" as="geometry">
            <mxPoint x="501" y="515" as="sourcePoint" />
            <mxPoint x="583" y="420" as="targetPoint" />
          </mxGeometry>
        </mxCell>
        <mxCell id="8375zv5q1dLebi3DOs6F-50" value="" style="endArrow=none;html=1;rounded=0;" parent="1" target="8375zv5q1dLebi3DOs6F-24" edge="1">
          <mxGeometry width="50" height="50" relative="1" as="geometry">
            <mxPoint x="500" y="520" as="sourcePoint" />
            <mxPoint x="593" y="499" as="targetPoint" />
          </mxGeometry>
        </mxCell>
        <mxCell id="8375zv5q1dLebi3DOs6F-51" value="Изменить цвет" style="ellipse;whiteSpace=wrap;html=1;" parent="1" vertex="1">
          <mxGeometry x="572" y="570" width="120" height="52" as="geometry" />
        </mxCell>
        <mxCell id="8375zv5q1dLebi3DOs6F-52" value="" style="endArrow=none;html=1;rounded=0;" parent="1" source="8375zv5q1dLebi3DOs6F-9" target="8375zv5q1dLebi3DOs6F-51" edge="1">
          <mxGeometry width="50" height="50" relative="1" as="geometry">
            <mxPoint x="330" y="556" as="sourcePoint" />
            <mxPoint x="390" y="620" as="targetPoint" />
          </mxGeometry>
        </mxCell>
        <mxCell id="8375zv5q1dLebi3DOs6F-53" value="Удалить комментарий" style="ellipse;whiteSpace=wrap;html=1;" parent="1" vertex="1">
          <mxGeometry x="-30" y="730" width="120" height="52" as="geometry" />
        </mxCell>
        <mxCell id="8375zv5q1dLebi3DOs6F-54" value="" style="endArrow=none;html=1;rounded=0;entryX=1;entryY=0.5;entryDx=0;entryDy=0;exitX=-0.013;exitY=0.42;exitDx=0;exitDy=0;exitPerimeter=0;" parent="1" source="8375zv5q1dLebi3DOs6F-16" target="8375zv5q1dLebi3DOs6F-53" edge="1">
          <mxGeometry width="50" height="50" relative="1" as="geometry">
            <mxPoint x="120" y="526" as="sourcePoint" />
            <mxPoint x="102" y="697" as="targetPoint" />
          </mxGeometry>
        </mxCell>
        <mxCell id="8375zv5q1dLebi3DOs6F-55" value="Пометит задачу как выполненную" style="ellipse;whiteSpace=wrap;html=1;fontSize=11;" parent="1" vertex="1">
          <mxGeometry x="-30" y="370" width="120" height="52" as="geometry" />
        </mxCell>
      </root>
    </mxGraphModel>
  </diagram>
</mxfile>
